<svg viewBox="0 0 24 16" fill="currentColor" xmlns="http://www.w3.org/2000/svg">
    <path d="M5.15186 10.7479L4.80393 11.1078V2.00003C4.80393 1.68177 4.67753 1.37655 4.45253 1.15151C4.22753 0.926475 3.92237 0.800049 3.60417 0.800049C3.28598 0.800049 2.98082 0.926475 2.75582 1.15151C2.53082 1.37655 2.40442 1.68177 2.40442 2.00003V11.1078L2.05649 10.7479C1.83057 10.5219 1.52416 10.395 1.20466 10.395C0.885167 10.395 0.578756 10.5219 0.352838 10.7479C0.126919 10.9738 0 11.2803 0 11.5998C0 11.9194 0.126919 12.2259 0.352838 12.4518L2.75235 14.8518C2.86645 14.961 3.00099 15.0467 3.14827 15.1038C3.29188 15.1673 3.44716 15.2 3.60417 15.2C3.76119 15.2 3.91647 15.1673 4.06008 15.1038C4.20735 15.0467 4.3419 14.961 4.456 14.8518L6.85551 12.4518C6.96737 12.3399 7.05611 12.2071 7.11665 12.0609C7.17719 11.9147 7.20834 11.7581 7.20834 11.5998C7.20834 11.4416 7.17719 11.2849 7.11665 11.1387C7.05611 10.9926 6.96737 10.8597 6.85551 10.7479C6.74364 10.636 6.61084 10.5472 6.46469 10.4867C6.31853 10.4261 6.16188 10.395 6.00368 10.395C5.84548 10.395 5.68883 10.4261 5.54268 10.4867C5.39652 10.5472 5.26372 10.636 5.15186 10.7479ZM10.8027 3.2H22.8002C23.1184 3.2 23.4236 3.07358 23.6486 2.84854C23.8736 2.6235 24 2.31828 24 2.00003C24 1.68177 23.8736 1.37655 23.6486 1.15151C23.4236 0.926475 23.1184 0.800049 22.8002 0.800049H10.8027C10.4845 0.800049 10.1793 0.926475 9.95435 1.15151C9.72935 1.37655 9.60295 1.68177 9.60295 2.00003C9.60295 2.31828 9.72935 2.6235 9.95435 2.84854C10.1793 3.07358 10.4845 3.2 10.8027 3.2ZM22.8002 6.79993H10.8027C10.4845 6.79993 10.1793 6.92636 9.95435 7.1514C9.72935 7.37644 9.60295 7.68166 9.60295 7.99991C9.60295 8.31816 9.72935 8.62338 9.95435 8.84842C10.1793 9.07346 10.4845 9.19989 10.8027 9.19989H22.8002C23.1184 9.19989 23.4236 9.07346 23.6486 8.84842C23.8736 8.62338 24 8.31816 24 7.99991C24 7.68166 23.8736 7.37644 23.6486 7.1514C23.4236 6.92636 23.1184 6.79993 22.8002 6.79993ZM22.8002 12.7998H10.8027C10.4845 12.7998 10.1793 12.9262 9.95435 13.1513C9.72935 13.3763 9.60295 13.6815 9.60295 13.9998C9.60295 14.318 9.72935 14.6233 9.95435 14.8483C10.1793 15.0733 10.4845 15.1998 10.8027 15.1998H22.8002C23.1184 15.1998 23.4236 15.0733 23.6486 14.8483C23.8736 14.6233 24 14.318 24 13.9998C24 13.6815 23.8736 13.3763 23.6486 13.1513C23.4236 12.9262 23.1184 12.7998 22.8002 12.7998Z"/>
</svg>
