<svg viewBox="0 0 17 15" xmlns="http://www.w3.org/2000/svg">
<path d="M9.18514 0.81958C9.01039 0.81958 8.85387 0.897582 8.7485 1.02066L8.69077 1.0623C6.96185 0.553871 5.00032 0.947097 3.63117 2.24195C2.41712 3.3901 1.95267 4.97871 2.23781 6.46388L2.22015 6.48035L1.4488 7.20983C0.78432 7.83824 0.78432 8.85711 1.4488 9.48554C1.84277 9.85813 2.38188 10.0098 2.89401 9.94058C2.96769 10.2085 3.11551 10.4619 3.33743 10.6717C3.63764 10.9557 4.02212 11.1114 4.41474 11.1387C4.44363 11.5101 4.6082 11.8738 4.90848 12.1578C5.20876 12.4418 5.59335 12.5974 5.98606 12.6248C6.0149 12.9962 6.17949 13.36 6.47982 13.644C7.0902 14.2212 8.04896 14.2682 8.71607 13.785L9.095 14.1433C9.76273 14.7749 10.8453 14.7749 11.5131 14.1433C11.8123 13.8604 11.9773 13.4989 12.0085 13.1291C12.3985 13.1003 12.78 12.9448 13.0785 12.6626C13.3778 12.3795 13.5423 12.0175 13.5721 11.6474C13.9575 11.6162 14.3337 11.4611 14.6288 11.1821C14.8608 10.9626 15.0118 10.6955 15.0819 10.4141C15.5864 10.475 16.1143 10.3222 16.5016 9.9558C17.1662 9.32737 17.1662 8.3085 16.5016 7.68009L15.8193 7.03475L15.9494 6.55297C16.2513 5.43424 16.0987 4.24992 15.5253 3.23576C14.6798 1.74046 13.0448 0.823441 11.2835 0.823441H10.115C10.0624 0.820867 10.0095 0.81958 9.95632 0.81958H9.18514ZM14.2091 7.0909L14.7681 7.641C14.8031 7.67555 14.8421 7.70499 14.8837 7.72901L15.6668 8.46967C15.8702 8.66202 15.8702 8.97387 15.6668 9.16622C15.4634 9.35857 15.1336 9.35857 14.9302 9.16622L13.6208 7.92782C13.3903 7.70979 13.0165 7.70979 12.7859 7.92782L12.7729 7.94012C12.5424 8.15815 12.5424 8.51165 12.7729 8.72969L13.7939 9.69525C13.9975 9.88777 13.9975 10.1999 13.7939 10.3924C13.6082 10.5681 13.3161 10.5837 13.1123 10.4382C12.8764 10.2699 12.5451 10.2924 12.3371 10.491C12.1293 10.6897 12.1086 11.0031 12.289 11.2246C12.4461 11.4174 12.4307 11.6962 12.2436 11.873C12.0555 12.0509 11.7583 12.0646 11.5542 11.9131C11.3198 11.7391 10.985 11.7578 10.7737 11.9564C10.5623 12.1551 10.5407 12.4716 10.7232 12.6944C10.8837 12.8902 10.8684 13.1739 10.6782 13.3538C10.4716 13.5492 10.1365 13.5492 9.92989 13.3538L9.56144 13.0053L9.65747 12.9146C10.3219 12.2861 10.3219 11.2672 9.65747 10.6388C9.35718 10.3548 8.9726 10.1992 8.57989 10.1719C8.55104 9.80041 8.38646 9.43662 8.08613 9.1526C7.78592 8.86868 7.40144 8.71304 7.00882 8.68566C6.97993 8.31428 6.81536 7.95058 6.51508 7.6666C6.12111 7.29401 5.58201 7.14233 5.06987 7.21155C4.99619 6.94366 4.84838 6.69022 4.62645 6.48035C4.27822 6.15101 3.8166 5.99427 3.36044 6.01012C3.23687 4.94855 3.60541 3.84546 4.46606 3.03152C5.27956 2.26216 6.36624 1.90863 7.43081 1.9709L6.17272 2.87816C5.35488 3.46792 5.20242 4.596 5.83434 5.38171C6.45148 6.14905 7.58746 6.30258 8.38616 5.72661L9.93283 4.61126H11.5872L14.2091 7.0909ZM6.84484 3.81019L9.39847 1.96869H9.95632C9.99436 1.96869 10.0321 1.96971 10.0695 1.97173C10.0798 1.97228 10.0901 1.97255 10.1003 1.97255H11.2835C12.6529 1.97255 13.8943 2.68569 14.525 3.80133C14.9301 4.51782 15.0505 5.34242 14.8708 6.12979L12.3279 3.62721C12.2205 3.52143 12.0757 3.46215 11.9249 3.46215H9.74727C9.62664 3.46215 9.50906 3.50011 9.4112 3.57068L7.71403 4.79456C7.41106 5.01306 6.96388 4.95261 6.72978 4.66153C6.51046 4.38885 6.561 4.01488 6.84484 3.81019ZM8.08794 11.4266C8.29148 11.2361 8.61982 11.2366 8.82258 11.4284C9.02596 11.6208 9.02596 11.9325 8.82258 12.1249L8.05123 12.8545C7.84785 13.0468 7.51809 13.0468 7.31469 12.8545C7.11131 12.6621 7.11131 12.3502 7.31469 12.1579L8.08794 11.4266ZM7.2531 10.6369L6.4799 11.3682C6.27652 11.5606 5.94676 11.5606 5.74336 11.3682C5.54401 11.1796 5.54005 10.8764 5.73148 10.6832L5.74373 10.6717L6.51508 9.94231L6.52703 9.93089C6.73121 9.7499 7.05191 9.75366 7.25125 9.94217C7.45401 10.1339 7.45463 10.4444 7.2531 10.6369ZM5.67983 9.1526L4.90848 9.88208L4.89653 9.89351C4.69235 10.0745 4.37165 10.0707 4.17231 9.88221C3.96893 9.68986 3.96893 9.378 4.17231 9.18565L4.94366 8.45618C5.14704 8.26381 5.4768 8.26381 5.6802 8.45618C5.87954 8.6447 5.88351 8.94804 5.69207 9.14114L5.67983 9.1526ZM3.79156 7.96648L3.02022 8.69596C2.81683 8.88831 2.48708 8.88831 2.28369 8.69596C2.08029 8.50361 2.08029 8.19175 2.28369 7.9994L3.05503 7.26991C3.25842 7.07756 3.58818 7.07756 3.79156 7.26991C3.99496 7.46226 3.99496 7.77413 3.79156 7.96648Z" fill="currentColor"/>
</svg>
