<svg viewBox="0 0 16 18" xmlns="http://www.w3.org/2000/svg">
<path d="M4.90833 10.075C4.83023 10.1524 4.76823 10.2446 4.72592 10.3461C4.68362 10.4477 4.66183 10.5566 4.66183 10.6666C4.66183 10.7766 4.68362 10.8856 4.72592 10.9871C4.76823 11.0887 4.83023 11.1808 4.90833 11.2583L7.40833 13.7583C7.4858 13.8364 7.57797 13.8984 7.67952 13.9407C7.78107 13.983 7.88999 14.0048 8 14.0048C8.11001 14.0048 8.21893 13.983 8.32048 13.9407C8.42203 13.8984 8.5142 13.8364 8.59167 13.7583L11.0917 11.2583C11.2486 11.1014 11.3367 10.8885 11.3367 10.6666C11.3367 10.4447 11.2486 10.2319 11.0917 10.075C10.9347 9.91804 10.7219 9.82988 10.5 9.82988C10.2781 9.82988 10.0653 9.91804 9.90833 10.075L8.83333 11.1583V1.49996C8.83333 1.27895 8.74554 1.06698 8.58926 0.910704C8.43297 0.754423 8.22101 0.666626 8 0.666626C7.77899 0.666626 7.56702 0.754423 7.41074 0.910704C7.25446 1.06698 7.16667 1.27895 7.16667 1.49996V11.1583L6.09167 10.075C6.0142 9.99685 5.92203 9.93486 5.82048 9.89255C5.71893 9.85024 5.61001 9.82846 5.5 9.82846C5.38999 9.82846 5.28107 9.85024 5.17952 9.89255C5.07797 9.93486 4.9858 9.99685 4.90833 10.075ZM13 6.49996H11.3333C11.1123 6.49996 10.9004 6.58776 10.7441 6.74404C10.5878 6.90032 10.5 7.11228 10.5 7.33329C10.5 7.55431 10.5878 7.76627 10.7441 7.92255C10.9004 8.07883 11.1123 8.16663 11.3333 8.16663H13C13.221 8.16663 13.433 8.25442 13.5893 8.4107C13.7455 8.56698 13.8333 8.77894 13.8333 8.99996V14.8333C13.8333 15.0543 13.7455 15.2663 13.5893 15.4225C13.433 15.5788 13.221 15.6666 13 15.6666H3C2.77899 15.6666 2.56702 15.5788 2.41074 15.4225C2.25446 15.2663 2.16667 15.0543 2.16667 14.8333V8.99996C2.16667 8.77894 2.25446 8.56698 2.41074 8.4107C2.56702 8.25442 2.77899 8.16663 3 8.16663H4.66667C4.88768 8.16663 5.09964 8.07883 5.25592 7.92255C5.4122 7.76627 5.5 7.55431 5.5 7.33329C5.5 7.11228 5.4122 6.90032 5.25592 6.74404C5.09964 6.58776 4.88768 6.49996 4.66667 6.49996H3C2.33696 6.49996 1.70107 6.76335 1.23223 7.23219C0.763392 7.70103 0.5 8.33692 0.5 8.99996V14.8333C0.5 15.4963 0.763392 16.1322 1.23223 16.6011C1.70107 17.0699 2.33696 17.3333 3 17.3333H13C13.663 17.3333 14.2989 17.0699 14.7678 16.6011C15.2366 16.1322 15.5 15.4963 15.5 14.8333V8.99996C15.5 8.33692 15.2366 7.70103 14.7678 7.23219C14.2989 6.76335 13.663 6.49996 13 6.49996Z" fill="currentColor"/>
</svg>
