<svg viewBox="0 0 18 21" xmlns="http://www.w3.org/2000/svg">
    <path d="M15.1404 11.6394V8.33732C15.1389 6.86607 14.6168 5.4428 13.6665 4.31959C12.7162 3.19638 11.3991 2.4457 9.94846 2.20049V1.06865C9.94846 0.793259 9.83906 0.529143 9.64432 0.334408C9.44959 0.139674 9.18547 0.0302734 8.91008 0.0302734C8.63468 0.0302734 8.37057 0.139674 8.17583 0.334408C7.9811 0.529143 7.8717 0.793259 7.8717 1.06865V2.20049C6.42102 2.4457 5.10392 3.19638 4.15365 4.31959C3.20339 5.4428 2.68128 6.86607 2.67979 8.33732V11.6394C2.07384 11.8536 1.54899 12.25 1.17719 12.7743C0.805386 13.2985 0.604834 13.9249 0.603027 14.5676V16.6444C0.603027 16.9198 0.712428 17.1839 0.907162 17.3786C1.1019 17.5734 1.36601 17.6828 1.64141 17.6828H4.90193C5.14105 18.5626 5.66306 19.3394 6.38743 19.8932C7.1118 20.447 7.99827 20.747 8.91008 20.747C9.82188 20.747 10.7084 20.447 11.4327 19.8932C12.1571 19.3394 12.6791 18.5626 12.9182 17.6828H16.1787C16.4541 17.6828 16.7183 17.5734 16.913 17.3786C17.1077 17.1839 17.2171 16.9198 17.2171 16.6444V14.5676C17.2153 13.9249 17.0148 13.2985 16.643 12.7743C16.2712 12.25 15.7463 11.8536 15.1404 11.6394ZM4.75655 8.33732C4.75655 7.23574 5.19415 6.17928 5.97309 5.40034C6.75203 4.6214 7.80849 4.1838 8.91008 4.1838C10.0117 4.1838 11.0681 4.6214 11.8471 5.40034C12.626 6.17928 13.0636 7.23574 13.0636 8.33732V11.4525H4.75655V8.33732ZM8.91008 18.7211C8.54765 18.719 8.19211 18.622 7.87879 18.4398C7.56547 18.2576 7.30527 17.9966 7.12406 17.6828H10.6961C10.5149 17.9966 10.2547 18.2576 9.94137 18.4398C9.62804 18.622 9.2725 18.719 8.91008 18.7211ZM15.1404 15.606H2.67979V14.5676C2.67979 14.2922 2.78919 14.0281 2.98393 13.8334C3.17866 13.6386 3.44278 13.5292 3.71817 13.5292H14.102C14.3774 13.5292 14.6415 13.6386 14.8362 13.8334C15.031 14.0281 15.1404 14.2922 15.1404 14.5676V15.606Z"
          fill="currentColor"/>
</svg>
