<svg viewBox="0 0 30 40" fill="none" xmlns="http://www.w3.org/2000/svg">
    <path d="M23.5714 0H6.42858C4.72362 0 3.08849 0.632016 1.8829 1.75701C0.67731 2.882 1.6892e-05 4.40782 1.6892e-05 5.99881V37.9925C-0.00148218 38.3448 0.0968196 38.6913 0.284969 38.9968C0.473119 39.3023 0.744435 39.5559 1.07144 39.7321C1.3972 39.9076 1.76672 40 2.14287 40C2.51902 40 2.88854 39.9076 3.2143 39.7321L15 33.3734L26.7857 39.7321C27.1123 39.9048 27.4817 39.9945 27.8571 39.9921C28.2325 39.9945 28.602 39.9048 28.9286 39.7321C29.2556 39.5559 29.5269 39.3023 29.715 38.9968C29.9032 38.6913 30.0015 38.3448 30 37.9925V5.99881C30 4.40782 29.3227 2.882 28.1171 1.75701C26.9115 0.632016 25.2764 0 23.5714 0Z"
          fill="currentColor"/>
</svg>
