<svg viewBox="0 0 40 40" fill="none" xmlns="http://www.w3.org/2000/svg">
<path d="M36 36H38C38.5304 36 39.0391 36.2107 39.4142 36.5858C39.7893 36.9609 40 37.4696 40 38C40 38.5304 39.7893 39.0391 39.4142 39.4142C39.0391 39.7893 38.5304 40 38 40H2C1.46957 40 0.960859 39.7893 0.585786 39.4142C0.210714 39.0391 0 38.5304 0 38C0 37.4696 0.210714 36.9609 0.585786 36.5858C0.960859 36.2107 1.46957 36 2 36H4V2C4 1.46957 4.21071 0.960859 4.58579 0.585786C4.96086 0.210714 5.46957 0 6 0H34C34.5304 0 35.0391 0.210714 35.4142 0.585786C35.7893 0.960859 36 1.46957 36 2V36Z" fill="currentColor"/>
<path d="M11.8872 10.2482C11.8872 9.13918 12.7862 8.24015 13.8952 8.24015H16.3049C17.4139 8.24015 18.3129 9.13918 18.3129 10.2482C18.3129 11.3572 17.4139 12.2562 16.3049 12.2562H13.8952C12.7862 12.2562 11.8872 11.3572 11.8872 10.2482Z" fill="white"/>
<path d="M21.847 10.2642C21.847 9.15524 22.7461 8.25622 23.8551 8.25622H26.2647C27.3737 8.25622 28.2727 9.15524 28.2727 10.2642C28.2727 11.3733 27.3737 12.2723 26.2647 12.2723H23.8551C22.7461 12.2723 21.847 11.3733 21.847 10.2642Z" fill="white"/>
<path d="M13.8952 16.2402C12.7862 16.2402 11.8872 17.1392 11.8872 18.2482C11.8872 19.3572 12.7862 20.2562 13.8952 20.2562H16.3049C17.4139 20.2562 18.3129 19.3572 18.3129 18.2482C18.3129 17.1392 17.4139 16.2402 16.3049 16.2402H13.8952Z" fill="white"/>
<path d="M21.847 18.2642C21.847 17.1552 22.7461 16.2562 23.8551 16.2562H26.2647C27.3737 16.2562 28.2727 17.1552 28.2727 18.2642C28.2727 19.3733 27.3737 20.2723 26.2647 20.2723H23.8551C22.7461 20.2723 21.847 19.3733 21.847 18.2642Z" fill="white"/>
<path d="M22.4896 36.3205L22.4896 26.6819H17.6703V36.3205H22.4896Z" fill="white"/>
</svg>
