<svg viewBox="0 0 35 40" fill="none" xmlns="http://www.w3.org/2000/svg">
    <path d="M34.3617 12.5891C34.7273 12.9376 34.9441 13.3944 34.9728 13.8766C34.9759 13.9197 35 13.9562 35 14V34C34.9981 35.5908 34.3061 37.1159 33.0758 38.2407C31.8455 39.3656 30.1774 39.9983 28.4375 40H6.5625C4.8226 39.9983 3.15451 39.3656 1.92421 38.2407C0.693914 37.1159 0.00189918 35.5908 0 34V6C0.00189918 4.40923 0.693914 2.88412 1.92421 1.75928C3.15451 0.634435 4.8226 0.00173639 6.5625 0H19.6875C19.7342 0 19.7734 0.0217201 19.8194 0.0243401C20.0184 0.0353217 20.2147 0.0715554 20.4027 0.132C20.4716 0.15418 20.5396 0.17 20.605 0.198C20.8367 0.292071 21.0485 0.422591 21.2308 0.58362L21.2348 0.58654L34.3585 12.5853L34.3617 12.5891Z"
          fill="currentColor"/>
    <path d="M10.9378 15.2693H13.1253C13.7055 15.2693 14.2619 15.0603 14.6721 14.6882C15.0824 14.3162 15.3128 13.8115 15.3128 13.2854C15.3128 12.7592 15.0824 12.2546 14.6721 11.8825C14.2619 11.5104 13.7055 11.3014 13.1253 11.3014C13.1253 11.3014 11.518 11.3014 10.9378 11.3014C10.3577 11.3014 9.80127 11.5104 9.39104 11.8825C8.9808 12.2546 8.75033 12.7592 8.75033 13.2854C8.75033 13.8115 8.9808 14.3162 9.39104 14.6882C9.80127 15.0603 10.3577 15.2693 10.9378 15.2693ZM22.3357 20.0034L18.6753 24.2726L16.7762 22.7226C16.5547 22.5418 16.2949 22.404 16.0126 22.3175C15.7303 22.231 15.4315 22.1978 15.1345 22.2199C14.8376 22.2419 14.5487 22.3187 14.2857 22.4457C14.0226 22.5726 13.791 22.747 13.6049 22.958L9.22992 27.9179C9.04927 28.1212 8.91465 28.3548 8.83378 28.6054C8.75292 28.856 8.7274 29.1186 8.75868 29.3781C8.78997 29.6377 8.87745 29.8891 9.01611 30.1179C9.15477 30.3467 9.34187 30.5485 9.56669 30.7115C9.79151 30.8746 10.0496 30.9959 10.3262 31.0683C10.6028 31.1407 10.8924 31.1629 11.1785 31.1335C11.4646 31.1042 11.7414 31.0239 11.9932 30.8973C12.245 30.7707 12.4668 30.6003 12.6457 30.3958L15.5724 27.078L17.495 28.6473C17.7183 28.8296 17.9807 28.9683 18.2658 29.0547C18.5509 29.141 18.8525 29.1731 19.1519 29.149C19.4512 29.1249 19.7419 29.0452 20.0058 28.9147C20.2696 28.7842 20.501 28.6057 20.6854 28.3905L25.79 22.4387C26.1461 22.0233 26.3056 21.4966 26.2335 20.9745C26.1614 20.4523 25.8635 19.9776 25.4055 19.6546C25.1786 19.4947 24.9193 19.3769 24.6423 19.3079C24.3653 19.2389 24.076 19.22 23.7909 19.2524C23.2152 19.3178 22.6918 19.588 22.3357 20.0034ZM21.8753 6.17107L27.5321 11.3014H24.0628C23.4829 11.3007 22.9269 11.0915 22.5169 10.7196C22.1068 10.3477 21.8761 9.84344 21.8753 9.31748V6.17107Z"
          fill="white"/>
</svg>
