<svg viewBox="0 0 16 20" fill="currentColor" xmlns="http://www.w3.org/2000/svg">
    <path d="M5 8H6C6.26522 8 6.51957 7.89464 6.70711 7.70711C6.89464 7.51957 7 7.26522 7 7C7 6.73478 6.89464 6.48043 6.70711 6.29289C6.51957 6.10536 6.26522 6 6 6H5C4.73478 6 4.48043 6.10536 4.29289 6.29289C4.10536 6.48043 4 6.73478 4 7C4 7.26522 4.10536 7.51957 4.29289 7.70711C4.48043 7.89464 4.73478 8 5 8ZM10.2104 10.3862L8.53711 12.5381L7.66895 11.7568C7.56772 11.6657 7.44894 11.5962 7.31989 11.5526C7.19084 11.5091 7.05425 11.4923 6.9185 11.5034C6.78274 11.5145 6.65069 11.5533 6.53045 11.6172C6.4102 11.6812 6.3043 11.7691 6.21924 11.8755L4.21924 14.3755C4.13666 14.478 4.07512 14.5957 4.03815 14.722C4.00118 14.8483 3.98951 14.9807 4.00382 15.1115C4.01812 15.2424 4.05811 15.3691 4.1215 15.4844C4.18488 15.5997 4.27042 15.7014 4.37319 15.7836C4.47596 15.8658 4.59396 15.9269 4.7204 15.9634C4.84684 15.9999 4.97925 16.0111 5.11002 15.9963C5.24079 15.9816 5.36736 15.9411 5.48246 15.8773C5.59756 15.8135 5.69893 15.7276 5.78076 15.6245L7.11865 13.9521L7.99756 14.7431C8.09966 14.8351 8.21961 14.905 8.34993 14.9485C8.48024 14.992 8.61813 15.0082 8.75498 14.9961C8.89183 14.9839 9.02472 14.9437 9.14534 14.8779C9.26596 14.8121 9.37173 14.7222 9.45605 14.6137L11.7895 11.6137C11.9523 11.4043 12.0253 11.1388 11.9923 10.8757C11.9593 10.6125 11.8232 10.3732 11.6138 10.2104C11.5101 10.1298 11.3915 10.0704 11.2649 10.0356C11.1383 10.0009 11.006 9.99135 10.8757 10.0077C10.6125 10.0406 10.3732 10.1768 10.2104 10.3862ZM15.9875 6.93829C15.9745 6.6972 15.8753 6.46879 15.7082 6.29456L15.7067 6.29266L9.70734 0.29327L9.70551 0.29181C9.62217 0.211296 9.52534 0.146035 9.41943 0.099C9.38953 0.085 9.35843 0.07709 9.32697 0.066C9.241 0.0357777 9.15125 0.0176609 9.0603 0.0121701C9.03925 0.0108601 9.02136 0 9 0H3C2.20462 0.000868196 1.44206 0.317218 0.879639 0.879639C0.317218 1.44206 0.000868196 2.20462 0 3V17C0.000868196 17.7954 0.317218 18.5579 0.879639 19.1204C1.44206 19.6828 2.20462 19.9991 3 20H13C13.7954 19.9991 14.5579 19.6828 15.1204 19.1204C15.6828 18.5579 15.9991 17.7954 16 17V7C16 6.97809 15.989 6.95984 15.9875 6.93829ZM10 3.41406L12.5859 6H11C10.7349 5.99966 10.4807 5.89419 10.2933 5.70673C10.1058 5.51927 10.0003 5.26511 10 5V3.41406ZM14 17C13.9997 17.2651 13.8942 17.5193 13.7067 17.7067C13.5193 17.8942 13.2651 17.9997 13 18H3C2.73489 17.9997 2.48073 17.8942 2.29327 17.7067C2.10581 17.5193 2.00034 17.2651 2 17V3C2.00034 2.73489 2.10581 2.48073 2.29327 2.29327C2.48073 2.10581 2.73489 2.00034 3 2H8V5C8.00087 5.79538 8.31722 6.55794 8.87964 7.12036C9.44206 7.68278 10.2046 7.99913 11 8H14V17Z"/>
</svg>
