<svg viewBox="0 0 20 21" xmlns="http://www.w3.org/2000/svg">
<path d="M12.72 6.93246L8.43001 11.2325L6.78 9.58246C6.69036 9.47777 6.58004 9.39275 6.45597 9.33273C6.33191 9.27271 6.19678 9.23898 6.05906 9.23366C5.92134 9.22834 5.78401 9.25154 5.65568 9.30182C5.52736 9.35209 5.41081 9.42835 5.31335 9.52581C5.2159 9.62326 5.13964 9.73981 5.08937 9.86813C5.03909 9.99646 5.01589 10.1338 5.02121 10.2715C5.02653 10.4092 5.06026 10.5444 5.12028 10.6684C5.1803 10.7925 5.26532 10.9028 5.37 10.9925L7.72 13.3525C7.81344 13.4451 7.92426 13.5185 8.0461 13.5682C8.16794 13.618 8.2984 13.6432 8.43001 13.6425C8.69234 13.6414 8.94374 13.5372 9.13 13.3525L14.13 8.35246C14.2237 8.25949 14.2981 8.14889 14.3489 8.02703C14.3997 7.90517 14.4258 7.77447 14.4258 7.64246C14.4258 7.51044 14.3997 7.37974 14.3489 7.25788C14.2981 7.13602 14.2237 7.02542 14.13 6.93246C13.9426 6.7462 13.6892 6.64166 13.425 6.64166C13.1608 6.64166 12.9074 6.7462 12.72 6.93246ZM10 0.142456C8.02219 0.142456 6.08879 0.728946 4.4443 1.82776C2.79981 2.92657 1.51809 4.48836 0.761209 6.31562C0.00433284 8.14288 -0.193701 10.1535 0.192152 12.0934C0.578004 14.0332 1.53041 15.815 2.92894 17.2135C4.32746 18.612 6.10929 19.5645 8.0491 19.9503C9.98891 20.3362 11.9996 20.1381 13.8268 19.3813C15.6541 18.6244 17.2159 17.3426 18.3147 15.6982C19.4135 14.0537 20 12.1203 20 10.1425C20 8.82924 19.7413 7.52888 19.2388 6.31562C18.7363 5.10237 17.9997 3.99997 17.0711 3.07139C16.1425 2.1428 15.0401 1.40621 13.8268 0.903661C12.6136 0.401114 11.3132 0.142456 10 0.142456ZM10 18.1425C8.41775 18.1425 6.87104 17.6733 5.55544 16.7942C4.23985 15.9152 3.21447 14.6657 2.60897 13.2039C2.00347 11.7421 1.84504 10.1336 2.15372 8.58173C2.4624 7.02989 3.22433 5.60442 4.34315 4.4856C5.46197 3.36678 6.88743 2.60486 8.43928 2.29617C9.99113 1.98749 11.5997 2.14592 13.0615 2.75142C14.5233 3.35692 15.7727 4.3823 16.6518 5.69789C17.5308 7.01349 18 8.56021 18 10.1425C18 12.2642 17.1572 14.299 15.6569 15.7993C14.1566 17.2996 12.1217 18.1425 10 18.1425Z" fill="currentColor"/>
</svg>
