<svg viewBox="0 0 15 24" fill="currentColor" xmlns="http://www.w3.org/2000/svg">
    <path d="M0.934017 0.673445C0.509981 1.10001 0.271972 1.67704 0.271972 2.27851C0.271972 2.87999 0.509981 3.45702 0.934018 3.88358L8.99352 12.0569L0.934018 20.1164C0.509982 20.543 0.271973 21.12 0.271973 21.7215C0.271973 22.323 0.509982 22.9 0.934018 23.3266C1.14567 23.5399 1.39747 23.7093 1.67491 23.8249C1.95234 23.9405 2.24992 24 2.55047 24C2.85102 24 3.1486 23.9405 3.42604 23.8249C3.70347 23.7093 3.95528 23.5399 4.16693 23.3266L13.8201 13.6734C14.0335 13.4617 14.2029 13.2099 14.3185 12.9325C14.434 12.655 14.4936 12.3575 14.4936 12.0569C14.4936 11.7564 14.434 11.4588 14.3185 11.1814C14.2029 10.9039 14.0335 10.6521 13.8201 10.4405L4.16692 0.673445C3.95528 0.460054 3.70347 0.290682 3.42604 0.175096C3.1486 0.0595111 2.85102 -1.12734e-07 2.55047 -9.95964e-08C2.24992 -8.64589e-08 1.95234 0.0595111 1.67491 0.175096C1.39747 0.290682 1.14567 0.460054 0.934017 0.673445Z"/>
</svg>
