<svg viewBox="0 0 15 24" fill="currentColor" xmlns="http://www.w3.org/2000/svg">
    <path d="M13.8316 0.673445C14.2556 1.10001 14.4937 1.67704 14.4937 2.27851C14.4937 2.87999 14.2556 3.45702 13.8316 3.88358L5.77211 12.0569L13.8316 20.1164C14.2556 20.543 14.4937 21.12 14.4937 21.7215C14.4937 22.323 14.2556 22.9 13.8316 23.3266C13.62 23.5399 13.3682 23.7093 13.0907 23.8249C12.8133 23.9405 12.5157 24 12.2152 24C11.9146 24 11.617 23.9405 11.3396 23.8249C11.0622 23.7093 10.8103 23.5399 10.5987 23.3266L0.945512 13.6734C0.732121 13.4617 0.562748 13.2099 0.447164 12.9325C0.331579 12.655 0.272069 12.3575 0.272069 12.0569C0.27207 11.7564 0.331579 11.4588 0.447164 11.1814C0.562749 10.9039 0.732121 10.6521 0.945512 10.4405L10.5987 0.673445C10.8103 0.460054 11.0622 0.290682 11.3396 0.175096C11.617 0.0595111 11.9146 -1.12734e-07 12.2152 -9.95964e-08C12.5157 -8.64589e-08 12.8133 0.0595111 13.0907 0.175096C13.3682 0.290682 13.62 0.460054 13.8316 0.673445Z"/>
</svg>
