<svg viewBox="0 0 24 24" fill="currentColor" xmlns="http://www.w3.org/2000/svg">
<path d="M14.8196 11.9955L23.4113 3.42377C23.7875 3.04753 23.9989 2.53723 23.9989 2.00515C23.9989 1.47306 23.7875 0.962761 23.4113 0.586517C23.035 0.210273 22.5248 -0.00109863 21.9927 -0.00109863C21.4606 -0.00109863 20.9503 0.210273 20.574 0.586517L12.0023 9.17821L3.4306 0.586517C3.05436 0.210273 2.54406 -0.00109864 2.01197 -0.00109863C1.47988 -0.00109863 0.969589 0.210273 0.593345 0.586517C0.217101 0.962761 0.00572925 1.47306 0.00572924 2.00515C0.00572924 2.53723 0.217101 3.04753 0.593345 3.42377L9.18504 11.9955L0.593345 20.5672C0.406069 20.753 0.257424 20.9739 0.155985 21.2174C0.0545458 21.4609 0.00231934 21.7221 0.00231934 21.9858C0.00231934 22.2496 0.0545458 22.5108 0.155985 22.7542C0.257424 22.9977 0.406069 23.2187 0.593345 23.4045C0.779091 23.5917 1.00008 23.7404 1.24356 23.8418C1.48705 23.9433 1.74821 23.9955 2.01197 23.9955C2.27574 23.9955 2.5369 23.9433 2.78038 23.8418C3.02387 23.7404 3.24486 23.5917 3.4306 23.4045L12.0023 14.8128L20.574 23.4045C20.7598 23.5917 20.9808 23.7404 21.2243 23.8418C21.4677 23.9433 21.7289 23.9955 21.9927 23.9955C22.2564 23.9955 22.5176 23.9433 22.7611 23.8418C23.0046 23.7404 23.2255 23.5917 23.4113 23.4045C23.5986 23.2187 23.7472 22.9977 23.8487 22.7542C23.9501 22.5108 24.0023 22.2496 24.0023 21.9858C24.0023 21.7221 23.9501 21.4609 23.8487 21.2174C23.7472 20.9739 23.5986 20.753 23.4113 20.5672L14.8196 11.9955Z" />
</svg>
