<svg viewBox="0 0 35 40" xmlns="http://www.w3.org/2000/svg">
    <path d="M10.9375 16H13.125C13.7052 16 14.2616 15.7893 14.6718 15.4142C15.082 15.0391 15.3125 14.5304 15.3125 14C15.3125 13.4696 15.082 12.9609 14.6718 12.5858C14.2616 12.2107 13.7052 12 13.125 12H10.9375C10.3573 12 9.80094 12.2107 9.3907 12.5858C8.98047 12.9609 8.75 13.4696 8.75 14C8.75 14.5304 8.98047 15.0391 9.3907 15.4142C9.80094 15.7893 10.3573 16 10.9375 16ZM22.3354 20.7725L18.6749 25.0762L16.7758 23.5137C16.5544 23.3314 16.2946 23.1924 16.0123 23.1053C15.73 23.0181 15.4312 22.9846 15.1342 23.0068C14.8373 23.0291 14.5484 23.1065 14.2854 23.2345C14.0223 23.3625 13.7907 23.5382 13.6046 23.751L9.22959 28.751C9.04894 28.9559 8.91432 29.1915 8.83345 29.4441C8.75258 29.6967 8.72706 29.9614 8.75835 30.2231C8.78964 30.4847 8.87712 30.7381 9.01578 30.9688C9.15443 31.1995 9.34154 31.4029 9.56636 31.5673C9.79117 31.7317 10.0493 31.8539 10.3259 31.9269C10.6025 31.9999 10.8921 32.0223 11.1782 31.9927C11.4642 31.9631 11.7411 31.8822 11.9929 31.7546C12.2447 31.6269 12.4664 31.4551 12.6454 31.249L15.572 27.9043L17.4947 29.4863C17.718 29.6701 17.9804 29.8099 18.2655 29.897C18.5505 29.984 18.8522 30.0164 19.1515 29.9921C19.4509 29.9678 19.7416 29.8874 20.0054 29.7558C20.2693 29.6243 20.5007 29.4444 20.6851 29.2275L25.7896 23.2275C26.1457 22.8087 26.3053 22.2777 26.2332 21.7514C26.161 21.225 25.8632 20.7464 25.4051 20.4208C25.1783 20.2596 24.919 20.1409 24.642 20.0713C24.365 20.0017 24.0757 19.9827 23.7906 20.0153C23.2149 20.0813 22.6914 20.3537 22.3354 20.7725ZM34.9728 13.8766C34.9441 13.3944 34.7273 12.9376 34.3617 12.5891L34.3585 12.5853L21.2348 0.58654L21.2308 0.58362C21.0485 0.422591 20.8367 0.292071 20.605 0.198C20.5396 0.17 20.4716 0.15418 20.4027 0.132C20.2147 0.0715554 20.0184 0.0353217 19.8194 0.0243402C19.7734 0.0217202 19.7342 0 19.6875 0H6.5625C4.8226 0.00173639 3.15451 0.634435 1.92421 1.75928C0.693914 2.88412 0.00189918 4.40923 0 6V34C0.00189918 35.5908 0.693914 37.1159 1.92421 38.2407C3.15451 39.3656 4.8226 39.9983 6.5625 40H28.4375C30.1774 39.9983 31.8455 39.3656 33.0758 38.2407C34.3061 37.1159 34.9981 35.5908 35 34V14C35 13.9562 34.9759 13.9197 34.9728 13.8766ZM21.875 6.82812L27.5317 12H24.0625C23.4826 11.9993 22.9266 11.7884 22.5165 11.4135C22.1065 11.0385 21.8758 10.5302 21.875 10V6.82812ZM30.625 34C30.6242 34.5302 30.3935 35.0385 29.9835 35.4135C29.5734 35.7884 29.0174 35.9993 28.4375 36H6.5625C5.98257 35.9993 5.42661 35.7884 5.01653 35.4135C4.60646 35.0385 4.37575 34.5302 4.375 34V6C4.37575 5.46978 4.60646 4.96147 5.01653 4.58655C5.42661 4.21162 5.98257 4.00069 6.5625 4H17.5V10C17.5019 11.5908 18.1939 13.1159 19.4242 14.2407C20.6545 15.3656 22.3226 15.9983 24.0625 16H30.625V34Z"
          fill="currentColor"/>
</svg>
