<svg xmlns="http://www.w3.org/2000/svg" viewBox="0 0 17 14" fill="none">
    <path d="M13.8973 0.911133H2.45247C1.80203 0.911133 1.17824 1.16952 0.718312 1.62944C0.258384 2.08937 0 2.71317 0 3.3636V11.5385C0 12.1889 0.258384 12.8127 0.718312 13.2727C1.17824 13.7326 1.80203 13.991 2.45247 13.991H13.8973C14.5478 13.991 15.1716 13.7326 15.6315 13.2727C16.0914 12.8127 16.3498 12.1889 16.3498 11.5385V3.3636C16.3498 2.71317 16.0914 2.08937 15.6315 1.62944C15.1716 1.16952 14.5478 0.911133 13.8973 0.911133ZM2.45247 2.54611H13.8973C14.1141 2.54611 14.3221 2.63224 14.4754 2.78555C14.6287 2.93886 14.7148 3.14679 14.7148 3.3636L8.1749 7.35295L1.63498 3.3636C1.63498 3.14679 1.72111 2.93886 1.87442 2.78555C2.02773 2.63224 2.23566 2.54611 2.45247 2.54611ZM14.7148 11.5385C14.7148 11.7553 14.6287 11.9632 14.4754 12.1166C14.3221 12.2699 14.1141 12.356 13.8973 12.356H2.45247C2.23566 12.356 2.02773 12.2699 1.87442 12.1166C1.72111 11.9632 1.63498 11.7553 1.63498 11.5385V5.22748L7.7498 8.96341C7.87408 9.03516 8.01505 9.07293 8.15855 9.07293C8.30205 9.07293 8.44302 9.03516 8.56729 8.96341L14.7148 5.22748V11.5385Z"
          fill="currentColor"/>
</svg>
