<svg viewBox="0 0 17 20" fill="currentColor" xmlns="http://www.w3.org/2000/svg">
    <path d="M0 10C0 10.2652 0.110902 10.5196 0.308309 10.7071C0.505716 10.8946 0.773456 11 1.05263 11H9.0421L6.62105 13.29C6.52239 13.383 6.44408 13.4936 6.39064 13.6154C6.3372 13.7373 6.30969 13.868 6.30969 14C6.30969 14.132 6.3372 14.2627 6.39064 14.3846C6.44408 14.5064 6.52239 14.617 6.62105 14.71C6.71891 14.8037 6.83533 14.8781 6.9636 14.9289C7.09188 14.9797 7.22946 15.0058 7.36842 15.0058C7.50738 15.0058 7.64497 14.9797 7.77324 14.9289C7.90151 14.8781 8.01793 14.8037 8.11579 14.71L12.3263 10.71C12.4221 10.6149 12.4973 10.5028 12.5474 10.38C12.6526 10.1365 12.6526 9.86346 12.5474 9.62C12.4973 9.49725 12.4221 9.3851 12.3263 9.29L8.11579 5.29C8.01764 5.19676 7.90113 5.1228 7.77289 5.07234C7.64466 5.02188 7.50722 4.99591 7.36842 4.99591C7.22962 4.99591 7.09218 5.02188 6.96395 5.07234C6.83571 5.1228 6.7192 5.19676 6.62105 5.29C6.52291 5.38324 6.44505 5.49393 6.39194 5.61575C6.33882 5.73757 6.31148 5.86814 6.31148 6C6.31148 6.13186 6.33882 6.26243 6.39194 6.38425C6.44505 6.50607 6.52291 6.61676 6.62105 6.71L9.0421 9H1.05263C0.773456 9 0.505716 9.10536 0.308309 9.29289C0.110902 9.48043 0 9.73478 0 10ZM13.6842 0H3.15789C2.32037 0 1.51715 0.316071 0.924926 0.87868C0.332706 1.44129 0 2.20435 0 3V6C0 6.26522 0.110902 6.51957 0.308309 6.70711C0.505716 6.89464 0.773456 7 1.05263 7C1.33181 7 1.59955 6.89464 1.79695 6.70711C1.99436 6.51957 2.10526 6.26522 2.10526 6V3C2.10526 2.73478 2.21617 2.48043 2.41357 2.29289C2.61098 2.10536 2.87872 2 3.15789 2H13.6842C13.9634 2 14.2311 2.10536 14.4285 2.29289C14.6259 2.48043 14.7368 2.73478 14.7368 3V17C14.7368 17.2652 14.6259 17.5196 14.4285 17.7071C14.2311 17.8946 13.9634 18 13.6842 18H3.15789C2.87872 18 2.61098 17.8946 2.41357 17.7071C2.21617 17.5196 2.10526 17.2652 2.10526 17V14C2.10526 13.7348 1.99436 13.4804 1.79695 13.2929C1.59955 13.1054 1.33181 13 1.05263 13C0.773456 13 0.505716 13.1054 0.308309 13.2929C0.110902 13.4804 0 13.7348 0 14V17C0 17.7956 0.332706 18.5587 0.924926 19.1213C1.51715 19.6839 2.32037 20 3.15789 20H13.6842C14.5217 20 15.325 19.6839 15.9172 19.1213C16.5094 18.5587 16.8421 17.7956 16.8421 17V3C16.8421 2.20435 16.5094 1.44129 15.9172 0.87868C15.325 0.316071 14.5217 0 13.6842 0Z"/>
</svg>
