<svg xmlns="http://www.w3.org/2000/svg" viewBox="0 0 14 11" fill="none" stroke="currentColor">
    <path d="M13.9444 5.18632C12.6084 2.0845 10.0952 0.159912 7.38358 0.159912C4.67196 0.159912 2.15876 2.0845 0.822792 5.18632C0.786375 5.26976 0.767578 5.35982 0.767578 5.45087C0.767578 5.54191 0.786375 5.63197 0.822792 5.71541C2.15876 8.81724 4.67196 10.7418 7.38358 10.7418C10.0952 10.7418 12.6084 8.81724 13.9444 5.71541C13.9808 5.63197 13.9996 5.54191 13.9996 5.45087C13.9996 5.35982 13.9808 5.26976 13.9444 5.18632ZM7.38358 9.41908C5.28704 9.41908 3.30293 7.90455 2.15876 5.45087C3.30293 2.99719 5.28704 1.48265 7.38358 1.48265C9.48012 1.48265 11.4642 2.99719 12.6084 5.45087C11.4642 7.90455 9.48012 9.41908 7.38358 9.41908ZM7.38358 2.80539C6.86035 2.80539 6.34887 2.96054 5.91383 3.25123C5.47878 3.54192 5.1397 3.95509 4.93947 4.43849C4.73924 4.92188 4.68685 5.4538 4.78893 5.96697C4.89101 6.48015 5.14296 6.95153 5.51294 7.3215C5.88292 7.69148 6.3543 7.94344 6.86747 8.04551C7.38064 8.14759 7.91256 8.0952 8.39596 7.89497C8.87935 7.69474 9.29252 7.35566 9.58321 6.92061C9.8739 6.48557 10.0291 5.97409 10.0291 5.45087C10.0291 4.74924 9.75033 4.07635 9.25421 3.58023C8.75809 3.08411 8.0852 2.80539 7.38358 2.80539ZM7.38358 6.77361C7.12196 6.77361 6.86623 6.69603 6.6487 6.55068C6.43118 6.40534 6.26164 6.19876 6.16152 5.95706C6.06141 5.71536 6.03522 5.4494 6.08625 5.19281C6.13729 4.93623 6.26327 4.70054 6.44826 4.51555C6.63325 4.33056 6.86894 4.20458 7.12552 4.15354C7.38211 4.10251 7.64807 4.1287 7.88977 4.22882C8.13147 4.32893 8.33805 4.49847 8.48339 4.71599C8.62874 4.93352 8.70631 5.18925 8.70631 5.45087C8.70631 5.80168 8.56696 6.13812 8.31889 6.38618C8.07083 6.63425 7.73439 6.77361 7.38358 6.77361Z"
          fill="currentColor"/>
</svg>
