<svg width="15" height="15" viewBox="0 0 15 15" fill="none" xmlns="http://www.w3.org/2000/svg">
<path d="M12.2494 0.857666H2.95C2.4215 0.857666 1.91464 1.06761 1.54093 1.44132C1.16722 1.81503 0.957276 2.32189 0.957276 2.85039V3.62756C0.95718 3.90185 1.01371 4.17321 1.12334 4.42465V4.4645C1.21718 4.67771 1.3501 4.87146 1.51524 5.03575L5.60697 9.10091V13.4783C5.60675 13.5912 5.63529 13.7022 5.68992 13.801C5.74454 13.8998 5.82344 13.9831 5.91917 14.0429C6.02488 14.1084 6.14685 14.1429 6.27122 14.1425C6.3752 14.1419 6.47758 14.1169 6.57012 14.0694L9.22709 12.741C9.33664 12.6858 9.42876 12.6013 9.49324 12.497C9.55772 12.3926 9.59206 12.2725 9.59243 12.1498V9.10091L13.6576 5.03575C13.8227 4.87146 13.9557 4.67771 14.0495 4.4645V4.42465C14.1683 4.17518 14.2339 3.90374 14.2421 3.62756V2.85039C14.2421 2.32189 14.0322 1.81503 13.6585 1.44132C13.2848 1.06761 12.7779 0.857666 12.2494 0.857666ZM8.45657 8.35696C8.39501 8.41903 8.3463 8.49264 8.31325 8.57357C8.28019 8.6545 8.26344 8.74116 8.26394 8.82858V11.738L6.93546 12.4022V8.82858C6.93596 8.74116 6.91921 8.6545 6.88615 8.57357C6.8531 8.49264 6.80439 8.41903 6.74283 8.35696L3.22234 4.84312H11.9771L8.45657 8.35696ZM12.9136 3.51464H2.28576V2.85039C2.28576 2.67423 2.35574 2.50527 2.48031 2.3807C2.60488 2.25613 2.77383 2.18615 2.95 2.18615H12.2494C12.4256 2.18615 12.5945 2.25613 12.7191 2.3807C12.8437 2.50527 12.9136 2.67423 12.9136 2.85039V3.51464Z" fill="#355471"/>
</svg>
