<svg viewBox="0 0 14 11" xmlns="http://www.w3.org/2000/svg">
<path d="M7.20069 5.55664C7.5407 5.26232 7.81341 4.8983 8.00033 4.48929C8.18724 4.08028 8.28398 3.63584 8.28398 3.18614C8.28398 2.34113 7.94829 1.53072 7.35078 0.9332C6.75326 0.335682 5.94285 1.14007e-07 5.09783 1.14007e-07C4.25281 1.14007e-07 3.4424 0.335682 2.84489 0.9332C2.24737 1.53072 1.91169 2.34113 1.91169 3.18614C1.91168 3.63584 2.00842 4.08028 2.19533 4.48929C2.38225 4.8983 2.65496 5.26232 2.99498 5.55664C2.10294 5.96057 1.34612 6.61286 0.815003 7.43553C0.283882 8.25821 0.000937908 9.21644 0 10.1957C0 10.3647 0.0671364 10.5267 0.18664 10.6463C0.306144 10.7658 0.468225 10.8329 0.637229 10.8329C0.806233 10.8329 0.968314 10.7658 1.08782 10.6463C1.20732 10.5267 1.27446 10.3647 1.27446 10.1957C1.27446 9.18164 1.67728 8.20915 2.3943 7.49213C3.11132 6.77511 4.08381 6.37229 5.09783 6.37229C6.11185 6.37229 7.08434 6.77511 7.80136 7.49213C8.51839 8.20915 8.9212 9.18164 8.9212 10.1957C8.9212 10.3647 8.98834 10.5267 9.10785 10.6463C9.22735 10.7658 9.38943 10.8329 9.55843 10.8329C9.72744 10.8329 9.88952 10.7658 10.009 10.6463C10.1285 10.5267 10.1957 10.3647 10.1957 10.1957C10.1947 9.21644 9.91178 8.25821 9.38066 7.43553C8.84954 6.61286 8.09272 5.96057 7.20069 5.55664ZM5.09783 5.09783C4.71974 5.09783 4.35013 4.98571 4.03575 4.77565C3.72138 4.56559 3.47635 4.26703 3.33166 3.91772C3.18697 3.5684 3.14911 3.18402 3.22288 2.81319C3.29664 2.44236 3.47871 2.10173 3.74606 1.83438C4.01342 1.56702 4.35405 1.38495 4.72488 1.31119C5.09571 1.23743 5.48009 1.27529 5.8294 1.41998C6.17872 1.56467 6.47728 1.80969 6.68734 2.12407C6.8974 2.43844 7.00952 2.80805 7.00952 3.18614C7.00952 3.69316 6.80811 4.1794 6.4496 4.53791C6.09109 4.89642 5.60484 5.09783 5.09783 5.09783ZM11.3044 5.30174C11.7122 4.84251 11.9786 4.2752 12.0715 3.66811C12.1644 3.06101 12.0799 2.44 11.8281 1.87983C11.5763 1.31965 11.1679 0.844198 10.6522 0.51069C10.1365 0.177181 9.53537 -0.00016415 8.9212 1.14007e-07C8.7522 1.14007e-07 8.59012 0.0671365 8.47062 0.18664C8.35111 0.306144 8.28398 0.468225 8.28398 0.637229C8.28398 0.806233 8.35111 0.968314 8.47062 1.08782C8.59012 1.20732 8.7522 1.27446 8.9212 1.27446C9.42822 1.27446 9.91446 1.47587 10.273 1.83438C10.6315 2.19289 10.8329 2.67913 10.8329 3.18614C10.832 3.52084 10.7432 3.84944 10.5755 4.13907C10.4078 4.4287 10.1669 4.66922 9.87705 4.83657C9.78257 4.89106 9.70366 4.9689 9.64788 5.06262C9.59209 5.15634 9.56129 5.26281 9.55843 5.37184C9.55577 5.48002 9.58069 5.58709 9.63086 5.68297C9.68103 5.77885 9.75479 5.86037 9.84519 5.91986L10.0937 6.08554L10.1765 6.13014C10.9447 6.49446 11.5927 7.07069 12.0442 7.79096C12.4958 8.51124 12.7322 9.34556 12.7255 10.1957C12.7255 10.3647 12.7926 10.5267 12.9121 10.6463C13.0316 10.7658 13.1937 10.8329 13.3627 10.8329C13.5317 10.8329 13.6938 10.7658 13.8133 10.6463C13.9328 10.5267 13.9999 10.3647 13.9999 10.1957C14.0051 9.21779 13.7602 8.25482 13.2884 7.39827C12.8167 6.54171 12.1337 5.82001 11.3044 5.30174Z" fill="currentColor"/>
</svg>
