<svg viewBox="0 0 28 18" fill="none" xmlns="http://www.w3.org/2000/svg">
    <path d="M1.375 3.72876H26.125C26.4897 3.72876 26.8394 3.58389 27.0973 3.32603C27.3551 3.06817 27.5 2.71843 27.5 2.35376C27.5 1.98909 27.3551 1.63935 27.0973 1.38149C26.8394 1.12363 26.4897 0.97876 26.125 0.97876H1.375C1.01033 0.97876 0.660591 1.12363 0.402728 1.38149C0.144866 1.63935 0 1.98909 0 2.35376C0 2.71843 0.144866 3.06817 0.402728 3.32603C0.660591 3.58389 1.01033 3.72876 1.375 3.72876ZM26.125 14.7288H1.375C1.01033 14.7288 0.660591 14.8736 0.402728 15.1315C0.144866 15.3893 0 15.7391 0 16.1038C0 16.4684 0.144866 16.8182 0.402728 17.076C0.660591 17.3339 1.01033 17.4788 1.375 17.4788H26.125C26.4897 17.4788 26.8394 17.3339 27.0973 17.076C27.3551 16.8182 27.5 16.4684 27.5 16.1038C27.5 15.7391 27.3551 15.3893 27.0973 15.1315C26.8394 14.8736 26.4897 14.7288 26.125 14.7288ZM26.125 7.85376H1.375C1.01033 7.85376 0.660591 7.99863 0.402728 8.25649C0.144866 8.51435 0 8.86409 0 9.22876C0 9.59343 0.144866 9.94317 0.402728 10.201C0.660591 10.4589 1.01033 10.6038 1.375 10.6038H26.125C26.4897 10.6038 26.8394 10.4589 27.0973 10.201C27.3551 9.94317 27.5 9.59343 27.5 9.22876C27.5 8.86409 27.3551 8.51435 27.0973 8.25649C26.8394 7.99863 26.4897 7.85376 26.125 7.85376Z"
          fill="currentColor"/>
</svg>
