<svg viewBox="0 0 40 40" fill="none" xmlns="http://www.w3.org/2000/svg">
<path d="M37.7777 12.0335L24.4445 1.52604C23.2222 0.543304 21.6399 0 20.0001 0C18.3602 0 16.7779 0.543304 15.5557 1.52604L2.22242 12.0335C1.51657 12.6009 0.953315 13.2971 0.570144 14.0755C0.186973 14.854 -0.00731675 15.6968 0.000210652 16.5481V34.0072C0.000210652 35.5966 0.702585 37.1209 1.95282 38.2447C3.20305 39.3686 4.89873 40 6.66683 40H33.3333C35.1014 40 36.7971 39.3686 38.0473 38.2447C39.2976 37.1209 39.9999 35.5966 39.9999 34.0072V16.5281C40.0043 15.6802 39.8085 14.8412 39.4254 14.0664C39.0423 13.2916 38.4807 12.5987 37.7777 12.0335ZM24.4445 36.0048H15.5557V26.0167C15.5557 25.4869 15.7898 24.9788 16.2065 24.6042C16.6233 24.2296 17.1885 24.0191 17.7779 24.0191H22.2223C22.8116 24.0191 23.3769 24.2296 23.7936 24.6042C24.2104 24.9788 24.4445 25.4869 24.4445 26.0167V36.0048Z" fill="currentColor"/>
</svg>
