<svg viewBox="0 0 19 22" fill="currentColor" xmlns="http://www.w3.org/2000/svg">
    <path d="M17.5931 7.01065L11.3838 1.7486C10.8146 1.25646 10.0777 0.984375 9.31406 0.984375C8.55039 0.984375 7.8135 1.25646 7.24429 1.7486L1.03498 7.01065C0.706271 7.29483 0.44396 7.64345 0.265517 8.03329C0.0870737 8.42313 -0.00340742 8.84524 9.8101e-05 9.27153V18.0149C9.8101e-05 18.8109 0.327195 19.5742 0.909431 20.1371C1.49167 20.6999 2.28135 21.0161 3.10475 21.0161H15.5234C16.3468 21.0161 17.1365 20.6999 17.7187 20.1371C18.3009 19.5742 18.628 18.8109 18.628 18.0149V9.26152C18.6301 8.83692 18.5389 8.41673 18.3605 8.02872C18.1821 7.64071 17.9205 7.29371 17.5931 7.01065ZM11.3838 19.0153H7.24429V14.0134C7.24429 13.748 7.35333 13.4936 7.5474 13.306C7.74148 13.1184 8.00471 13.013 8.27918 13.013H10.3489C10.6234 13.013 10.8866 13.1184 11.0807 13.306C11.2748 13.4936 11.3838 13.748 11.3838 14.0134V19.0153ZM16.5583 18.0149C16.5583 18.2802 16.4492 18.5347 16.2551 18.7223C16.0611 18.9099 15.7978 19.0153 15.5234 19.0153H13.4536V14.0134C13.4536 13.2174 13.1265 12.4541 12.5443 11.8912C11.962 11.3284 11.1724 11.0122 10.3489 11.0122H8.27918C7.45577 11.0122 6.66609 11.3284 6.08386 11.8912C5.50162 12.4541 5.17452 13.2174 5.17452 14.0134V19.0153H3.10475C2.83028 19.0153 2.56706 18.9099 2.37298 18.7223C2.1789 18.5347 2.06987 18.2802 2.06987 18.0149V9.26152C2.07005 9.11948 2.10153 8.97911 2.1622 8.84974C2.22287 8.72037 2.31134 8.60498 2.42173 8.51123L8.63104 3.25919C8.81989 3.09881 9.06268 3.01036 9.31406 3.01036C9.56544 3.01036 9.80823 3.09881 9.99709 3.25919L16.2064 8.51123C16.3168 8.60498 16.4053 8.72037 16.4659 8.84974C16.5266 8.97911 16.5581 9.11948 16.5583 9.26152V18.0149Z"/>
</svg>
