<svg viewBox="0 0 14 15" xmlns="http://www.w3.org/2000/svg">
<path d="M13.3636 9.05216H12.0909V7.14307C12.0909 6.97429 12.0239 6.81243 11.9045 6.69309C11.7852 6.57375 11.6233 6.5067 11.4545 6.5067H7.63636V5.23398H8.90909C9.07786 5.23398 9.23973 5.16693 9.35907 5.04759C9.47841 4.92825 9.54545 4.76639 9.54545 4.59761V0.77943C9.54545 0.610656 9.47841 0.448794 9.35907 0.329453C9.23973 0.210112 9.07786 0.143066 8.90909 0.143066H5.09091C4.92213 0.143066 4.76027 0.210112 4.64093 0.329453C4.52159 0.448794 4.45455 0.610656 4.45455 0.77943V4.59761C4.45455 4.76639 4.52159 4.92825 4.64093 5.04759C4.76027 5.16693 4.92213 5.23398 5.09091 5.23398H6.36364V6.5067H2.54545C2.37668 6.5067 2.21482 6.57375 2.09548 6.69309C1.97614 6.81243 1.90909 6.97429 1.90909 7.14307V9.05216H0.636364C0.467589 9.05216 0.305728 9.1192 0.186387 9.23854C0.0670452 9.35789 0 9.51975 0 9.68852V13.5067C0 13.6755 0.0670452 13.8373 0.186387 13.9567C0.305728 14.076 0.467589 14.1431 0.636364 14.1431H4.45455C4.62332 14.1431 4.78518 14.076 4.90452 13.9567C5.02386 13.8373 5.09091 13.6755 5.09091 13.5067V9.68852C5.09091 9.51975 5.02386 9.35789 4.90452 9.23854C4.78518 9.1192 4.62332 9.05216 4.45455 9.05216H3.18182V7.77943H10.8182V9.05216H9.54545C9.37668 9.05216 9.21482 9.1192 9.09548 9.23854C8.97614 9.35789 8.90909 9.51975 8.90909 9.68852V13.5067C8.90909 13.6755 8.97614 13.8373 9.09548 13.9567C9.21482 14.076 9.37668 14.1431 9.54545 14.1431H13.3636C13.5324 14.1431 13.6943 14.076 13.8136 13.9567C13.933 13.8373 14 13.6755 14 13.5067V9.68852C14 9.51975 13.933 9.35789 13.8136 9.23854C13.6943 9.1192 13.5324 9.05216 13.3636 9.05216ZM3.81818 10.3249V12.8703H1.27273V10.3249H3.81818ZM5.72727 3.96125V1.41579H8.27273V3.96125H5.72727ZM12.7273 12.8703H10.1818V10.3249H12.7273V12.8703Z" fill="currentColor"/>
</svg>
