<svg xmlns="http://www.w3.org/2000/svg" viewBox="0 0 14 15" fill="none">
    <path d="M12.7311 2.3663L13.2067 1.89735C13.3329 1.7712 13.4037 1.6001 13.4037 1.4217C13.4037 1.24329 13.3329 1.0722 13.2067 0.946045C13.0806 0.819894 12.9095 0.749023 12.7311 0.749023C12.5526 0.749023 12.3816 0.819894 12.2554 0.946045L11.3175 1.89065L9.42159 3.78655L5.19432 8.00712C4.50164 7.55012 3.66398 7.36651 2.84365 7.49187C2.02331 7.61723 1.27872 8.04264 0.754142 8.68566C0.229564 9.32868 -0.0376483 10.1435 0.0042816 10.9723C0.0462115 11.8011 0.394299 12.5849 0.981095 13.1717C1.56789 13.7584 2.35162 14.1065 3.18041 14.1485C4.00921 14.1904 4.82406 13.9232 5.46709 13.3986C6.11011 12.874 6.53552 12.1294 6.66088 11.3091C6.78624 10.4888 6.60263 9.65111 6.14563 8.95842L9.89054 5.20681L11.3108 6.63376C11.3733 6.69579 11.4473 6.7449 11.5288 6.7783C11.6102 6.8117 11.6974 6.82873 11.7855 6.82841C11.8735 6.8281 11.9606 6.81046 12.0418 6.77648C12.123 6.74251 12.1967 6.69288 12.2588 6.63041C12.3208 6.56795 12.3699 6.49388 12.4033 6.41244C12.4367 6.33099 12.4537 6.24377 12.4534 6.15574C12.4531 6.06772 12.4354 5.98061 12.4015 5.89941C12.3675 5.8182 12.3179 5.74448 12.2554 5.68246L10.8351 4.26221L11.7864 3.3176L12.2554 3.78655C12.3174 3.84902 12.3911 3.89865 12.4724 3.93263C12.5536 3.9666 12.6407 3.98425 12.7287 3.98456C12.8167 3.98487 12.9039 3.96784 12.9854 3.93444C13.0668 3.90104 13.1409 3.85193 13.2034 3.7899C13.2658 3.72788 13.3155 3.65416 13.3494 3.57295C13.3834 3.49175 13.401 3.40465 13.4014 3.31662C13.4017 3.2286 13.3846 3.14137 13.3512 3.05993C13.3178 2.97848 13.2687 2.90441 13.2067 2.84195L12.7311 2.3663ZM3.35201 12.8105C2.95451 12.8105 2.56594 12.6927 2.23543 12.4718C1.90492 12.251 1.64732 11.9371 1.4952 11.5699C1.34309 11.2026 1.30329 10.7985 1.38084 10.4086C1.45838 10.0188 1.6498 9.66067 1.93087 9.3796C2.21195 9.09852 2.57006 8.90711 2.95992 8.82956C3.34978 8.75201 3.75388 8.79181 4.12113 8.94393C4.48837 9.09604 4.80226 9.35365 5.02309 9.68415C5.24393 10.0147 5.36181 10.4032 5.36181 10.8007C5.36181 11.3338 5.15006 11.845 4.77315 12.2219C4.39624 12.5988 3.88504 12.8105 3.35201 12.8105Z"
          fill="currentColor"/>
</svg>
