<svg viewBox="0 0 18 20" fill="none" xmlns="http://www.w3.org/2000/svg">
    <path d="M16.8407 9.9972C16.4051 9.33053 15.8126 8.78095 15.1151 8.3967C14.4176 8.01246 13.6365 7.8053 12.8402 7.7934C12.8284 7.44869 12.7848 7.10581 12.7098 6.76913C12.6486 6.51117 12.4874 6.2881 12.2616 6.14901C12.0359 6.00991 11.7642 5.96618 11.5062 6.02744C11.2483 6.08869 11.0252 6.24991 10.8861 6.47564C10.747 6.70136 10.7033 6.97309 10.7645 7.23105C10.8092 7.42877 10.8369 7.62994 10.8472 7.83237C9.73172 7.97046 8.63768 8.24654 7.59022 8.65426C7.61274 7.45041 7.667 6.24698 7.78694 5.04697L7.82521 4.66476C8.99689 4.5051 10.1593 4.2834 11.3075 4.00058L11.4276 3.97079C11.5556 3.93982 11.6763 3.88384 11.7827 3.80607C11.8891 3.7283 11.979 3.63027 12.0474 3.51762C12.1158 3.40497 12.1612 3.27992 12.1811 3.14965C12.201 3.01939 12.1949 2.88648 12.1632 2.75857C12.1316 2.63066 12.075 2.51026 11.9966 2.4043C11.9183 2.29835 11.8198 2.20892 11.7068 2.14115C11.5937 2.07339 11.4684 2.02864 11.3381 2.00946C11.2077 1.99028 11.0748 1.99705 10.9471 2.02939L10.825 2.05966C9.90339 2.29013 8.96937 2.46414 8.03108 2.61026L8.18245 1.0997C8.19553 0.969022 8.18275 0.837044 8.14482 0.711305C8.1069 0.585565 8.04458 0.468527 7.96142 0.366872C7.87827 0.265217 7.7759 0.180936 7.66018 0.118841C7.54445 0.0567465 7.41762 0.018054 7.28694 0.00497301C7.15626 -0.00810796 7.02428 0.00467888 6.89854 0.0426031C6.7728 0.0805273 6.65577 0.142846 6.55411 0.226002C6.34881 0.393943 6.21863 0.636561 6.19221 0.900483L5.99601 2.85975C5.06213 2.94349 4.12566 3.00013 3.18737 3.00013C2.92216 3.00013 2.6678 3.10549 2.48027 3.29303C2.29273 3.48056 2.18737 3.73492 2.18737 4.00013C2.18737 4.26535 2.29273 4.5197 2.48027 4.70724C2.6678 4.89478 2.92216 5.00013 3.18737 5.00013C4.05791 5.00013 4.92687 4.95374 5.79418 4.88593C5.64754 6.44754 5.57973 8.01555 5.59101 9.58399C5.4568 9.65723 5.32136 9.72608 5.18837 9.80335C4.50816 10.1931 3.85675 10.631 3.23915 11.1139L3.21669 11.132C2.21359 11.9058 1.32233 12.8146 0.568252 13.8327C0.218934 14.3166 0.0216931 14.8937 0.00168842 15.4902C-0.0183163 16.0867 0.139822 16.6757 0.455932 17.182C0.772042 17.6882 1.23179 18.0889 1.77655 18.3328C2.3213 18.5767 2.92636 18.6528 3.51454 18.5514C4.5073 18.3629 5.46467 18.021 6.35229 17.538C6.47574 17.7321 6.66255 17.8774 6.88099 17.9493C7.09943 18.0212 7.33603 18.0153 7.5506 17.9326C7.76517 17.8498 7.94448 17.6953 8.05807 17.4954C8.17165 17.2954 8.21251 17.0623 8.1737 16.8356C8.14947 16.6904 8.13836 16.5437 8.11559 16.3983C8.57753 16.0412 9.01641 15.6553 9.42959 15.2428C10.2466 14.4291 10.9532 13.5116 11.5313 12.5138C11.5542 12.4743 11.5734 12.4347 11.5957 12.3952C11.7137 12.1846 11.8252 11.9732 11.9275 11.7602C11.9813 11.6491 12.0298 11.5385 12.0791 11.4274C12.139 11.2912 12.1963 11.1552 12.2495 11.0186C12.306 10.875 12.3593 10.732 12.408 10.5889C12.4403 10.4931 12.4685 10.3977 12.4975 10.302C12.5488 10.1331 12.5992 9.96486 12.6395 9.79769L12.6445 9.77993C13.1228 9.77302 13.5958 9.88003 14.0246 10.0921C14.4534 10.3042 14.8255 10.6153 15.1103 10.9997C16.1288 12.7667 14.1474 15.9767 10.6933 18.1544C10.5818 18.2243 10.4852 18.3154 10.409 18.4226C10.3328 18.5299 10.2785 18.6511 10.2492 18.7793C10.2199 18.9076 10.2163 19.0403 10.2384 19.17C10.2605 19.2997 10.308 19.4237 10.3782 19.535C10.4484 19.6463 10.5398 19.7426 10.6472 19.8185C10.7547 19.8943 10.8761 19.9483 11.0044 19.9771C11.1328 20.006 11.2655 20.0093 11.3951 19.9868C11.5247 19.9642 11.6486 19.9163 11.7597 19.8458C16.2587 17.0099 18.4432 12.7775 16.8407 9.9972ZM3.16491 16.5827C2.96936 16.6143 2.76882 16.5874 2.5885 16.5054C2.40817 16.4234 2.25612 16.2899 2.15144 16.1218C2.04677 15.9536 1.99414 15.7582 2.00019 15.5602C2.00624 15.3622 2.07068 15.1704 2.18542 15.0089C2.83877 14.1331 3.60968 13.3515 4.47642 12.6862L4.50279 12.6647C4.85667 12.3878 5.24479 12.1257 5.64679 11.8717C5.70789 13.0671 5.81964 14.2585 5.97272 15.4466C5.11562 15.9967 4.16338 16.3819 3.16491 16.5827ZM10.4947 9.99965C10.4028 10.2654 10.2973 10.5262 10.1785 10.781C10.1229 10.8999 10.0605 11.0188 9.99834 11.138C9.90222 11.3236 9.79868 11.5084 9.68774 11.6923C9.60308 11.8318 9.51586 11.9712 9.4226 12.1097C9.01023 12.7268 8.53899 13.3025 8.01549 13.8287C7.94567 13.8985 7.87206 13.962 7.80089 14.0297C7.69213 12.9647 7.62172 11.8971 7.58965 10.8269C8.52745 10.3961 9.51495 10.0829 10.5297 9.89457C10.518 9.92963 10.507 9.9645 10.4947 9.99965Z"
          fill="#355471"/>
</svg>
