<svg viewBox="0 0 12 17" xmlns="http://www.w3.org/2000/svg">
<path d="M9.81969 1.36628C9.12975 0.798837 8.32184 0.392578 7.4549 0.17714C6.58795 -0.0382978 5.68385 -0.0574796 4.80855 0.120994C3.64307 0.356414 2.57378 0.932734 1.73636 1.77683C0.898944 2.62093 0.331136 3.69476 0.10498 4.86207C-0.0601724 5.73731 -0.0301616 6.63821 0.192872 7.50052C0.415905 8.36283 0.826466 9.16531 1.39527 9.85071C1.92316 10.4464 2.22574 11.2082 2.25047 12.0037V14.2542C2.25047 14.8511 2.48758 15.4235 2.90963 15.8456C3.33168 16.2676 3.90411 16.5047 4.50098 16.5047H7.50166C8.09854 16.5047 8.67096 16.2676 9.09302 15.8456C9.51507 15.4235 9.75218 14.8511 9.75218 14.2542V12.1462C9.77735 11.2679 10.1 10.4242 10.6674 9.75319C11.6615 8.52349 12.13 6.95116 11.9713 5.37791C11.8126 3.80466 11.0394 2.35762 9.81969 1.35127V1.36628ZM8.25183 14.2542C8.25183 14.4532 8.1728 14.644 8.03211 14.7847C7.89143 14.9253 7.70062 15.0044 7.50166 15.0044H4.50098C4.30202 15.0044 4.11121 14.9253 3.97053 14.7847C3.82985 14.644 3.75081 14.4532 3.75081 14.2542V13.504H8.25183V14.2542ZM9.50462 8.82298C8.75033 9.71763 8.31025 10.835 8.25183 12.0037H6.75149V9.75319C6.75149 9.55423 6.67246 9.36342 6.53177 9.22274C6.39109 9.08205 6.20028 9.00302 6.00132 9.00302C5.80236 9.00302 5.61156 9.08205 5.47087 9.22274C5.33019 9.36342 5.25115 9.55423 5.25115 9.75319V12.0037H3.75081C3.73102 10.8545 3.30592 9.74926 2.55054 8.88299C2.05215 8.28585 1.71702 7.56976 1.5778 6.80453C1.43858 6.0393 1.50004 5.25105 1.75617 4.51664C2.01231 3.78224 2.45438 3.12674 3.03929 2.61406C3.6242 2.10138 4.33198 1.74901 5.09362 1.59133C5.74818 1.45656 6.42454 1.46923 7.07359 1.62844C7.72265 1.78765 8.3281 2.08939 8.84601 2.51175C9.36391 2.93412 9.78126 3.46651 10.0678 4.07028C10.3543 4.67405 10.5027 5.33404 10.5023 6.00233C10.5079 7.02996 10.1551 8.02739 9.50462 8.82298Z" fill="currentColor"/>
</svg>
