<svg viewBox="0 0 14 15" xmlns="http://www.w3.org/2000/svg">
<path d="M13.3636 1.30419e-05H8.90909C8.54476 -0.00147957 8.1915 0.125191 7.91114 0.35786C7.63077 0.590529 7.44115 0.914378 7.37545 1.27274L6.79 4.48638C6.74954 4.71027 6.75877 4.94033 6.81706 5.16026C6.87534 5.38019 6.98124 5.58463 7.12727 5.7591C7.27411 5.93367 7.45718 6.07418 7.66377 6.17088C7.87037 6.26758 8.09553 6.31816 8.32364 6.3191H10.1818L10.0227 6.7391C9.90528 7.05052 9.86448 7.38563 9.90378 7.71613C9.94308 8.04664 10.0613 8.36283 10.2485 8.63803C10.4357 8.91322 10.6864 9.13933 10.9794 9.29727C11.2724 9.4552 11.599 9.54033 11.9318 9.54547C12.0553 9.54644 12.1764 9.51146 12.2804 9.4448C12.3843 9.37813 12.4666 9.28265 12.5173 9.17001L13.9427 5.95001C13.9752 5.87986 13.9946 5.80439 14 5.72729V0.636377C14 0.467603 13.933 0.305741 13.8136 0.1864C13.6943 0.0670583 13.5324 1.30419e-05 13.3636 1.30419e-05ZM12.7273 5.55547L11.5627 8.18365C11.4491 8.12181 11.3511 8.03473 11.2764 7.9291C11.2015 7.82309 11.1541 7.70013 11.1386 7.57127C11.123 7.44241 11.1398 7.3117 11.1873 7.19092L11.4291 6.55456C11.4927 6.38952 11.5144 6.21127 11.4922 6.03579C11.47 5.86031 11.4046 5.69309 11.3018 5.5491C11.2006 5.40567 11.0661 5.28901 10.9098 5.20919C10.7535 5.12936 10.5801 5.08877 10.4045 5.09092H8.31091C8.26863 5.09104 8.22683 5.082 8.18839 5.06442C8.14994 5.04685 8.11575 5.02115 8.08818 4.9891C8.03878 4.92125 8.0182 4.83662 8.03091 4.75365L8.61636 1.57183C8.61362 1.53239 8.61927 1.49282 8.63292 1.45572C8.64657 1.41861 8.66793 1.38482 8.69558 1.35657C8.72324 1.32832 8.75656 1.30624 8.79336 1.29179C8.83016 1.27734 8.8696 1.27085 8.90909 1.27274H12.7273V5.55547ZM5.68909 7.66819H3.85L4.00909 7.24819C4.12485 6.93496 4.16327 6.5984 4.1211 6.26713C4.07893 5.93586 3.95742 5.61967 3.76688 5.34542C3.57634 5.07117 3.32241 4.84697 3.02667 4.69188C2.73093 4.53678 2.40212 4.45537 2.06818 4.45456C1.94469 4.45358 1.82358 4.48856 1.71962 4.55523C1.61567 4.6219 1.53336 4.71737 1.48273 4.83001L0.0572727 8.05001C0.0208061 8.12999 0.00130538 8.21666 0 8.30456V13.3955C0 13.5642 0.0670452 13.7261 0.186387 13.8454C0.305728 13.9648 0.467589 14.0318 0.636364 14.0318H5.09091C5.45524 14.0333 5.8085 13.9067 6.08886 13.674C6.36923 13.4413 6.55885 13.1175 6.62455 12.7591L7.21 9.57728C7.25046 9.35339 7.24123 9.12333 7.18294 8.9034C7.12466 8.68347 7.01876 8.47903 6.87273 8.30456C6.73474 8.11759 6.55702 7.96354 6.35235 7.8535C6.14768 7.74347 5.92116 7.68018 5.68909 7.66819ZM5.38364 12.4918C5.37271 12.5604 5.33671 12.6224 5.28262 12.6659C5.22853 12.7094 5.16021 12.7313 5.09091 12.7273H1.27273V8.44456L2.43727 5.81638C2.55093 5.87822 2.64889 5.9653 2.72364 6.07092C2.79853 6.17693 2.84588 6.2999 2.86143 6.42876C2.87698 6.55762 2.86024 6.68832 2.81273 6.8091L2.57091 7.44547C2.50729 7.61051 2.48562 7.78876 2.50783 7.96423C2.53004 8.13971 2.59545 8.30694 2.69818 8.45092C2.79793 8.5967 2.93186 8.71584 3.08827 8.79793C3.24468 8.88002 3.41881 8.92256 3.59545 8.92183H5.68909C5.73137 8.92171 5.77317 8.93075 5.81161 8.94833C5.85006 8.96591 5.88425 8.9916 5.91182 9.02365C5.96122 9.09151 5.9818 9.17614 5.96909 9.2591L5.38364 12.4918Z" fill="currentColor"/>
</svg>
