<svg viewBox="0 0 12 13" xmlns="http://www.w3.org/2000/svg">
<path d="M4.85186 9.43497L3.79534 10.4616C3.5183 10.7387 3.14256 10.8943 2.75076 10.8943C2.35897 10.8943 1.98323 10.7387 1.70619 10.4616C1.42915 10.1846 1.27351 9.80885 1.27351 9.41706C1.27351 9.02527 1.42915 8.64952 1.70619 8.37248L4.41612 5.65658C4.68211 5.38973 5.04049 5.23533 5.41713 5.22533C5.79377 5.21533 6.15984 5.3505 6.43962 5.60286L6.51124 5.66255C6.62443 5.77336 6.77701 5.83468 6.93541 5.833C7.0938 5.83132 7.24504 5.76679 7.35586 5.6536C7.46667 5.5404 7.52799 5.38783 7.52631 5.22943C7.52463 5.07104 7.4601 4.9198 7.34691 4.80898C7.31322 4.76542 7.27736 4.72358 7.23946 4.68363C6.72992 4.24032 6.07093 4.00725 5.39597 4.03163C4.72102 4.05601 4.08056 4.33603 3.60433 4.81495L0.858586 7.53085C0.392021 8.03869 0.13969 8.70714 0.154286 9.39662C0.168883 10.0861 0.449279 10.7433 0.936918 11.2309C1.42456 11.7185 2.08173 11.9989 2.77121 12.0135C3.46068 12.0281 4.12913 11.7758 4.63697 11.3092L5.66961 10.3005C5.77157 10.1892 5.82762 10.0435 5.82648 9.89263C5.82534 9.74174 5.7671 9.59688 5.66347 9.4872C5.55984 9.37752 5.41852 9.31116 5.26794 9.30147C5.11736 9.29178 4.96869 9.33947 4.85186 9.43497ZM11.2327 0.935089C10.7306 0.436083 10.0515 0.156006 9.34354 0.156006C8.63563 0.156006 7.95647 0.436083 7.45435 0.935089L6.42171 1.94385C6.31975 2.05509 6.2637 2.20081 6.26484 2.35169C6.26598 2.50258 6.32422 2.64744 6.42785 2.75712C6.53148 2.8668 6.6728 2.93317 6.82338 2.94286C6.97396 2.95255 7.12263 2.90485 7.23946 2.80936L8.2721 1.78269C8.54914 1.50565 8.92489 1.35001 9.31668 1.35001C9.70847 1.35001 10.0842 1.50565 10.3613 1.78269C10.6383 2.05973 10.7939 2.43547 10.7939 2.82727C10.7939 3.21906 10.6383 3.5948 10.3613 3.87184L7.65133 6.58775C7.38534 6.8546 7.02695 7.00899 6.65031 7.01899C6.27367 7.02899 5.9076 6.89383 5.62783 6.64147L5.5562 6.58178C5.44301 6.47096 5.29044 6.40965 5.13204 6.41133C4.97364 6.41301 4.8224 6.47754 4.71159 6.59073C4.60077 6.70392 4.53946 6.8565 4.54114 7.01489C4.54281 7.17329 4.60735 7.32453 4.72054 7.43535C4.7639 7.47969 4.80973 7.52154 4.85783 7.5607C5.36798 8.00267 6.02669 8.23487 6.70124 8.2105C7.37578 8.18613 8.01602 7.90701 8.49296 7.42938L11.2089 4.71348C11.711 4.21451 11.9954 3.53712 11.9999 2.82921C12.0044 2.12129 11.7286 1.44036 11.2327 0.935089Z" fill="currentColor"/>
</svg>
