<svg viewBox="0 0 14 14" xmlns="http://www.w3.org/2000/svg">
<path d="M13.9881 4.07224C13.9914 4.02801 13.9914 3.98359 13.9881 3.93936L12.5893 0.44234C12.5346 0.304107 12.4374 0.186874 12.3116 0.107645C12.1859 0.0284158 12.0381 -0.00868793 11.8899 0.00171591H2.09821C1.95813 0.00158031 1.82124 0.0435086 1.70527 0.12207C1.5893 0.200631 1.49959 0.312205 1.44776 0.44234L0.0489582 3.93936C0.0455868 3.98359 0.0455868 4.02801 0.0489582 4.07224C0.0257176 4.11118 0.00916887 4.15373 0 4.19813C0.00778477 4.68159 0.140738 5.15478 0.385892 5.57154C0.631046 5.9883 0.98003 6.33441 1.39881 6.57611V13.2904C1.39881 13.4759 1.47249 13.6538 1.60366 13.7849C1.73482 13.9161 1.91272 13.9898 2.09821 13.9898H11.8899C12.0753 13.9898 12.2532 13.9161 12.3844 13.7849C12.5156 13.6538 12.5893 13.4759 12.5893 13.2904V6.60408C13.0121 6.35997 13.3637 6.00946 13.6091 5.58739C13.8545 5.16531 13.9851 4.68636 13.9881 4.19813C13.9946 4.15643 13.9946 4.11395 13.9881 4.07224ZM7.69343 12.591H6.29463V9.79336H7.69343V12.591ZM11.1904 12.591H9.09224V9.09396C9.09224 8.90846 9.01855 8.73057 8.88739 8.5994C8.75623 8.46824 8.57833 8.39455 8.39284 8.39455H5.59522C5.40973 8.39455 5.23184 8.46824 5.10067 8.5994C4.96951 8.73057 4.89582 8.90846 4.89582 9.09396V12.591H2.79761V6.99575C3.1959 6.9935 3.58912 6.90623 3.95096 6.73978C4.31281 6.57333 4.63495 6.33154 4.89582 6.03057C5.15835 6.32826 5.48123 6.56667 5.84299 6.72997C6.20475 6.89328 6.59712 6.97774 6.99403 6.97774C7.39094 6.97774 7.78331 6.89328 8.14507 6.72997C8.50684 6.56667 8.82971 6.32826 9.09224 6.03057C9.35312 6.33154 9.67525 6.57333 10.0371 6.73978C10.3989 6.90623 10.7922 6.9935 11.1904 6.99575V12.591ZM11.1904 5.59694C10.8195 5.59694 10.4637 5.44957 10.2013 5.18724C9.93902 4.92491 9.79164 4.56912 9.79164 4.19813C9.79164 4.01264 9.71796 3.83475 9.58679 3.70358C9.45563 3.57242 9.27773 3.49873 9.09224 3.49873C8.90675 3.49873 8.72885 3.57242 8.59769 3.70358C8.46652 3.83475 8.39284 4.01264 8.39284 4.19813C8.39284 4.56912 8.24546 4.92491 7.98314 5.18724C7.72081 5.44957 7.36502 5.59694 6.99403 5.59694C6.62304 5.59694 6.26725 5.44957 6.00493 5.18724C5.7426 4.92491 5.59522 4.56912 5.59522 4.19813C5.59522 4.01264 5.52154 3.83475 5.39037 3.70358C5.25921 3.57242 5.08132 3.49873 4.89582 3.49873C4.71033 3.49873 4.53243 3.57242 4.40127 3.70358C4.27011 3.83475 4.19642 4.01264 4.19642 4.19813C4.20331 4.38183 4.17395 4.56508 4.11001 4.73743C4.04608 4.90977 3.94883 5.06784 3.82381 5.2026C3.69879 5.33737 3.54845 5.44618 3.38137 5.52284C3.2143 5.59951 3.03376 5.64251 2.85007 5.6494C2.47908 5.66331 2.11776 5.52928 1.8456 5.27679C1.71084 5.15177 1.60202 5.00143 1.52536 4.83435C1.4487 4.66728 1.40569 4.48674 1.39881 4.30304L2.5738 1.40052H11.4143L12.5893 4.30304C12.5627 4.65556 12.4037 4.98496 12.1442 5.225C11.8847 5.46505 11.544 5.59794 11.1904 5.59694Z" fill="currentColor"/>
</svg>
