<svg viewBox="0 0 31 40" fill="none" xmlns="http://www.w3.org/2000/svg">
<path d="M15.6666 25.4545C17.6312 25.4545 19.5153 24.6883 20.9045 23.3244C22.2936 21.9605 23.074 20.1107 23.074 18.1818V7.27273C23.074 5.34388 22.2936 3.49403 20.9045 2.13013C19.5153 0.766232 17.6312 0 15.6666 0C13.7021 0 11.818 0.766232 10.4288 2.13013C9.03964 3.49403 8.25921 5.34388 8.25921 7.27273V18.1818C8.25921 20.1107 9.03964 21.9605 10.4288 23.3244C11.818 24.6883 13.7021 25.4545 15.6666 25.4545ZM30.4814 18.1818C30.4814 17.6996 30.2863 17.2371 29.939 16.8962C29.5918 16.5552 29.1207 16.3636 28.6296 16.3636C28.1384 16.3636 27.6674 16.5552 27.3201 16.8962C26.9728 17.2371 26.7777 17.6996 26.7777 18.1818C26.7777 21.0751 25.6071 23.8499 23.5234 25.8957C21.4396 27.9416 18.6135 29.0909 15.6666 29.0909C12.7198 29.0909 9.89362 27.9416 7.80988 25.8957C5.72614 23.8499 4.55551 21.0751 4.55551 18.1818C4.55551 17.6996 4.3604 17.2371 4.01312 16.8962C3.66583 16.5552 3.1948 16.3636 2.70366 16.3636C2.21252 16.3636 1.74149 16.5552 1.3942 16.8962C1.04691 17.2371 0.851807 17.6996 0.851807 18.1818C0.855077 21.7224 2.17351 25.1402 4.55995 27.7945C6.94639 30.4488 10.237 32.1574 13.8148 32.6V36.3636H10.1111C9.61992 36.3636 9.1489 36.5552 8.80161 36.8962C8.45432 37.2371 8.25921 37.6996 8.25921 38.1818C8.25921 38.664 8.45432 39.1265 8.80161 39.4675C9.1489 39.8084 9.61992 40 10.1111 40H21.2222C21.7133 40 22.1843 39.8084 22.5316 39.4675C22.8789 39.1265 23.074 38.664 23.074 38.1818C23.074 37.6996 22.8789 37.2371 22.5316 36.8962C22.1843 36.5552 21.7133 36.3636 21.2222 36.3636H17.5185V32.6C21.0963 32.1574 24.3869 30.4488 26.7733 27.7945C29.1597 25.1402 30.4782 21.7224 30.4814 18.1818Z" fill="currentColor"/>
</svg>
