<svg viewBox="0 0 15 20" fill="currentColor" xmlns="http://www.w3.org/2000/svg">
    <path d="M7.33333 12.7273C8.30579 12.7273 9.23842 12.3442 9.92606 11.6622C10.6137 10.9803 11 10.0553 11 9.09091V3.63636C11 2.67194 10.6137 1.74702 9.92606 1.06507C9.23842 0.383116 8.30579 0 7.33333 0C6.36087 0 5.42824 0.383116 4.74061 1.06507C4.05297 1.74702 3.66667 2.67194 3.66667 3.63636V9.09091C3.66667 10.0553 4.05297 10.9803 4.74061 11.6622C5.42824 12.3442 6.36087 12.7273 7.33333 12.7273ZM5.5 3.63636C5.5 3.15415 5.69315 2.69169 6.03697 2.35071C6.38079 2.00974 6.8471 1.81818 7.33333 1.81818C7.81956 1.81818 8.28588 2.00974 8.62969 2.35071C8.97351 2.69169 9.16667 3.15415 9.16667 3.63636V9.09091C9.16667 9.57312 8.97351 10.0356 8.62969 10.3766C8.28588 10.7175 7.81956 10.9091 7.33333 10.9091C6.8471 10.9091 6.38079 10.7175 6.03697 10.3766C5.69315 10.0356 5.5 9.57312 5.5 9.09091V3.63636ZM14.6667 9.09091C14.6667 8.8498 14.5701 8.61857 14.3982 8.44808C14.2263 8.2776 13.9931 8.18182 13.75 8.18182C13.5069 8.18182 13.2737 8.2776 13.1018 8.44808C12.9299 8.61857 12.8333 8.8498 12.8333 9.09091C12.8333 10.5375 12.2539 11.9249 11.2224 12.9479C10.191 13.9708 8.79202 14.5455 7.33333 14.5455C5.87464 14.5455 4.4757 13.9708 3.44425 12.9479C2.4128 11.9249 1.83333 10.5375 1.83333 9.09091C1.83333 8.8498 1.73676 8.61857 1.56485 8.44808C1.39294 8.2776 1.15978 8.18182 0.916667 8.18182C0.673551 8.18182 0.440394 8.2776 0.268486 8.44808C0.0965773 8.61857 0 8.8498 0 9.09091C0.00161864 10.8612 0.654245 12.5701 1.83553 13.8972C3.01682 15.2244 4.64565 16.0787 6.41667 16.3V18.1818H4.58333C4.34022 18.1818 4.10706 18.2776 3.93515 18.4481C3.76324 18.6186 3.66667 18.8498 3.66667 19.0909C3.66667 19.332 3.76324 19.5632 3.93515 19.7337C4.10706 19.9042 4.34022 20 4.58333 20H10.0833C10.3264 20 10.5596 19.9042 10.7315 19.7337C10.9034 19.5632 11 19.332 11 19.0909C11 18.8498 10.9034 18.6186 10.7315 18.4481C10.5596 18.2776 10.3264 18.1818 10.0833 18.1818H8.25V16.3C10.021 16.0787 11.6498 15.2244 12.8311 13.8972C14.0124 12.5701 14.665 10.8612 14.6667 9.09091Z"/>
</svg>
