<svg viewBox="0 0 20 18" fill="currentColor" xmlns="http://www.w3.org/2000/svg">
    <path d="M14.4705 8.0379H13.5058C13.2499 8.0379 13.0045 8.13954 12.8236 8.32045C12.6427 8.50137 12.5411 8.74675 12.5411 9.0026C12.5411 9.25845 12.6427 9.50383 12.8236 9.68474C13.0045 9.86566 13.2499 9.9673 13.5058 9.9673H14.4705C14.7263 9.9673 14.9717 9.86566 15.1526 9.68474C15.3335 9.50383 15.4352 9.25845 15.4352 9.0026C15.4352 8.74675 15.3335 8.50137 15.1526 8.32045C14.9717 8.13954 14.7263 8.0379 14.4705 8.0379ZM14.4705 11.8967H13.5058C13.2499 11.8967 13.0045 11.9983 12.8236 12.1792C12.6427 12.3602 12.5411 12.6055 12.5411 12.8614C12.5411 13.1172 12.6427 13.3626 12.8236 13.5435C13.0045 13.7245 13.2499 13.8261 13.5058 13.8261H14.4705C14.7263 13.8261 14.9717 13.7245 15.1526 13.5435C15.3335 13.3626 15.4352 13.1172 15.4352 12.8614C15.4352 12.6055 15.3335 12.3602 15.1526 12.1792C14.9717 11.9983 14.7263 11.8967 14.4705 11.8967ZM8.68229 6.1085H14.4705C14.7263 6.1085 14.9717 6.00687 15.1526 5.82595C15.3335 5.64503 15.4352 5.39966 15.4352 5.14381C15.4352 4.88795 15.3335 4.64258 15.1526 4.46166C14.9717 4.28074 14.7263 4.17911 14.4705 4.17911H8.68229C8.42643 4.17911 8.18106 4.28074 8.00014 4.46166C7.81923 4.64258 7.71759 4.88795 7.71759 5.14381C7.71759 5.39966 7.81923 5.64503 8.00014 5.82595C8.18106 6.00687 8.42643 6.1085 8.68229 6.1085ZM18.3293 0.320312H4.82349C4.56764 0.320313 4.32226 0.42195 4.14135 0.602866C3.96043 0.783782 3.85879 1.02916 3.85879 1.28501V4.17911H0.964698C0.708845 4.17911 0.46347 4.28074 0.282554 4.46166C0.101638 4.64258 0 4.88795 0 5.14381V14.7908C0 15.5584 0.304913 16.2945 0.847661 16.8372C1.39041 17.38 2.12653 17.6849 2.8941 17.6849H15.4352C16.4586 17.6849 17.4401 17.2783 18.1638 16.5547C18.8874 15.831 19.294 14.8495 19.294 13.8261V1.28501C19.294 1.02916 19.1923 0.783782 19.0114 0.602866C18.8305 0.42195 18.5851 0.320313 18.3293 0.320312ZM3.85879 14.7908C3.85879 15.0466 3.75716 15.292 3.57624 15.4729C3.39532 15.6539 3.14995 15.7555 2.8941 15.7555C2.63824 15.7555 2.39287 15.6539 2.21195 15.4729C2.03103 15.292 1.9294 15.0466 1.9294 14.7908V6.1085H3.85879V14.7908ZM17.3646 13.8261C17.3646 14.3378 17.1613 14.8285 16.7995 15.1904C16.4376 15.5522 15.9469 15.7555 15.4352 15.7555H5.61455C5.72686 15.4461 5.78558 15.1199 5.78819 14.7908V2.24971H17.3646V13.8261ZM8.68229 9.9673H9.64699C9.90284 9.9673 10.1482 9.86566 10.3291 9.68474C10.51 9.50383 10.6117 9.25845 10.6117 9.0026C10.6117 8.74675 10.51 8.50137 10.3291 8.32045C10.1482 8.13954 9.90284 8.0379 9.64699 8.0379H8.68229C8.42643 8.0379 8.18106 8.13954 8.00014 8.32045C7.81923 8.50137 7.71759 8.74675 7.71759 9.0026C7.71759 9.25845 7.81923 9.50383 8.00014 9.68474C8.18106 9.86566 8.42643 9.9673 8.68229 9.9673ZM8.68229 13.8261H9.64699C9.90284 13.8261 10.1482 13.7245 10.3291 13.5435C10.51 13.3626 10.6117 13.1172 10.6117 12.8614C10.6117 12.6055 10.51 12.3602 10.3291 12.1792C10.1482 11.9983 9.90284 11.8967 9.64699 11.8967H8.68229C8.42643 11.8967 8.18106 11.9983 8.00014 12.1792C7.81923 12.3602 7.71759 12.6055 7.71759 12.8614C7.71759 13.1172 7.81923 13.3626 8.00014 13.5435C8.18106 13.7245 8.42643 13.8261 8.68229 13.8261Z"/>
</svg>
