<svg viewBox="0 0 40 40" fill="none" xmlns="http://www.w3.org/2000/svg">
<path d="M10 0H38C38.5304 0 39.0391 0.234126 39.4142 0.650874C39.7893 1.06762 40 1.63285 40 2.22222V31.1111C40 33.4686 39.1571 35.7295 37.6569 37.3965C36.1566 39.0635 34.1217 40 32 40H6C4.4087 40 2.88258 39.2976 1.75736 38.0474C0.632141 36.7971 0 35.1014 0 33.3333V11.1111C0 10.5217 0.210714 9.95651 0.585786 9.53976C0.960859 9.12302 1.46957 8.88889 2 8.88889H8V2.22222C8 1.63285 8.21071 1.06762 8.58579 0.650874C8.96086 0.234126 9.46957 0 10 0Z" fill="currentColor"/>
<path d="M30.0461 17.8806H28.0461C27.5157 17.8806 27.007 18.1147 26.6319 18.5314C26.2568 18.9482 26.0461 19.5134 26.0461 20.1028C26.0461 20.6922 26.2568 21.2574 26.6319 21.6741C27.007 22.0909 27.5157 22.325 28.0461 22.325H30.0461C30.5765 22.325 31.0852 22.0909 31.4603 21.6741C31.8354 21.2574 32.0461 20.6922 32.0461 20.1028C32.0461 19.5134 31.8354 18.9482 31.4603 18.5314C31.0852 18.1147 30.5765 17.8806 30.0461 17.8806ZM30.0461 26.7695H28.0461C27.5157 26.7695 27.007 27.0036 26.6319 27.4203C26.2568 27.8371 26.0461 28.4023 26.0461 28.9917C26.0461 29.5811 26.2568 30.1463 26.6319 30.563C27.007 30.9798 27.5157 31.2139 28.0461 31.2139H30.0461C30.5765 31.2139 31.0852 30.9798 31.4603 30.563C31.8354 30.1463 32.0461 29.5811 32.0461 28.9917C32.0461 28.4023 31.8354 27.8371 31.4603 27.4203C31.0852 27.0036 30.5765 26.7695 30.0461 26.7695ZM18.0461 13.4361H30.0461C30.5765 13.4361 31.0852 13.202 31.4603 12.7853C31.8354 12.3685 32.0461 11.8033 32.0461 11.2139C32.0461 10.6245 31.8354 10.0593 31.4603 9.64256C31.0852 9.22581 30.5765 8.99168 30.0461 8.99168H18.0461C17.5157 8.99168 17.007 9.22581 16.6319 9.64256C16.2568 10.0593 16.0461 10.6245 16.0461 11.2139C16.0461 11.8033 16.2568 12.3685 16.6319 12.7853C17.007 13.202 17.5157 13.4361 18.0461 13.4361ZM8.0461 33.4361C8.0461 34.0255 7.83539 34.5907 7.46032 35.0075C7.08524 35.4242 6.57654 35.6584 6.0461 35.6584C5.51567 35.6584 5.00696 35.4242 4.63189 35.0075C4.25682 34.5907 4.0461 34.0255 4.0461 33.4361V13.4361H8.0461V33.4361ZM18.0461 22.325H20.0461C20.5765 22.325 21.0852 22.0909 21.4603 21.6741C21.8354 21.2574 22.0461 20.6922 22.0461 20.1028C22.0461 19.5134 21.8354 18.9482 21.4603 18.5314C21.0852 18.1147 20.5765 17.8806 20.0461 17.8806H18.0461C17.5157 17.8806 17.007 18.1147 16.6319 18.5314C16.2568 18.9482 16.0461 19.5134 16.0461 20.1028C16.0461 20.6922 16.2568 21.2574 16.6319 21.6741C17.007 22.0909 17.5157 22.325 18.0461 22.325ZM18.0461 31.2139H20.0461C20.5765 31.2139 21.0852 30.9798 21.4603 30.563C21.8354 30.1463 22.0461 29.5811 22.0461 28.9917C22.0461 28.4023 21.8354 27.8371 21.4603 27.4203C21.0852 27.0036 20.5765 26.7695 20.0461 26.7695H18.0461C17.5157 26.7695 17.007 27.0036 16.6319 27.4203C16.2568 27.8371 16.0461 28.4023 16.0461 28.9917C16.0461 29.5811 16.2568 30.1463 16.6319 30.563C17.007 30.9798 17.5157 31.2139 18.0461 31.2139Z" fill="white"/>
</svg>
