<svg viewBox="0 0 19 19" xmlns="http://www.w3.org/2000/svg">
    <path d="M14.9632 0.774582L2.17152 5.03849C1.66747 5.20753 1.22781 5.52792 0.912504 5.95597C0.597194 6.38402 0.421572 6.8989 0.409583 7.43041C0.397594 7.96192 0.549821 8.48419 0.84551 8.92602C1.1412 9.36785 1.56596 9.70774 2.06188 9.89934L6.79481 11.7085C6.90707 11.7544 7.00905 11.8222 7.09481 11.9079C7.18057 11.9937 7.24839 12.0957 7.2943 12.2079L9.10342 16.9409C9.25778 17.3429 9.51016 17.7 9.83762 17.9797C10.1651 18.2594 10.5573 18.4528 10.9785 18.5424C11.3997 18.6319 11.8367 18.6148 12.2496 18.4926C12.6625 18.3703 13.0384 18.1468 13.343 17.8424C13.6253 17.5543 13.8397 17.2068 13.9704 16.8251L18.2343 4.03342C18.3846 3.57876 18.4056 3.09128 18.295 2.62535C18.1844 2.15943 17.9466 1.7334 17.608 1.39479C17.2694 1.05618 16.8433 0.818308 16.3774 0.707719C15.9115 0.597128 15.424 0.618168 14.9693 0.76849L14.9632 0.774582ZM16.5957 3.4913L12.3318 16.283C12.2736 16.4488 12.1661 16.5928 12.0237 16.6957C11.8814 16.7986 11.7109 16.8555 11.5353 16.8589C11.3596 16.8622 11.1872 16.8117 11.041 16.7142C10.8949 16.6167 10.782 16.4769 10.7176 16.3135L8.9024 11.5866C8.87757 11.5241 8.84909 11.4631 8.81712 11.4039L13.014 7.20699C13.1756 7.04544 13.2663 6.82633 13.2663 6.59786C13.2663 6.36939 13.1756 6.15028 13.014 5.98873C12.8525 5.82718 12.6334 5.73642 12.4049 5.73642C12.1764 5.73642 11.9573 5.82718 11.7958 5.98873L7.59887 10.1856C7.53967 10.1537 7.47865 10.1252 7.41613 10.1004L2.68928 8.28515C2.52585 8.22072 2.38601 8.10787 2.28854 7.96172C2.19106 7.81557 2.14059 7.64312 2.1439 7.46747C2.14722 7.29183 2.20415 7.1214 2.30708 6.97903C2.41 6.83666 2.55399 6.72917 2.71974 6.67095L15.5115 2.40705C15.6623 2.35839 15.8237 2.35232 15.9779 2.3895C16.132 2.42668 16.2729 2.50568 16.385 2.61778C16.4971 2.72989 16.5761 2.87076 16.6133 3.02489C16.6504 3.17901 16.6444 3.34041 16.5957 3.4913Z"
          fill="currentColor"/>
</svg>
