<svg viewBox="0 0 17 16" xmlns="http://www.w3.org/2000/svg">
    <path d="M16.4993 4.1917C16.4999 4.08642 16.4798 3.98206 16.44 3.8846C16.4001 3.78714 16.3415 3.69849 16.2673 3.62374L12.8756 0.231996C12.8008 0.157856 12.7122 0.0992007 12.6147 0.0593919C12.5173 0.0195832 12.4129 -0.000595299 12.3076 1.33704e-05C12.2024 -0.000595299 12.098 0.0195832 12.0005 0.0593919C11.9031 0.0992007 11.8144 0.157856 11.7397 0.231996L9.47585 2.49583L0.732485 11.2392C0.658345 11.3139 0.599689 11.4026 0.55988 11.5C0.520072 11.5975 0.499893 11.7019 0.500502 11.8071V15.1989C0.500502 15.411 0.584781 15.6145 0.734799 15.7645C0.884817 15.9145 1.08829 15.9988 1.30044 15.9988H4.69219C4.80413 16.0049 4.91609 15.9874 5.02083 15.9474C5.12556 15.9075 5.22072 15.8459 5.30015 15.7668L13.9955 7.02349L16.2673 4.79965C16.3404 4.72213 16.3999 4.63289 16.4433 4.53568C16.451 4.47191 16.451 4.40745 16.4433 4.34369C16.4471 4.30645 16.4471 4.26893 16.4433 4.2317L16.4993 4.1917ZM4.36422 14.3989H2.10038V12.1351L10.0438 4.1917L12.3076 6.45553L4.36422 14.3989ZM13.4356 5.32762L11.1717 3.06378L12.3076 1.93587L14.5635 4.1917L13.4356 5.32762Z"
          fill="currentColor"/>
</svg>
