<svg viewBox="0 0 10 13" xmlns="http://www.w3.org/2000/svg">
<path d="M5 0C3.67392 0 2.40215 0.526784 1.46447 1.46447C0.526784 2.40215 0 3.67392 0 5C0 8.375 4.40625 12.1875 4.59375 12.35C4.70696 12.4468 4.85103 12.5 5 12.5C5.14897 12.5 5.29304 12.4468 5.40625 12.35C5.625 12.1875 10 8.375 10 5C10 3.67392 9.47322 2.40215 8.53553 1.46447C7.59785 0.526784 6.32608 0 5 0ZM5 11.0312C3.66875 9.78125 1.25 7.0875 1.25 5C1.25 4.00544 1.64509 3.05161 2.34835 2.34835C3.05161 1.64509 4.00544 1.25 5 1.25C5.99456 1.25 6.94839 1.64509 7.65165 2.34835C8.35491 3.05161 8.75 4.00544 8.75 5C8.75 7.0875 6.33125 9.7875 5 11.0312ZM5 2.5C4.50555 2.5 4.0222 2.64662 3.61107 2.92133C3.19995 3.19603 2.87952 3.58648 2.6903 4.04329C2.50108 4.50011 2.45157 5.00277 2.54804 5.48773C2.6445 5.97268 2.8826 6.41814 3.23223 6.76777C3.58186 7.1174 4.02732 7.3555 4.51227 7.45196C4.99723 7.54843 5.49989 7.49892 5.95671 7.3097C6.41352 7.12048 6.80397 6.80005 7.07867 6.38893C7.35338 5.9778 7.5 5.49445 7.5 5C7.5 4.33696 7.23661 3.70107 6.76777 3.23223C6.29893 2.76339 5.66304 2.5 5 2.5ZM5 6.25C4.75277 6.25 4.5111 6.17669 4.30554 6.03934C4.09998 5.90199 3.93976 5.70676 3.84515 5.47835C3.75054 5.24995 3.72579 4.99861 3.77402 4.75614C3.82225 4.51366 3.9413 4.29093 4.11612 4.11612C4.29093 3.9413 4.51366 3.82225 4.75614 3.77402C4.99861 3.72579 5.24995 3.75054 5.47835 3.84515C5.70676 3.93976 5.90199 4.09998 6.03934 4.30554C6.17669 4.5111 6.25 4.75277 6.25 5C6.25 5.33152 6.1183 5.64946 5.88388 5.88388C5.64946 6.1183 5.33152 6.25 5 6.25Z" fill="currentColor"/>
</svg>
