<svg viewBox="0 0 17 16" xmlns="http://www.w3.org/2000/svg">
<path d="M15.7 9.59988H14.9V1.59988H15.7C15.9122 1.59988 16.1157 1.51559 16.2657 1.36556C16.4157 1.21553 16.5 1.01205 16.5 0.799878C16.5 0.587705 16.4157 0.384222 16.2657 0.234192C16.1157 0.0841634 15.9122 -0.00012207 15.7 -0.00012207H1.3C1.08783 -0.00012207 0.884344 0.0841634 0.734315 0.234192C0.584285 0.384222 0.5 0.587705 0.5 0.799878C0.5 1.01205 0.584285 1.21553 0.734315 1.36556C0.884344 1.51559 1.08783 1.59988 1.3 1.59988H2.1V9.59988H1.3C1.08783 9.59988 0.884344 9.68416 0.734315 9.83419C0.584285 9.98422 0.5 10.1877 0.5 10.3999C0.5 10.6121 0.584285 10.8155 0.734315 10.9656C0.884344 11.1156 1.08783 11.1999 1.3 11.1999H7.7V12.1199L4.06 14.5199C3.91067 14.6123 3.7959 14.7513 3.73341 14.9155C3.67093 15.0796 3.66419 15.2597 3.71424 15.4281C3.76428 15.5964 3.86834 15.7436 4.01035 15.847C4.15235 15.9503 4.32442 16.004 4.5 15.9999C4.65728 16.0017 4.81117 15.9541 4.94 15.8639L7.7 14.0399V15.1999C7.7 15.4121 7.78429 15.6155 7.93431 15.7656C8.08434 15.9156 8.28783 15.9999 8.5 15.9999C8.71217 15.9999 8.91566 15.9156 9.06569 15.7656C9.21571 15.6155 9.3 15.4121 9.3 15.1999V14.0399L12.06 15.8639C12.1888 15.9541 12.3427 16.0017 12.5 15.9999C12.6709 15.9986 12.8369 15.9425 12.9737 15.84C13.1104 15.7375 13.2108 15.5939 13.26 15.4302C13.3092 15.2665 13.3046 15.0913 13.2471 14.9304C13.1895 14.7695 13.0819 14.6312 12.94 14.5359L9.3 12.1359V11.1999H15.7C15.9122 11.1999 16.1157 11.1156 16.2657 10.9656C16.4157 10.8155 16.5 10.6121 16.5 10.3999C16.5 10.1877 16.4157 9.98422 16.2657 9.83419C16.1157 9.68416 15.9122 9.59988 15.7 9.59988ZM13.3 9.59988H3.7V1.59988H13.3V9.59988ZM6.588 8.20788C6.80122 8.33385 7.04434 8.40031 7.292 8.40031C7.53966 8.40031 7.78278 8.33385 7.996 8.20788L10.396 6.81588C10.6012 6.68995 10.7706 6.51351 10.8882 6.30342C11.0058 6.09334 11.0675 5.85662 11.0675 5.61588C11.0675 5.37514 11.0058 5.13842 10.8882 4.92833C10.7706 4.71824 10.6012 4.54181 10.396 4.41588L7.996 3.02388C7.78278 2.8979 7.53966 2.83145 7.292 2.83145C7.04434 2.83145 6.80122 2.8979 6.588 3.02388C6.37314 3.145 6.19503 3.32195 6.07251 3.53601C5.94999 3.75007 5.88762 3.99327 5.892 4.23988V7.02388C5.89334 7.26507 5.95842 7.50162 6.08065 7.70955C6.20288 7.91748 6.37791 8.0894 6.588 8.20788ZM7.492 4.54388L9.3 5.59988L7.476 6.65588L7.492 4.54388Z" fill="currentColor"/>
</svg>
