<svg viewBox="0 0 40 40" fill="none" xmlns="http://www.w3.org/2000/svg">
<path d="M20 40C16.0444 40 12.1776 38.827 8.8886 36.6294C5.59962 34.4318 3.03617 31.3082 1.52242 27.6537C0.00866622 23.9991 -0.387401 19.9778 0.384303 16.0982C1.15601 12.2186 3.06082 8.65492 5.85787 5.85787C8.65492 3.06082 12.2186 1.15601 16.0982 0.384303C19.9778 -0.387401 23.9991 0.00866572 27.6537 1.52242C31.3082 3.03617 34.4318 5.59962 36.6294 8.8886C38.827 12.1776 40 16.0444 40 20C40 25.3043 37.8929 30.3914 34.1421 34.1421C30.3914 37.8929 25.3043 40 20 40Z" fill="currentColor"/>
<path d="M18.1485 29.2639C18.2408 29.134 18.341 29.0097 18.4485 28.8919C18.681 28.6595 18.9575 28.475 19.2621 28.3491C19.5667 28.2232 19.8935 28.1583 20.2235 28.1583C20.5536 28.1583 20.8803 28.2232 21.185 28.3491C21.4896 28.475 21.7661 28.6595 21.9985 28.8919C22.2302 29.1236 22.4136 29.3984 22.538 29.7006C22.6624 30.0027 22.7254 30.3263 22.7235 30.6526C22.7355 30.9734 22.6846 31.2935 22.5735 31.595C22.4613 31.9028 22.2821 32.1823 22.0488 32.4137C21.8155 32.6451 21.5338 32.8228 21.2235 32.9342C20.9243 33.0654 20.6007 33.1331 20.2735 33.1331C19.9464 33.1331 19.6228 33.0654 19.3235 32.9342C19.0133 32.8228 18.7316 32.6451 18.4983 32.4137C18.265 32.1823 18.0858 31.9028 17.9735 31.595C17.8336 31.3007 17.7651 30.9779 17.7735 30.6526C17.7613 30.4875 17.7613 30.3218 17.7735 30.1567C17.8009 30.0013 17.8515 29.8508 17.9235 29.7103C17.9783 29.5522 18.0539 29.4021 18.1485 29.2639Z" fill="white"/>
<path d="M16.4708 9.32888C17.6119 8.67586 18.9062 8.3325 20.2235 8.33333C21.9824 8.34687 23.6805 8.97319 25.021 10.1028C26.3615 11.2324 27.2592 12.7934 27.557 14.513C27.8549 16.2326 27.534 18.0013 26.6505 19.51C25.7669 21.0187 24.377 22.1714 22.7235 22.7665V23.2129C22.7235 23.8706 22.4601 24.5014 21.9913 24.9664C21.5225 25.4315 20.8866 25.6928 20.2235 25.6928C19.5605 25.6928 18.9246 25.4315 18.4558 24.9664C17.9869 24.5014 17.7235 23.8706 17.7235 23.2129V20.733C17.7235 20.0752 17.9869 19.4445 18.4558 18.9794C18.9246 18.5143 19.5605 18.253 20.2235 18.253C20.8866 18.253 21.5225 17.9917 21.9913 17.5267C22.4601 17.0616 22.7235 16.4308 22.7235 15.7731C22.7235 15.1154 22.4601 14.4846 21.9913 14.0195C21.5225 13.5545 20.8866 13.2932 20.2235 13.2932C19.783 13.2914 19.3499 13.4052 18.9679 13.623C18.586 13.8407 18.2688 14.1547 18.0485 14.5331C17.8923 14.8295 17.6771 15.0914 17.4162 15.3032C17.1552 15.515 16.8537 15.6722 16.5299 15.7654C16.2061 15.8585 15.8666 15.8858 15.5319 15.8455C15.1972 15.8051 14.8741 15.6981 14.5822 15.5307C14.2903 15.3633 14.0355 15.1391 13.8333 14.8715C13.631 14.6039 13.4853 14.2985 13.4051 13.9736C13.3249 13.6488 13.3118 13.3112 13.3665 12.9811C13.4212 12.6511 13.5427 12.3355 13.7235 12.0532C14.3822 10.9215 15.3298 9.9819 16.4708 9.32888Z" fill="white"/>
</svg>
