<svg viewBox="0 0 14 14" xmlns="http://www.w3.org/2000/svg">
<path d="M6.02 3.41191L6.36364 3.03646V5.321C6.36364 5.48978 6.43068 5.65164 6.55002 5.77098C6.66936 5.89032 6.83123 5.95737 7 5.95737C7.16877 5.95737 7.33064 5.89032 7.44998 5.77098C7.56932 5.65164 7.63636 5.48978 7.63636 5.321V3.03646L7.98 3.38646C8.03776 3.4517 8.10831 3.50438 8.18727 3.54124C8.26623 3.5781 8.35192 3.59835 8.43902 3.60074C8.52613 3.60312 8.6128 3.58759 8.69366 3.55511C8.77452 3.52263 8.84784 3.47389 8.90909 3.41191C8.96874 3.35275 9.01608 3.28237 9.04838 3.20482C9.08069 3.12728 9.09733 3.0441 9.09733 2.96009C9.09733 2.87608 9.08069 2.79291 9.04838 2.71536C9.01608 2.63781 8.96874 2.56743 8.90909 2.50827L7.45182 1.051C7.3913 0.993066 7.31993 0.947652 7.24182 0.917365C7.08689 0.853717 6.91311 0.853717 6.75818 0.917365C6.68007 0.947652 6.6087 0.993066 6.54818 1.051L5.09091 2.48282C4.9677 2.60602 4.89849 2.77313 4.89849 2.94736C4.89849 3.1216 4.9677 3.28871 5.09091 3.41191C5.21411 3.53512 5.38122 3.60433 5.55545 3.60433C5.72969 3.60433 5.89679 3.53512 6.02 3.41191ZM7 7.23009C6.62242 7.23009 6.25331 7.34206 5.93937 7.55183C5.62542 7.76161 5.38072 8.05976 5.23623 8.40861C5.09174 8.75745 5.05393 9.1413 5.12759 9.51163C5.20125 9.88196 5.38308 10.2221 5.65007 10.4891C5.91706 10.7561 6.25723 10.9379 6.62755 11.0116C6.99788 11.0853 7.38174 11.0474 7.73058 10.903C8.07942 10.7585 8.37758 10.5138 8.58735 10.1998C8.79712 9.88587 8.90909 9.51677 8.90909 9.13918C8.90909 8.63286 8.70796 8.14728 8.34993 7.78925C7.99191 7.43123 7.50632 7.23009 7 7.23009ZM7 9.77555C6.87414 9.77555 6.7511 9.73822 6.64645 9.6683C6.54181 9.59838 6.46024 9.49899 6.41208 9.38271C6.36391 9.26643 6.35131 9.13848 6.37586 9.01503C6.40042 8.89159 6.46103 8.7782 6.55002 8.68921C6.63902 8.60021 6.75241 8.5396 6.87585 8.51505C6.99929 8.49049 7.12725 8.50309 7.24353 8.55126C7.35981 8.59942 7.45919 8.68099 7.52912 8.78564C7.59904 8.89029 7.63636 9.01332 7.63636 9.13918C7.63636 9.30796 7.56932 9.46982 7.44998 9.58916C7.33064 9.7085 7.16877 9.77555 7 9.77555ZM2.54545 9.13918C2.54545 9.26504 2.58278 9.38808 2.6527 9.49273C2.72263 9.59738 2.82201 9.67894 2.93829 9.72711C3.05457 9.77527 3.18252 9.78787 3.30597 9.76332C3.42941 9.73876 3.5428 9.67816 3.63179 9.58916C3.72079 9.50016 3.7814 9.38677 3.80595 9.26333C3.83051 9.13989 3.81791 9.01194 3.76974 8.89566C3.72158 8.77938 3.64001 8.67999 3.53536 8.61007C3.43071 8.54014 3.30768 8.50282 3.18182 8.50282C3.01304 8.50282 2.85118 8.56986 2.73184 8.68921C2.6125 8.80855 2.54545 8.97041 2.54545 9.13918ZM11.4545 9.13918C11.4545 9.01332 11.4172 8.89029 11.3473 8.78564C11.2774 8.68099 11.178 8.59942 11.0617 8.55126C10.9454 8.50309 10.8175 8.49049 10.694 8.51505C10.5706 8.5396 10.4572 8.60021 10.3682 8.68921C10.2792 8.7782 10.2186 8.89159 10.194 9.01503C10.1695 9.13848 10.1821 9.26643 10.2303 9.38271C10.2784 9.49899 10.36 9.59838 10.4646 9.6683C10.5693 9.73822 10.6923 9.77555 10.8182 9.77555C10.987 9.77555 11.1488 9.7085 11.2682 9.58916C11.3875 9.46982 11.4545 9.30796 11.4545 9.13918ZM12.0909 4.68464H9.54545C9.37668 4.68464 9.21482 4.75168 9.09548 4.87102C8.97614 4.99037 8.90909 5.15223 8.90909 5.321C8.90909 5.48978 8.97614 5.65164 9.09548 5.77098C9.21482 5.89032 9.37668 5.95737 9.54545 5.95737H12.0909C12.2597 5.95737 12.4215 6.02441 12.5409 6.14375C12.6602 6.26309 12.7273 6.42495 12.7273 6.59373V11.6846C12.7273 11.8534 12.6602 12.0153 12.5409 12.1346C12.4215 12.254 12.2597 12.321 12.0909 12.321H1.90909C1.74032 12.321 1.57846 12.254 1.45911 12.1346C1.33977 12.0153 1.27273 11.8534 1.27273 11.6846V6.59373C1.27273 6.42495 1.33977 6.26309 1.45911 6.14375C1.57846 6.02441 1.74032 5.95737 1.90909 5.95737H4.45455C4.62332 5.95737 4.78518 5.89032 4.90452 5.77098C5.02386 5.65164 5.09091 5.48978 5.09091 5.321C5.09091 5.15223 5.02386 4.99037 4.90452 4.87102C4.78518 4.75168 4.62332 4.68464 4.45455 4.68464H1.90909C1.40277 4.68464 0.917184 4.88577 0.55916 5.2438C0.201136 5.60182 0 6.08741 0 6.59373V11.6846C0 12.191 0.201136 12.6765 0.55916 13.0346C0.917184 13.3926 1.40277 13.5937 1.90909 13.5937H12.0909C12.5972 13.5937 13.0828 13.3926 13.4408 13.0346C13.7989 12.6765 14 12.191 14 11.6846V6.59373C14 6.08741 13.7989 5.60182 13.4408 5.2438C13.0828 4.88577 12.5972 4.68464 12.0909 4.68464Z" fill="currentColor"/>
</svg>
