<svg viewBox="0 0 15 13" xmlns="http://www.w3.org/2000/svg">
<path d="M7.49995 6.40909C7.11967 6.40909 6.74793 6.52186 6.43174 6.73313C6.11555 6.9444 5.86911 7.24469 5.72358 7.59602C5.57806 7.94736 5.53998 8.33395 5.61417 8.70692C5.68836 9.0799 5.87148 9.42249 6.14038 9.69139C6.40928 9.96029 6.75187 10.1434 7.12485 10.2176C7.49782 10.2918 7.88441 10.2537 8.23575 10.1082C8.58708 9.96266 8.88737 9.71622 9.09864 9.40003C9.30991 9.08384 9.42268 8.7121 9.42268 8.33182C9.42268 7.82188 9.22011 7.33283 8.85952 6.97224C8.49894 6.61166 8.00989 6.40909 7.49995 6.40909ZM7.49995 8.97273C7.37319 8.97273 7.24928 8.93514 7.14388 8.86472C7.03848 8.79429 6.95634 8.69419 6.90783 8.57708C6.85932 8.45997 6.84663 8.33111 6.87136 8.20678C6.89609 8.08246 6.95713 7.96826 7.04676 7.87863C7.13639 7.78899 7.25059 7.72795 7.37492 7.70322C7.49924 7.67849 7.62811 7.69119 7.74522 7.7397C7.86233 7.7882 7.96242 7.87035 8.03285 7.97575C8.10327 8.08115 8.14086 8.20506 8.14086 8.33182C8.14086 8.5018 8.07334 8.66482 7.95314 8.78501C7.83295 8.9052 7.66993 8.97273 7.49995 8.97273ZM7.04491 4.94141C7.10586 4.99976 7.17773 5.0455 7.25641 5.076C7.33312 5.10991 7.41607 5.12742 7.49995 5.12742C7.58383 5.12742 7.66678 5.10991 7.7435 5.076C7.82217 5.0455 7.89404 4.99976 7.955 4.94141L9.42268 3.49936C9.54676 3.37528 9.61647 3.20698 9.61647 3.0315C9.61647 2.85602 9.54676 2.68772 9.42268 2.56364C9.29859 2.43955 9.1303 2.36984 8.95481 2.36984C8.77933 2.36984 8.61104 2.43955 8.48695 2.56364L8.14086 2.94177V0.640909C8.14086 0.470929 8.07334 0.307912 7.95314 0.187718C7.83295 0.0675241 7.66993 0 7.49995 0C7.32997 0 7.16695 0.0675241 7.04676 0.187718C6.92657 0.307912 6.85904 0.470929 6.85904 0.640909V2.94177L6.51295 2.56364C6.38887 2.43955 6.22057 2.36984 6.04509 2.36984C5.8696 2.36984 5.70131 2.43955 5.57722 2.56364C5.45314 2.68772 5.38343 2.85602 5.38343 3.0315C5.38343 3.20698 5.45314 3.37528 5.57722 3.49936L7.04491 4.94141ZM11.9863 8.33182C11.9863 8.20506 11.9487 8.08115 11.8783 7.97575C11.8079 7.87035 11.7078 7.7882 11.5907 7.7397C11.4736 7.69119 11.3447 7.67849 11.2204 7.70322C11.096 7.72795 10.9818 7.78899 10.8922 7.87863C10.8026 7.96826 10.7415 8.08246 10.7168 8.20678C10.6921 8.33111 10.7048 8.45997 10.7533 8.57708C10.8018 8.69419 10.8839 8.79429 10.9893 8.86472C11.0947 8.93514 11.2186 8.97273 11.3454 8.97273C11.5154 8.97273 11.6784 8.9052 11.7986 8.78501C11.9188 8.66482 11.9863 8.5018 11.9863 8.33182ZM12.6272 3.84545H10.7045C10.5345 3.84545 10.3715 3.91298 10.2513 4.03317C10.1311 4.15337 10.0636 4.31638 10.0636 4.48636C10.0636 4.65634 10.1311 4.81936 10.2513 4.93956C10.3715 5.05975 10.5345 5.12727 10.7045 5.12727H12.6272C12.7972 5.12727 12.9602 5.1948 13.0804 5.31499C13.2006 5.43518 13.2681 5.5982 13.2681 5.76818V10.8955C13.2681 11.0654 13.2006 11.2285 13.0804 11.3486C12.9602 11.4688 12.7972 11.5364 12.6272 11.5364H2.37268C2.2027 11.5364 2.03968 11.4688 1.91949 11.3486C1.79929 11.2285 1.73177 11.0654 1.73177 10.8955V5.76818C1.73177 5.5982 1.79929 5.43518 1.91949 5.31499C2.03968 5.1948 2.2027 5.12727 2.37268 5.12727H4.29541C4.46539 5.12727 4.6284 5.05975 4.7486 4.93956C4.86879 4.81936 4.93631 4.65634 4.93631 4.48636C4.93631 4.31638 4.86879 4.15337 4.7486 4.03317C4.6284 3.91298 4.46539 3.84545 4.29541 3.84545H2.37268C1.86274 3.84545 1.37369 4.04803 1.0131 4.40861C0.652524 4.76919 0.449951 5.25824 0.449951 5.76818V10.8955C0.449951 11.4054 0.652524 11.8944 1.0131 12.255C1.37369 12.6156 1.86274 12.8182 2.37268 12.8182H12.6272C13.1372 12.8182 13.6262 12.6156 13.9868 12.255C14.3474 11.8944 14.55 11.4054 14.55 10.8955V5.76818C14.55 5.25824 14.3474 4.76919 13.9868 4.40861C13.6262 4.04803 13.1372 3.84545 12.6272 3.84545ZM3.01359 8.33182C3.01359 8.45858 3.05118 8.58249 3.1216 8.68789C3.19202 8.79329 3.29212 8.87543 3.40923 8.92394C3.52634 8.97245 3.65521 8.98514 3.77953 8.96041C3.90386 8.93568 4.01805 8.87464 4.10769 8.78501C4.19732 8.69538 4.25836 8.58118 4.28309 8.45685C4.30782 8.33253 4.29513 8.20366 4.24662 8.08655C4.19811 7.96944 4.11596 7.86935 4.01057 7.79892C3.90517 7.7285 3.78126 7.69091 3.6545 7.69091C3.48452 7.69091 3.3215 7.75843 3.20131 7.87863C3.08111 7.99882 3.01359 8.16184 3.01359 8.33182Z" fill="currentColor"/>
</svg>
