<svg width="17" height="17" viewBox="0 0 17 17" fill="none" xmlns="http://www.w3.org/2000/svg">
<path d="M16.2841 14.8781L13.3162 11.9342C14.4682 10.4978 15.0261 8.67459 14.8752 6.83947C14.7242 5.00434 13.8759 3.2968 12.5046 2.06794C11.1334 0.839081 9.3434 0.182311 7.50277 0.232677C5.66214 0.283043 3.91076 1.03672 2.60875 2.33873C1.30674 3.64074 0.553063 5.39212 0.502697 7.23275C0.45233 9.07338 1.1091 10.8634 2.33796 12.2346C3.56682 13.6059 5.27436 14.4542 7.10949 14.6052C8.94461 14.7561 10.7678 14.1982 12.2042 13.0462L15.1481 15.9901C15.2225 16.065 15.311 16.1245 15.4084 16.1652C15.5059 16.2058 15.6105 16.2267 15.7161 16.2267C15.8217 16.2267 15.9263 16.2058 16.0237 16.1652C16.1212 16.1245 16.2097 16.065 16.2841 15.9901C16.4283 15.8409 16.5089 15.6415 16.5089 15.4341C16.5089 15.2266 16.4283 15.0273 16.2841 14.8781ZM7.71642 13.0462C6.60889 13.0462 5.52624 12.7178 4.60536 12.1024C3.68448 11.4871 2.96674 10.6126 2.54291 9.58934C2.11908 8.56612 2.00818 7.44019 2.22425 6.35394C2.44032 5.26769 2.97365 4.26991 3.75679 3.48677C4.53993 2.70363 5.53771 2.1703 6.62396 1.95423C7.71021 1.73816 8.83614 1.84906 9.85936 2.27289C10.8826 2.69672 11.7572 3.41446 12.3725 4.33534C12.9878 5.25622 13.3162 6.33887 13.3162 7.4464C13.3162 8.93155 12.7262 10.3559 11.6761 11.406C10.6259 12.4562 9.20157 13.0462 7.71642 13.0462Z" fill="#A8ABA8"/>
</svg>
