<svg viewBox="0 0 17 18" xmlns="http://www.w3.org/2000/svg">
    <path d="M13.454 10.6947C12.9574 10.6979 12.4677 10.8112 12.0201 11.0263C11.5725 11.2414 11.178 11.553 10.8652 11.9386L6.57845 9.9634C6.78 9.34624 6.78 8.68096 6.57845 8.0638L10.8652 6.08855C11.3709 6.69875 12.0758 7.1107 12.8557 7.25171C13.6355 7.39272 14.4401 7.25372 15.1275 6.85924C15.8148 6.46476 16.3407 5.84016 16.6124 5.09567C16.884 4.35119 16.8839 3.53467 16.6122 2.79024C16.3404 2.0458 15.8144 1.4213 15.127 1.02694C14.4395 0.632585 13.6349 0.49373 12.8551 0.63488C12.0753 0.77603 11.3704 1.18811 10.8648 1.7984C10.3592 2.40869 10.0855 3.17795 10.0919 3.97042C10.0944 4.17066 10.1141 4.37032 10.1507 4.5672L5.7127 6.60968C5.23954 6.14704 4.64038 5.83431 3.99028 5.71068C3.34017 5.58704 2.66804 5.65801 2.05809 5.91468C1.44814 6.17134 0.927497 6.6023 0.561392 7.15356C0.195286 7.70481 0 8.35185 0 9.0136C0 9.67535 0.195286 10.3224 0.561392 10.8736C0.927497 11.4249 1.44814 11.8559 2.05809 12.1125C2.66804 12.3692 3.34017 12.4402 3.99028 12.3165C4.64038 12.1929 5.23954 11.8802 5.7127 11.4175L10.1507 13.46C10.1141 13.6569 10.0944 13.8565 10.0919 14.0568C10.0919 14.7217 10.2891 15.3718 10.6585 15.9247C11.0279 16.4776 11.553 16.9085 12.1674 17.163C12.7817 17.4174 13.4578 17.484 14.1099 17.3543C14.7621 17.2246 15.3612 16.9044 15.8314 16.4342C16.3016 15.964 16.6218 15.3649 16.7516 14.7127C16.8813 14.0605 16.8147 13.3845 16.5602 12.7702C16.3058 12.1558 15.8748 11.6307 15.3219 11.2613C14.769 10.8918 14.119 10.6947 13.454 10.6947ZM13.454 2.28936C13.7865 2.28936 14.1115 2.38795 14.388 2.57267C14.6644 2.75739 14.8799 3.01993 15.0071 3.32711C15.1344 3.63428 15.1677 3.97228 15.1028 4.29838C15.0379 4.62447 14.8778 4.92401 14.6427 5.15911C14.4076 5.39421 14.1081 5.55431 13.782 5.61918C13.4559 5.68404 13.1179 5.65075 12.8107 5.52352C12.5035 5.39628 12.241 5.18081 12.0563 4.90437C11.8715 4.62792 11.773 4.3029 11.773 3.97042C11.773 3.52457 11.9501 3.09699 12.2653 2.78173C12.5806 2.46647 13.0082 2.28936 13.454 2.28936ZM3.3676 10.6947C3.03512 10.6947 2.7101 10.5961 2.43365 10.4113C2.1572 10.2266 1.94173 9.96409 1.8145 9.65691C1.68726 9.34974 1.65397 9.01173 1.71883 8.68564C1.7837 8.35955 1.9438 8.06001 2.17891 7.82491C2.41401 7.58981 2.71355 7.4297 3.03964 7.36484C3.36574 7.29998 3.70375 7.33327 4.01092 7.4605C4.3181 7.58774 4.58064 7.8032 4.76536 8.07965C4.95008 8.3561 5.04867 8.68112 5.04867 9.0136C5.04867 9.45944 4.87156 9.88703 4.5563 10.2023C4.24104 10.5175 3.81345 10.6947 3.3676 10.6947ZM13.454 15.7378C13.1215 15.7378 12.7965 15.6392 12.5201 15.4545C12.2436 15.2698 12.0282 15.0073 11.9009 14.7001C11.7737 14.3929 11.7404 14.0549 11.8053 13.7288C11.8701 13.4027 12.0302 13.1032 12.2653 12.8681C12.5004 12.633 12.8 12.4729 13.1261 12.408C13.4522 12.3432 13.7902 12.3764 14.0973 12.5037C14.4045 12.6309 14.6671 12.8464 14.8518 13.1228C15.0365 13.3993 15.1351 13.7243 15.1351 14.0568C15.1351 14.5026 14.958 14.9302 14.6427 15.2455C14.3275 15.5607 13.8999 15.7378 13.454 15.7378Z"
          fill="currentColor"/>
</svg>
