<svg viewBox="0 0 40 40" fill="none" xmlns="http://www.w3.org/2000/svg">
    <path d="M28.5917 24.8137C29.6565 24.3027 30.8213 24.0336 32.0026 24.0258C33.5843 24.0258 35.1306 24.4943 36.4457 25.3719C37.7609 26.2495 38.7859 27.4969 39.3912 28.9564C39.9965 30.4158 40.1549 32.0218 39.8463 33.5711C39.5378 35.1205 38.7761 36.5436 37.6576 37.6606C36.5392 38.7776 35.1142 39.5383 33.5628 39.8465C32.0115 40.1547 30.4035 39.9965 28.9421 39.392C27.4808 38.7875 26.2318 37.7638 25.353 36.4503C24.4742 35.1368 24.0052 33.5926 24.0052 32.0129C24.0112 31.5372 24.058 31.0629 24.1451 30.5952L13.5886 25.7431C12.4631 26.8421 11.0379 27.585 9.49152 27.8787C7.94515 28.1724 6.34637 28.0039 4.8955 27.3941C3.44464 26.7844 2.2062 25.7606 1.33536 24.451C0.46452 23.1415 0 21.6043 0 20.0323C0 18.4602 0.46452 16.9231 1.33536 15.6136C2.2062 14.304 3.44464 13.2802 4.8955 12.6705C6.34637 12.0607 7.94515 11.8921 9.49152 12.1858C11.0379 12.4795 12.4631 13.2225 13.5886 14.3215L24.1451 9.46937C24.058 9.00166 24.0112 8.52736 24.0052 8.05166C23.99 6.16906 24.6411 4.3416 25.8437 2.89179C27.0462 1.44199 28.723 0.463041 30.5779 0.127723C32.4329 -0.207595 34.3468 0.122271 35.9819 1.05911C37.6171 1.99594 38.8683 3.47952 39.5148 5.24801C40.1612 7.0165 40.1614 8.95622 39.5153 10.7248C38.8691 12.4934 37.6182 13.9772 35.9832 14.9144C34.3482 15.8515 32.4344 16.1817 30.5794 15.8467C28.7243 15.5118 27.0474 14.5331 25.8446 13.0835L15.6479 17.7759C16.1273 19.2421 16.1273 20.8225 15.6479 22.2886L25.8446 26.981C26.5888 26.0648 27.527 25.3246 28.5917 24.8137Z"
          fill="currentColor"/>
</svg>
