<svg viewBox="0 0 16 17" xmlns="http://www.w3.org/2000/svg">
<path d="M7.27273 5.96125H10.1818C10.3747 5.96125 10.5597 5.88462 10.6961 5.74823C10.8325 5.61184 10.9091 5.42686 10.9091 5.23397C10.9091 5.04109 10.8325 4.8561 10.6961 4.71971C10.5597 4.58332 10.3747 4.5067 10.1818 4.5067H8.72727V3.77943C8.72727 3.58654 8.65065 3.40156 8.51426 3.26517C8.37787 3.12878 8.19289 3.05216 8 3.05216C7.80712 3.05216 7.62213 3.12878 7.48574 3.26517C7.34935 3.40156 7.27273 3.58654 7.27273 3.77943V4.5067C6.69407 4.5067 6.13912 4.73657 5.72995 5.14574C5.32078 5.55491 5.09091 6.10986 5.09091 6.68852C5.09091 7.26717 5.32078 7.82213 5.72995 8.2313C6.13912 8.64047 6.69407 8.87034 7.27273 8.87034H8.72727C8.92016 8.87034 9.10514 8.94696 9.24153 9.08335C9.37792 9.21974 9.45455 9.40472 9.45455 9.59761C9.45455 9.79049 9.37792 9.97548 9.24153 10.1119C9.10514 10.2483 8.92016 10.3249 8.72727 10.3249H5.81818C5.6253 10.3249 5.44031 10.4015 5.30392 10.5379C5.16753 10.6743 5.09091 10.8593 5.09091 11.0522C5.09091 11.245 5.16753 11.43 5.30392 11.5664C5.44031 11.7028 5.6253 11.7794 5.81818 11.7794H7.27273V12.5067C7.27273 12.6996 7.34935 12.8846 7.48574 13.021C7.62213 13.1573 7.80712 13.234 8 13.234C8.19289 13.234 8.37787 13.1573 8.51426 13.021C8.65065 12.8846 8.72727 12.6996 8.72727 12.5067V11.7794C9.30593 11.7794 9.86088 11.5496 10.2701 11.1404C10.6792 10.7312 10.9091 10.1763 10.9091 9.59761C10.9091 9.01895 10.6792 8.464 10.2701 8.05483C9.86088 7.64566 9.30593 7.41579 8.72727 7.41579H7.27273C7.07984 7.41579 6.89486 7.33917 6.75847 7.20278C6.62208 7.06639 6.54546 6.8814 6.54546 6.68852C6.54546 6.49563 6.62208 6.31065 6.75847 6.17426C6.89486 6.03787 7.07984 5.96125 7.27273 5.96125ZM8 0.143066C6.41775 0.143066 4.87103 0.612258 3.55544 1.49131C2.23985 2.37036 1.21447 3.61979 0.608967 5.0816C0.0034663 6.54341 -0.15496 8.15194 0.153721 9.70378C0.462403 11.2556 1.22433 12.6811 2.34315 13.7999C3.46197 14.9187 4.88743 15.6807 6.43928 15.9893C7.99113 16.298 9.59966 16.1396 11.0615 15.5341C12.5233 14.9286 13.7727 13.9032 14.6518 12.5876C15.5308 11.272 16 9.72531 16 8.14306C16 6.02133 15.1571 3.9865 13.6569 2.48621C12.1566 0.985921 10.1217 0.143066 8 0.143066ZM8 14.6885C6.70543 14.6885 5.43994 14.3046 4.36354 13.5854C3.28715 12.8662 2.4482 11.8439 1.95279 10.6479C1.45738 9.45187 1.32776 8.1358 1.58032 6.86611C1.83288 5.59642 2.45627 4.43013 3.37167 3.51473C4.28706 2.59933 5.45335 1.97594 6.72305 1.72338C7.99274 1.47082 9.30881 1.60044 10.5048 2.09585C11.7009 2.59126 12.7231 3.43021 13.4423 4.50661C14.1616 5.583 14.5455 6.8485 14.5455 8.14306C14.5455 9.87903 13.8558 11.5439 12.6283 12.7714C11.4008 13.9989 9.73596 14.6885 8 14.6885Z" fill="currentColor"/>
</svg>
