<svg viewBox="0 0 40 40" fill="currentColor" xmlns="http://www.w3.org/2000/svg">
    <path fill-rule="evenodd" clip-rule="evenodd"
          d="M19.9568 0C8.94168 0 0 8.94168 0 19.9568C0 23.8445 1.07991 27.5594 3.19654 30.7991L0.172787 37.4946C-0.0863924 38.0993 0 38.8337 0.431965 39.3521C0.777538 39.7408 1.2527 39.9568 1.77106 39.9568C1.94384 39.9568 2.07343 39.9568 2.24622 39.9136L10.6264 37.6242C13.5205 39.1793 16.7603 40 20.0432 40C31.0583 40 40 31.0583 40 20.0432C39.9136 8.94168 30.9719 0 19.9568 0ZM19.9568 36.4579C17.0194 36.4579 14.1685 35.6803 11.6631 34.2117C11.4039 34.0389 11.1015 33.9525 10.7991 33.9525C10.6263 33.9525 10.4968 33.9525 10.324 33.9957L4.83801 35.5076L6.73866 31.3175C6.99784 30.7559 6.91145 30.0648 6.56587 29.5896C4.53564 26.7819 3.45572 23.4557 3.45572 19.9568C3.45572 10.8855 10.8855 3.45572 19.9568 3.45572C29.0281 3.45572 36.4579 10.8423 36.4579 19.9568C36.4579 29.0281 29.0713 36.4579 19.9568 36.4579Z"
          fill="currentColor"/>
    <path fill-rule="evenodd" clip-rule="evenodd"
          d="M27.6462 22.9378C26.8255 22.4194 25.7024 21.8579 24.7521 22.2898C24.0177 22.5922 23.4994 23.8017 23.0242 24.4065C22.765 24.7088 22.4627 24.752 22.0739 24.6225C19.2229 23.4993 17.0631 21.5987 15.508 19.0069C15.2488 18.6181 15.292 18.2726 15.5944 17.8838C16.0696 17.3222 16.6743 16.6743 16.8039 15.94C16.9335 15.2056 16.5879 14.2985 16.2856 13.6505C15.8968 12.7866 15.4648 11.5771 14.6009 11.1019C13.8233 10.67 12.7866 10.886 12.0955 11.4907C10.886 12.4842 10.2812 14.0393 10.3244 15.5512C10.3244 15.9831 10.3676 16.4151 10.4972 16.8471C10.7564 17.8406 11.1884 18.7909 11.7499 19.698C12.1387 20.3892 12.5706 21.0371 13.0458 21.6419C14.5577 23.7153 16.4583 25.4864 18.6182 26.8255C19.6981 27.4734 20.9076 28.0782 22.1171 28.4669C23.4994 28.8989 24.7089 29.3741 26.1776 29.1149C27.7326 28.8125 29.2445 27.8622 29.8493 26.3935C30.0221 25.9615 30.1084 25.4432 30.0221 25.0112C29.7197 23.9745 28.4238 23.413 27.6462 22.9378Z"
          fill="currentColor"/>
</svg>
