<svg viewBox="0 0 16 16" xmlns="http://www.w3.org/2000/svg">
<path d="M5.80804 11.6903C5.6634 11.6903 5.522 11.7332 5.40174 11.8136C5.28148 11.8939 5.18774 12.0082 5.13239 12.1418C5.07704 12.2754 5.06256 12.4225 5.09078 12.5643C5.11899 12.7062 5.18864 12.8365 5.29092 12.9388C5.3932 13.041 5.5235 13.1107 5.66536 13.1389C5.80723 13.1671 5.95427 13.1526 6.0879 13.0973C6.22153 13.0419 6.33574 12.9482 6.4161 12.8279C6.49646 12.7077 6.53935 12.5663 6.53935 12.4216C6.53935 12.2277 6.4623 12.0417 6.32515 11.9045C6.18801 11.7674 6.00199 11.6903 5.80804 11.6903ZM3.6141 11.6903C3.46946 11.6903 3.32806 11.7332 3.2078 11.8136C3.08754 11.8939 2.9938 12.0082 2.93845 12.1418C2.8831 12.2754 2.86862 12.4225 2.89683 12.5643C2.92505 12.7062 2.9947 12.8365 3.09698 12.9388C3.19926 13.041 3.32956 13.1107 3.47142 13.1389C3.61329 13.1671 3.76033 13.1526 3.89396 13.0973C4.02759 13.0419 4.1418 12.9482 4.22216 12.8279C4.30252 12.7077 4.34541 12.5663 4.34541 12.4216C4.34541 12.2277 4.26836 12.0417 4.13121 11.9045C3.99407 11.7674 3.80805 11.6903 3.6141 11.6903ZM8.00198 11.6903C7.85734 11.6903 7.71595 11.7332 7.59568 11.8136C7.47542 11.8939 7.38168 12.0082 7.32633 12.1418C7.27098 12.2754 7.2565 12.4225 7.28472 12.5643C7.31293 12.7062 7.38258 12.8365 7.48486 12.9388C7.58714 13.041 7.71744 13.1107 7.8593 13.1389C8.00117 13.1671 8.14821 13.1526 8.28184 13.0973C8.41547 13.0419 8.52968 12.9482 8.61004 12.8279C8.6904 12.7077 8.73329 12.5663 8.73329 12.4216C8.73329 12.2277 8.65624 12.0417 8.51909 11.9045C8.38195 11.7674 8.19593 11.6903 8.00198 11.6903ZM10.269 5.47417C10.3333 5.36335 10.4256 5.27136 10.5366 5.20741C10.6476 5.14347 10.7735 5.10981 10.9016 5.10981C11.0298 5.10981 11.1556 5.14347 11.2666 5.20741C11.3777 5.27136 11.4699 5.36335 11.5342 5.47417C11.6307 5.64144 11.7894 5.76377 11.9757 5.81447C12.1621 5.86516 12.3609 5.8401 12.5288 5.74476C12.6151 5.69948 12.6914 5.63742 12.7534 5.56223C12.8153 5.48704 12.8616 5.40023 12.8895 5.30689C12.9175 5.21356 12.9265 5.11559 12.916 5.01873C12.9056 4.92187 12.8759 4.82808 12.8286 4.74286C12.6363 4.40867 12.3592 4.13109 12.0254 3.93808C11.6916 3.74507 11.3128 3.64345 10.9272 3.64345C10.5416 3.64345 10.1629 3.74507 9.82904 3.93808C9.49523 4.13109 9.21818 4.40867 9.02582 4.74286C8.96407 4.90439 8.96156 5.08257 9.01874 5.24578C9.07591 5.40898 9.18908 5.54665 9.33813 5.63433C9.48719 5.72201 9.66249 5.75403 9.83292 5.72471C10.0033 5.69539 10.1579 5.60662 10.269 5.47417ZM15.3882 3.28023C14.9387 2.50276 14.2926 1.85723 13.5147 1.40843C12.7368 0.959644 11.8545 0.723389 10.9565 0.723389C10.0584 0.723389 9.17615 0.959644 8.39826 1.40843C7.62038 1.85723 6.97424 2.50276 6.52472 3.28023C6.47637 3.3637 6.44501 3.45591 6.43244 3.55155C6.41987 3.64719 6.42635 3.74437 6.4515 3.83749C6.47665 3.93062 6.51998 4.01785 6.57899 4.09416C6.63799 4.17047 6.71151 4.23435 6.79531 4.28213C6.89593 4.33943 7.00872 4.37201 7.1244 4.3772C7.25327 4.37771 7.37998 4.34416 7.49171 4.27995C7.60343 4.21574 7.69621 4.12314 7.76064 4.01154C8.08159 3.45572 8.54318 2.99416 9.09903 2.67326C9.65488 2.35236 10.2854 2.18342 10.9272 2.18342C11.5691 2.18342 12.1996 2.35236 12.7554 2.67326C13.3113 2.99416 13.7729 3.45572 14.0938 4.01154C14.1416 4.09534 14.2055 4.16886 14.2818 4.22787C14.3581 4.28687 14.4453 4.3302 14.5385 4.35535C14.6316 4.3805 14.7288 4.38698 14.8244 4.37441C14.92 4.36185 15.0122 4.33048 15.0957 4.28213C15.1814 4.23622 15.257 4.1737 15.3182 4.09822C15.3794 4.02275 15.425 3.93583 15.4522 3.84255C15.4794 3.74928 15.4878 3.65151 15.4768 3.55495C15.4658 3.4584 15.4357 3.36501 15.3882 3.28023ZM12.3899 9.49639H11.6585V7.30245C11.6585 7.1085 11.5815 6.92248 11.4443 6.78534C11.3072 6.64819 11.1212 6.57114 10.9272 6.57114C10.7333 6.57114 10.5473 6.64819 10.4101 6.78534C10.273 6.92248 10.1959 7.1085 10.1959 7.30245V9.49639H2.88278C2.30091 9.49639 1.74288 9.72754 1.33143 10.139C0.919989 10.5504 0.688843 11.1085 0.688843 11.6903V13.153C0.688843 13.7348 0.919989 14.2929 1.33143 14.7043C1.74288 15.1158 2.30091 15.3469 2.88278 15.3469H12.3899C12.9717 15.3469 13.5298 15.1158 13.9412 14.7043C14.3527 14.2929 14.5838 13.7348 14.5838 13.153V11.6903C14.5838 11.1085 14.3527 10.5504 13.9412 10.139C13.5298 9.72754 12.9717 9.49639 12.3899 9.49639ZM13.1212 13.153C13.1212 13.3469 13.0441 13.5329 12.907 13.6701C12.7698 13.8072 12.5838 13.8843 12.3899 13.8843H2.88278C2.68883 13.8843 2.50281 13.8072 2.36567 13.6701C2.22852 13.5329 2.15147 13.3469 2.15147 13.153V11.6903C2.15147 11.4964 2.22852 11.3104 2.36567 11.1732C2.50281 11.0361 2.68883 10.959 2.88278 10.959H12.3899C12.5838 10.959 12.7698 11.0361 12.907 11.1732C13.0441 11.3104 13.1212 11.4964 13.1212 11.6903V13.153Z" fill="currentColor"/>
</svg>
