<svg width="40" height="40" viewBox="0 0 40 40" fill="none" xmlns="http://www.w3.org/2000/svg">
<path d="M40 20C40 31.0457 31.0457 40 20 40C8.9543 40 0 31.0457 0 20C0 8.9543 8.9543 0 20 0C31.0457 0 40 8.9543 40 20Z" fill="#001B48"/>
<path d="M36.4652 14.1028C36.4652 14.1028 36.4652 14.1028 36.4652 14.015C35.2297 10.6386 32.9879 7.72343 30.043 5.66394C27.0982 3.60445 23.5924 2.5 20 2.5C16.4076 2.5 12.9018 3.60445 9.95696 5.66394C7.01213 7.72343 4.77033 10.6386 3.53483 14.015C3.53483 14.015 3.53483 14.015 3.53483 14.1028C2.15506 17.913 2.15506 22.087 3.53483 25.8972C3.53483 25.8972 3.53483 25.8972 3.53483 25.985C4.77033 29.3614 7.01213 32.2766 9.95696 34.3361C12.9018 36.3956 16.4076 37.5 20 37.5C23.5924 37.5 27.0982 36.3956 30.043 34.3361C32.9879 32.2766 35.2297 29.3614 36.4652 25.985C36.4652 25.985 36.4652 25.985 36.4652 25.8972C37.8449 22.087 37.8449 17.913 36.4652 14.1028ZM6.393 23.5102C5.78494 21.2097 5.78494 18.7903 6.393 16.4898H9.65447C9.37397 18.8215 9.37397 21.1785 9.65447 23.5102H6.393ZM7.83085 27.0205H10.2857C10.6973 28.5858 11.2856 30.0991 12.0392 31.5311C10.3196 30.3586 8.88206 28.8178 7.83085 27.0205ZM10.2857 12.9795H7.83085C8.86693 11.1877 10.2861 9.64736 11.9866 8.46886C11.2511 9.90322 10.6805 11.4164 10.2857 12.9795ZM18.2115 33.5144C16.0578 31.9325 14.5452 29.6272 13.9505 27.0205H18.2115V33.5144ZM18.2115 23.5102H13.1965C12.8693 21.1815 12.8693 18.8185 13.1965 16.4898H18.2115V23.5102ZM18.2115 12.9795H13.9505C14.5452 10.3728 16.0578 8.0675 18.2115 6.48558V12.9795ZM32.099 12.9795H29.6441C29.2326 11.4142 28.6443 9.90093 27.8907 8.46886C29.6103 9.6414 31.0478 11.1822 32.099 12.9795ZM21.7184 6.48558C23.8721 8.0675 25.3847 10.3728 25.9794 12.9795H21.7184V6.48558ZM21.7184 33.5144V27.0205H25.9794C25.3847 29.6272 23.8721 31.9325 21.7184 33.5144ZM26.7334 23.5102H21.7184V16.4898H26.7334C27.0606 18.8185 27.0606 21.1815 26.7334 23.5102ZM27.9433 31.5311C28.6969 30.0991 29.2852 28.5858 29.6967 27.0205H32.1516C31.1004 28.8178 29.6629 30.3586 27.9433 31.5311ZM33.5369 23.5102H30.2754C30.418 22.3456 30.4883 21.1733 30.4858 20C30.4877 18.8267 30.4175 17.6544 30.2754 16.4898H33.5369C34.1449 18.7903 34.1449 21.2097 33.5369 23.5102Z" fill="white"/>
</svg>
