<svg viewBox="0 0 171 152" fill="none" xmlns="http://www.w3.org/2000/svg">
    <path d="M95.4425 129.399C103.839 137.519 139.122 136.505 140.594 123.137C141.679 113.287 123.614 103.897 125.291 93.7919C126.834 84.4942 142.758 88.6438 146.351 78.1407C149.013 70.3564 143.767 57.8395 134.177 50.9495C125.09 44.4211 116.754 46.286 91.207 44.9127C50.1911 42.7077 44.9642 36.4647 32.3529 40.829C19.4195 45.3052 5.73881 58.5084 14.232 76.949C21.4492 92.6203 42.5042 107.349 59.3973 111.368C74.9491 115.068 85.4355 109.325 91.434 114.569C96.5578 119.049 90.6539 124.768 95.4425 129.399Z"
          fill="#355471"/>
    <path d="M14.5816 67.6122C14.7864 64.438 15.6234 61.2893 17.5413 58.7392C24.715 47.35 38.3274 39.0294 52.034 41.4475C64.128 43.5796 74.1417 56.0607 70.7858 68.5068C70.7836 68.5183 70.7787 68.5305 70.7766 68.542L70.7736 68.5432C69.253 74.0423 66.0768 79.2671 60.7705 81.6951C60.8056 81.7462 60.8409 81.7972 60.8758 81.8481C60.8849 81.8615 60.894 81.875 60.9029 81.8888L60.9054 81.8948C61.0083 82.0422 61.1093 82.1935 61.205 82.3403C61.4186 82.6455 61.6168 82.9638 61.826 83.2743C61.826 83.2743 61.8326 83.2818 61.8351 83.2877C64.4484 87.3494 69.2011 89.1768 73.7077 89.7091C68.1584 93.2674 59.2597 90.2685 54.6991 85.6285C53.5397 86.4959 52.3387 87.2873 51.0144 87.8918L51.0217 87.8852C48.8835 88.9834 46.5717 89.6596 44.2655 90.3089C36.5406 93.094 28.3305 90.3774 22.473 84.8037C22.4675 84.7989 22.458 84.7927 22.4528 84.7878C17.2787 80.8001 14.0325 74.1891 14.5816 67.6122Z"
          fill="#C5E4EA"/>
    <g opacity="0.7">
        <path d="M42.2676 48.6896C43.7875 48.6147 45.3288 48.79 46.7029 49.2915C49.9017 50.4591 52.6888 53.784 51.7484 57.3367C51.443 58.4909 51.6611 59.7413 50.5302 60.2842C49.9183 60.578 48.2343 60.8076 47.5855 60.623C45.8612 60.1322 44.6917 58.6419 45.5671 56.8993C45.8474 56.3413 46.2171 55.8272 46.4559 55.2504C46.6948 54.6737 46.7912 53.998 46.5121 53.4454C45.964 52.3608 44.2465 52.08 43.1409 52.1591C41.8359 52.2524 40.6721 52.9416 40.0033 54.0691C39.1697 55.4742 38.9994 57.1482 39.1771 58.7316C39.367 60.4259 40.1308 61.6943 41.2554 62.9534C42.2239 64.0376 43.285 65.0727 43.9462 66.3654C44.5533 67.5516 44.781 68.8856 44.8478 70.2087C44.8608 70.4651 46.2236 72.8304 46.2414 73.5696C46.2438 73.674 44.795 74.0809 44.6891 74.086L42.01 74.2267C41.9534 74.2298 41.8981 74.2104 41.8563 74.1729C41.8145 74.1355 41.7897 74.0829 41.7872 74.0268C41.6348 70.4336 40.4125 67.0524 37.5126 64.7551C36.4575 63.9192 35.3283 63.2496 34.4945 62.1739C33.3063 60.6407 32.696 59.1085 32.7977 57.1513C32.8906 55.3636 33.4273 53.5567 34.5563 52.126C35.7697 50.5884 37.5845 49.5844 39.4881 49.1041C40.3994 48.8751 41.3305 48.7362 42.2676 48.6896Z"
              fill="url(#paint0_linear_659_42411)"/>
        <path d="M40.4638 78.4077C40.5151 80.059 41.484 81.4815 43.1502 81.4124C43.5102 81.3975 44.7345 81.3501 45.051 81.2222C46.1997 80.7582 46.1764 79.8736 46.1363 78.5792C46.085 76.9279 45.4721 75.3273 43.8057 75.3964C42.1394 75.4655 40.4126 76.7562 40.4638 78.4077Z"
              fill="url(#paint1_linear_659_42411)"/>
        <path d="M43.6893 48.2594C45.2092 48.1845 46.7505 48.3598 48.1246 48.8614C51.3234 50.0294 54.1105 53.3543 53.1704 56.9074C52.865 58.0616 52.1216 59.5295 50.9913 60.0724C50.3795 60.3662 49.6568 60.3783 49.0081 60.1937C47.2838 59.703 46.1143 58.2127 46.9897 56.47C47.27 55.9121 47.6397 55.3979 47.8785 54.8212C48.1173 54.2444 48.2138 53.5687 47.9347 53.0162C47.3863 51.9316 45.6685 51.6509 44.5634 51.7299C43.2584 51.8232 42.0946 52.5124 41.4258 53.6398C40.5921 55.0449 40.4218 56.7189 40.5996 58.3024C40.7895 59.9967 41.5532 61.265 42.6779 62.5242C43.6464 63.6083 44.7075 64.6434 45.3687 65.9361C45.9757 67.1223 46.2035 68.4563 46.2703 69.7794C46.2833 70.0359 46.2792 72.7197 46.2966 73.4588C46.2978 73.509 46.279 73.5579 46.2442 73.5949C46.2095 73.6319 46.1616 73.654 46.1109 73.6565L43.4318 73.7973C43.3752 73.8003 43.32 73.781 43.2782 73.7435C43.2364 73.706 43.2115 73.6534 43.209 73.5974C43.0567 70.0041 41.8344 66.6229 38.9345 64.3256C37.8794 63.4897 36.7501 62.8202 35.9164 61.7444C34.7279 60.2114 34.1177 58.6798 34.2187 56.7222C34.3117 54.9345 34.8483 53.1276 35.9773 51.6969C37.1914 50.1589 39.006 49.1543 40.9098 48.675C41.8211 48.4456 42.7522 48.3064 43.6893 48.2594Z"
              fill="url(#paint2_linear_659_42411)"/>
        <path d="M44.6357 81.2638C42.97 81.3328 41.5782 80.0507 41.527 78.4C41.4758 76.7494 42.7846 75.3553 44.4503 75.2862C46.116 75.2171 47.5078 76.4993 47.559 78.1499C47.6102 79.8006 46.3014 81.1947 44.6357 81.2638Z"
              fill="url(#paint3_linear_659_42411)"/>
    </g>
    <path d="M109.938 134.318C111.312 132.4 111.007 129.811 109.257 128.535C107.506 127.259 104.972 127.778 103.598 129.695C102.223 131.613 102.528 134.202 104.279 135.478C106.03 136.754 108.563 136.235 109.938 134.318Z"
          fill="#F18910"/>
    <path d="M98.1972 131.995C99.571 130.079 99.2054 127.447 97.3806 126.117C95.5558 124.786 92.9628 125.261 91.589 127.177C90.2152 129.093 90.5809 131.725 92.4057 133.056C94.2305 134.386 96.8234 133.911 98.1972 131.995Z"
          fill="#F18910"/>
    <path d="M87.5639 123.412C87.5639 123.412 98.3404 137.655 116.999 129.042L128.573 113.281L130.867 100.012L122.749 96.1312L115.599 98.9219L105.284 98.8898L92.9379 97.0633L90.4623 98.3656L87.5639 123.412Z"
          fill="#E8F7F3"/>
    <path d="M113.025 106.453C113.025 106.453 115.131 105.999 115.302 105.893C115.541 105.786 115.814 105.762 116.077 105.825C116.341 105.888 116.58 106.033 116.757 106.239C117.188 106.837 116.772 107.191 116.341 107.814C115.91 108.437 112.923 115.296 113.178 119.701C113.433 124.105 113.615 126.394 114.701 128.718C114.701 128.718 115.284 129.885 115.337 129.905C115.61 129.832 115.878 129.743 116.139 129.639L116.874 123.379L120.056 110.174L122.932 106.526L125.206 103.92L122.413 98.935L120.495 98.2105L109.016 98.6891L100.579 98.721L94.219 97.36L90.8394 97.7545L92.4588 103.503L91.913 109.703L90.0868 116.503L88.0588 120.731L87.3353 122.901L87.564 123.821C87.564 123.821 88.5021 125.122 88.708 125.086C88.9138 125.05 92.4999 119.71 94.1754 113.895C94.1754 113.895 94.8286 112.338 95.3142 106.608C95.3142 106.608 95.4206 103.737 95.3564 103.651C95.2922 103.565 95.374 103.501 95.7009 103.686C96.0278 103.871 104.202 108.692 112.573 106.637L113.025 106.453Z"
          fill="#BFC1C1"/>
    <path d="M92.8037 60.8687C92.8037 60.8687 100.649 55.7631 115.882 56.6638C115.882 56.6638 121.779 58.1355 123.842 55.2223C124.983 53.8527 125.996 52.3838 126.869 50.8319C127.788 49.0007 128.537 50.2134 128.537 50.2134C128.537 50.2134 130.176 52.7305 130.522 52.9084C130.867 53.0862 138.564 62.3883 137.882 75.3697C137.882 75.3697 137.948 83.267 133.781 90.1501C133.781 90.1501 136.401 94.7406 135.796 97.2931C135.796 97.2931 136.244 97.3056 136.304 98.0731L136.543 99.848C136.543 99.848 137.968 105.397 133.619 115.827C133.619 115.827 130.587 121.326 125.92 125.178C125.92 125.178 121.433 129.477 120.518 131.243C120.158 131.765 119.83 132.309 119.536 132.87C119.536 132.87 119.096 134.128 118.339 133.947C118.339 133.947 117.473 133.582 117.108 131.014L116.724 129.071C116.724 129.071 113.492 120.648 120.737 109.071C120.737 109.071 123.803 104.439 124.695 104.05C125.586 103.66 122.485 98.8691 122.485 98.8691C122.485 98.8691 120.61 99.0296 120.472 99.1959C120.334 99.3622 111.061 104.631 95.2443 98.6604L93.5993 97.6788C93.5993 97.6788 97.1455 108.361 89.3648 122.805L88.8021 123.888L87.9417 125.851C87.9417 125.851 86.881 127.462 86.4751 125.297C86.0693 123.132 85.8778 122.528 85.8778 122.528C85.8778 122.528 83.7849 118.564 83.0371 117.859C83.0371 117.859 78.3112 109.655 79.6343 104.351C79.6343 104.351 80.8652 96.1129 83.1883 93.5069C83.1883 93.5069 85.2671 90.6045 85.5278 90.4704C85.7884 90.3363 79.1627 81.4244 78.8303 75.6664C78.8303 75.6664 77.7299 68.8639 78.323 65.5621C78.323 65.5621 79.1604 59.6145 79.7257 59.1066L79.8372 58.6173C79.789 58.4634 79.7802 58.3023 79.8114 58.1485C79.8427 57.9947 79.913 57.8529 80.0163 57.7358C80.3912 57.4028 80.9853 57.9355 80.9853 57.9355C80.9853 57.9355 84.0496 60.2595 84.5765 60.4584C84.5765 60.4584 87.783 62.5467 90.2281 62.0081C91.0643 61.763 91.8659 61.4292 92.6192 61.0126L92.8037 60.8687Z"
          fill="#C5E4EA"/>
    <path d="M108.645 73.8043C108.645 73.8043 113.713 63.6878 124.639 65.5355C124.639 65.5355 127.718 66.1619 128.674 66.0095C129.629 65.857 130.952 66.319 132.402 64.1582C132.667 63.7843 132.886 63.3803 133.055 62.9538C133.055 62.9538 133.318 62.2006 133.629 62.1013C133.939 62.002 134.285 62.0854 134.579 62.7243C135.45 64.8022 136.147 66.9373 136.663 69.1078C136.99 70.813 137.213 72.5301 137.331 74.2501C137.331 74.2501 137.358 78.321 136.826 80.3527C136.826 80.3527 136.149 83.5877 135.21 84.9761C135.21 84.9761 132.131 89.8802 129.958 90.7081C129.958 90.7081 124.257 93.9576 120.359 93.262C116.46 92.5665 115.193 91.5649 115.193 91.5649L111.747 88.7273C111.747 88.7273 107.892 94.37 102.059 95.2894C98.5359 95.8209 94.8679 95.1967 91.621 93.5129C91.621 93.5129 84.9619 90.3612 81.6828 82.2918C78.4036 74.2223 79.9444 68.1763 79.9444 68.1763C79.9444 68.1763 80.6786 66.2302 81.8714 67.8962C83.0642 69.5622 84.336 69.8873 84.336 69.8873C84.336 69.8873 85.9546 70.8144 90.6066 68.7609C90.6066 68.7609 97.395 65.6726 104.191 70.0257C104.191 70.0257 106.974 71.939 108.322 73.4706L108.563 73.8254L108.589 73.8777L108.645 73.8043Z"
          fill="#E8F7F3"/>
    <path d="M118.9 89.2471C125.328 91.6756 132.258 88.7244 134.379 82.6555C136.5 76.5866 133.009 69.6981 126.581 67.2697C120.153 64.8412 113.223 67.7924 111.102 73.8613C108.981 79.9302 112.472 86.8186 118.9 89.2471Z"
          fill="white"/>
    <path d="M92.5087 93.0562C98.9366 95.4846 105.867 92.5335 107.988 86.4646C110.109 80.3957 106.617 73.5072 100.189 71.0788C93.7612 68.6503 86.831 71.6015 84.7101 77.6703C82.5892 83.7392 86.0808 90.6277 92.5087 93.0562Z"
          fill="white"/>
    <path d="M100.031 75.3492C99.7695 75.3119 99.5066 75.2884 99.2437 75.2788L100.12 78.0704L99.9291 78.0645L99.8402 78.064C99.444 78.072 99.0528 78.1259 98.6747 78.2247C98.094 78.3639 97.5543 78.617 97.0874 78.9689C96.6523 79.2982 96.2949 79.7137 96.0366 80.1901C95.9098 80.4272 95.8075 80.677 95.7313 80.936C95.4885 81.7501 95.5017 82.6291 95.7693 83.4629C95.9439 84.0339 96.2328 84.571 96.6187 85.0424C96.9785 85.4831 97.4173 85.8576 97.9118 86.146C98.4016 86.4251 98.9386 86.6087 99.4911 86.6858C100.068 86.7662 100.65 86.735 101.202 86.594C101.604 86.4955 101.989 86.3467 102.347 86.1512L102.441 86.0966L102.603 86.0016L103.54 88.9866C104.144 88.6283 104.685 88.1823 105.147 87.663L105.211 87.5926C106.066 86.5958 106.616 85.3778 106.804 84.067C106.992 82.7561 106.81 81.4009 106.278 80.144C105.746 78.8871 104.884 77.7752 103.781 76.9252C102.679 76.0752 101.377 75.5187 100.014 75.3142L100.031 75.3492Z"
          fill="#90D4CC"/>
    <path d="M107.093 84.6019L108.844 93.0368L112.645 94.189L115.761 92.0306L114.012 83.5915L110.21 82.4394L107.093 84.6019Z"
          fill="#90D4CC"/>
    <path d="M100.421 80.1103C100.028 79.9975 99.615 79.9942 99.2315 80.1008C98.9346 80.1711 98.6617 80.3075 98.4337 80.4995C98.2126 80.6893 98.0376 80.9247 97.92 81.1901C97.7959 81.4618 97.7265 81.7565 97.7154 82.059C97.7012 82.3747 97.7439 82.6935 97.8417 83.0008C97.938 83.3149 98.0883 83.6133 98.286 83.883C98.4682 84.1352 98.6956 84.3543 98.9564 84.5289C99.2065 84.6948 99.4865 84.8103 99.7786 84.8679C100.086 84.927 100.399 84.9175 100.694 84.8401C100.901 84.782 101.097 84.697 101.278 84.5875C101.462 84.5006 101.629 84.385 101.774 84.245C101.837 84.1788 101.889 84.1135 101.937 84.0465L101.959 83.9838L100.795 80.2324L100.729 80.2076C100.628 80.169 100.526 80.1365 100.421 80.1103Z"
          fill="#152F56"/>
    <path d="M99.1931 75.13L100.121 78.1458L99.9299 78.1398L99.8409 78.1393C99.4445 78.1473 99.053 78.2013 98.6748 78.3001C98.0938 78.4394 97.5537 78.6926 97.0866 79.0446C96.6512 79.3742 96.2936 79.7898 96.0351 80.2665C95.9082 80.5037 95.8059 80.7536 95.7297 81.0127C95.4867 81.8272 95.4999 82.7066 95.7677 83.5408C95.9424 84.112 96.2315 84.6494 96.6176 85.121C96.9776 85.5619 97.4166 85.9366 97.9114 86.2252C98.4015 86.5045 98.9388 86.6881 99.4916 86.7652C100.069 86.8457 100.651 86.8145 101.203 86.6734C101.606 86.5749 101.991 86.426 102.349 86.2304L102.443 86.1757L102.605 86.0807L103.607 89.2665L103.499 89.3204L103.452 89.3406C103.308 89.4139 103.15 89.4821 102.988 89.5488C102.563 89.7177 102.125 89.8576 101.677 89.9673C101.363 90.0455 101.043 90.1048 100.718 90.1448L100.683 90.1316C100.011 90.2153 99.3236 90.2045 98.6433 90.0994C97.6731 89.9552 96.7319 89.6241 95.8754 89.1258C95.019 88.6274 94.2646 87.972 93.6569 87.1981C93.0367 86.4037 92.5689 85.5108 92.2778 84.5659L92.2676 84.5242C91.9566 83.5548 91.8396 82.5458 91.9234 81.5538C92.0007 80.6095 92.2622 79.6979 92.694 78.8672C93.1351 78.0288 93.7505 77.2951 94.5034 76.7102C95.3169 76.085 96.2629 75.6367 97.2827 75.3931C97.8716 75.2477 98.4767 75.1592 99.0895 75.1288L99.1931 75.13Z"
          fill="#152F56"/>
    <path d="M122.888 76.3864C122.557 75.9442 122.145 75.5636 121.675 75.2655C121.196 74.9732 120.668 74.7737 120.121 74.6786C119.533 74.5731 118.936 74.5808 118.364 74.7014C117.988 74.7731 117.623 74.888 117.279 75.0438L117.201 75.0808L117.038 75.1658L116.319 72.4471C116.101 72.5646 115.891 72.6936 115.688 72.8337C114.629 73.5496 113.806 74.5446 113.308 75.7115C112.81 76.8784 112.656 78.173 112.862 79.456C113.068 80.739 113.627 81.9617 114.479 82.9925C115.331 84.0233 116.442 84.8232 117.695 85.306L117.787 85.3407C118.459 85.589 119.16 85.7421 119.867 85.7952L119.098 82.8922L119.286 82.9065L119.393 82.9136C119.807 82.9289 120.219 82.8936 120.618 82.8086C121.168 82.7017 121.684 82.49 122.139 82.1855C122.573 81.8953 122.939 81.5199 123.214 81.0815C123.497 80.6214 123.681 80.1058 123.755 79.5648C123.828 79.0238 123.79 78.4681 123.641 77.93C123.498 77.3765 123.241 76.8513 122.888 76.3864Z"
          fill="#92D5CD"/>
    <path d="M117.911 76.8352C118.18 76.6181 118.503 76.4719 118.852 76.4097C119.145 76.3465 119.453 76.3493 119.751 76.4179C120.033 76.4839 120.301 76.6044 120.539 76.7723C120.784 76.9476 120.996 77.164 121.164 77.4105C121.342 77.678 121.471 77.972 121.544 78.2785C121.627 78.5831 121.655 78.8965 121.627 79.2045C121.602 79.4926 121.522 79.7707 121.39 80.024C121.261 80.2676 121.081 80.4798 120.86 80.6475C120.626 80.8229 120.352 80.9428 120.058 80.9981C119.851 81.0414 119.637 81.0577 119.422 81.0466C119.278 81.0391 119.135 81.0167 118.994 80.9797L117.911 76.8352Z"
          fill="#152F56"/>
    <path d="M127.155 77.2037L127.143 77.2372C127.398 78.1798 127.464 79.1522 127.337 80.0993C127.219 81.0049 126.917 81.8691 126.448 82.6423C125.628 83.9641 124.362 84.956 122.851 85.46L122.816 85.4751C122.517 85.573 122.21 85.6534 121.899 85.716C121.457 85.8063 121.006 85.8673 120.552 85.8983C120.38 85.909 120.205 85.9139 120.05 85.917L120.006 85.9005L119.883 85.8968L119.063 82.7982L119.252 82.8125L119.358 82.8196C119.773 82.8349 120.185 82.7996 120.584 82.7145C121.134 82.6076 121.651 82.3959 122.106 82.0912C122.54 81.801 122.906 81.4254 123.181 80.9868C123.465 80.5265 123.649 80.0108 123.722 79.4695C123.796 78.9283 123.757 78.3724 123.609 77.8341C123.468 77.2866 123.216 76.7666 122.869 76.3048C122.538 75.8625 122.126 75.4818 121.656 75.1835C121.177 74.8912 120.649 74.6916 120.101 74.5964C119.513 74.4909 118.916 74.4986 118.344 74.6192C117.967 74.6909 117.603 74.8059 117.258 74.9617L117.18 74.9988L117.017 75.0838L116.24 72.1438L116.346 72.0982C116.894 71.876 117.466 71.7068 118.054 71.5928C119.056 71.3783 120.104 71.3665 121.134 71.5583C122.083 71.7395 122.996 72.1021 123.819 72.6246C125.486 73.6976 126.69 75.3422 127.174 77.2061L127.155 77.2037Z"
          fill="#152F56"/>
    <defs>
        <linearGradient id="paint0_linear_659_42411" x1="0.855099" y1="27.4847" x2="63.5682" y2="77.6956"
                        gradientUnits="userSpaceOnUse">
            <stop stop-color="#355471"/>
            <stop offset="1" stop-color="#1A4064"/>
        </linearGradient>
        <linearGradient id="paint1_linear_659_42411" x1="-32087.4" y1="-4682.42" x2="-891.511" y2="18728.5"
                        gradientUnits="userSpaceOnUse">
            <stop stop-color="#3B586D"/>
            <stop offset="1" stop-color="#234D6B"/>
        </linearGradient>
        <linearGradient id="paint2_linear_659_42411" x1="59.9386" y1="74.6713" x2="5.16049" y2="20.2397"
                        gradientUnits="userSpaceOnUse">
            <stop stop-color="#4C799A"/>
            <stop offset="1" stop-color="#3B586D"/>
        </linearGradient>
        <linearGradient id="paint3_linear_659_42411" x1="-11068.6" y1="12216" x2="-4800.23" y2="18710.9"
                        gradientUnits="userSpaceOnUse">
            <stop stop-color="#48718F"/>
            <stop offset="1" stop-color="#FE7062"/>
        </linearGradient>
    </defs>
</svg>
