<svg viewBox="0 0 224 171" fill="none" xmlns="http://www.w3.org/2000/svg">
    <g clip-path="url(#clip0_659_39626)">
        <path d="M32.3533 100.46C40.1575 100.46 46.484 94.1336 46.484 86.3294C46.484 78.5253 40.1575 72.1987 32.3533 72.1987C24.5492 72.1987 18.2227 78.5253 18.2227 86.3294C18.2227 94.1336 24.5492 100.46 32.3533 100.46Z"
              fill="#C5E4EA"/>
        <path d="M61.2934 166.146H61.2791C60.7815 166.145 60.3045 165.948 59.9526 165.596C59.6008 165.244 59.4029 164.767 59.4023 164.269V54.094C59.4029 53.5964 59.6008 53.1194 59.9526 52.7676C60.3045 52.4158 60.7815 52.2178 61.2791 52.2173H154.012C154.509 52.2178 154.986 52.4157 155.338 52.7676C155.69 53.1194 155.888 53.5964 155.888 54.094V139.761C155.888 140.256 155.692 140.731 155.343 141.083C154.995 141.434 154.521 141.634 154.026 141.638L61.2934 166.146Z"
              fill="#C5E4EA"/>
        <path d="M129.836 36.6515H86.7812V11.702C86.7819 11.1751 86.9914 10.6701 87.3639 10.2975C87.7365 9.925 88.2415 9.71545 88.7684 9.71484H127.849C128.375 9.71545 128.88 9.925 129.253 10.2975C129.626 10.6701 129.835 11.1751 129.836 11.702V36.6515ZM87.2228 36.2099H129.394V11.702C129.394 11.2922 129.231 10.8994 128.941 10.6096C128.651 10.3199 128.258 10.1569 127.849 10.1564H88.7684C88.3586 10.1569 87.9658 10.3199 87.676 10.6096C87.3863 10.8994 87.2233 11.2922 87.2228 11.702V36.2099Z"
              fill="#3F3D56"/>
        <path d="M99.0317 19.209H117.578C118.047 19.209 118.496 19.3951 118.827 19.7263C119.159 20.0576 119.345 20.5069 119.345 20.9753V47.4704H97.2654V20.9753C97.2654 20.5069 97.4515 20.0576 97.7827 19.7263C98.114 19.3951 98.5633 19.209 99.0317 19.209Z"
              fill="#E6E6E6"/>
        <path d="M102.674 10.1564H93.6211V1.10396C93.6214 0.811275 93.7378 0.530672 93.9448 0.323712C94.1518 0.116752 94.4324 0.000334843 94.7251 0H101.57C101.862 0.000334843 102.143 0.116752 102.35 0.323712C102.557 0.530672 102.673 0.811275 102.674 1.10396V10.1564ZM94.0627 9.71485H102.232V1.10396C102.232 0.928346 102.162 0.75998 102.038 0.635801C101.914 0.511623 101.745 0.441776 101.57 0.441584H94.7251C94.5494 0.441776 94.3811 0.511623 94.2569 0.635801C94.1327 0.75998 94.0629 0.928346 94.0627 1.10396V9.71485Z"
              fill="#3F3D56"/>
        <path d="M177.062 143.259C176.974 143.259 176.888 143.259 176.8 143.256C171.338 143.196 166.085 141.143 162.03 137.483C161.88 137.347 161.731 137.208 161.584 137.068L161.516 137.003V94.6878L161.537 94.6431C161.683 94.3332 161.831 94.0278 161.979 93.7224C166.572 84.3984 171.928 79.2642 177.062 79.2642C184.465 79.2642 190.206 89.4192 192.97 95.4724C196.812 103.89 199.496 114.32 199.496 120.837C199.495 126.741 197.165 132.406 193.013 136.603C188.861 140.8 183.221 143.191 177.318 143.256C177.235 143.258 177.147 143.259 177.062 143.259ZM161.957 136.814C162.08 136.929 162.203 137.043 162.327 137.156C166.303 140.744 171.453 142.756 176.808 142.815C176.897 142.817 176.982 142.815 177.067 142.817C177.148 142.817 177.23 142.817 177.31 142.815C189.301 142.682 199.055 132.823 199.055 120.837C199.055 114.377 196.387 104.022 192.568 95.6558C189.848 89.6989 184.218 79.7057 177.062 79.7057C172.105 79.7057 166.89 84.7525 162.376 93.9163C162.236 94.2045 162.096 94.4937 161.957 94.7868L161.957 136.814Z"
              fill="#3F3D56"/>
        <path d="M177.063 170.029C176.995 170.029 176.931 170.002 176.883 169.955C176.835 169.907 176.809 169.843 176.809 169.775V117.918C176.808 117.885 176.815 117.851 176.828 117.82C176.84 117.789 176.859 117.761 176.882 117.738C176.906 117.714 176.934 117.695 176.965 117.682C176.996 117.669 177.029 117.663 177.063 117.663C177.096 117.663 177.129 117.669 177.16 117.682C177.191 117.695 177.219 117.714 177.243 117.738C177.266 117.761 177.285 117.789 177.298 117.82C177.31 117.851 177.317 117.885 177.317 117.918V169.775C177.317 169.843 177.29 169.907 177.242 169.955C177.195 170.002 177.13 170.029 177.063 170.029Z"
              fill="#C5E4EA"/>
        <path d="M45.2501 170.029C45.1828 170.029 45.1181 170.002 45.0705 169.955C45.0229 169.907 44.9961 169.843 44.9961 169.775V117.918C44.9959 117.885 45.0023 117.851 45.015 117.82C45.0277 117.789 45.0464 117.761 45.07 117.738C45.0936 117.714 45.1216 117.695 45.1526 117.682C45.1835 117.669 45.2166 117.663 45.2501 117.663C45.2836 117.663 45.3168 117.669 45.3477 117.682C45.3786 117.695 45.4067 117.714 45.4303 117.738C45.4539 117.761 45.4726 117.789 45.4852 117.82C45.4979 117.851 45.5043 117.885 45.5041 117.918V169.775C45.5041 169.843 45.4774 169.907 45.4297 169.955C45.3821 170.002 45.3175 170.029 45.2501 170.029Z"
              fill="#C5E4EA"/>
        <path d="M177.061 127.607C177.025 127.607 176.989 127.599 176.955 127.584C176.922 127.569 176.893 127.547 176.869 127.52L164.093 112.786C164.049 112.735 164.027 112.669 164.032 112.602C164.037 112.535 164.068 112.472 164.119 112.428C164.17 112.384 164.236 112.362 164.303 112.367C164.37 112.371 164.433 112.402 164.477 112.453L177.253 127.187C177.285 127.223 177.305 127.269 177.312 127.317C177.319 127.365 177.312 127.414 177.292 127.459C177.272 127.503 177.239 127.54 177.198 127.567C177.157 127.593 177.11 127.607 177.061 127.607Z"
              fill="#C5E4EA"/>
        <path d="M177.063 136.11C177.012 136.11 176.963 136.095 176.921 136.067C176.88 136.039 176.847 135.999 176.828 135.953C176.809 135.907 176.804 135.856 176.813 135.806C176.823 135.757 176.847 135.712 176.883 135.676L184.142 128.417C184.19 128.369 184.255 128.343 184.322 128.343C184.389 128.343 184.454 128.37 184.501 128.417C184.549 128.465 184.575 128.529 184.576 128.596C184.576 128.664 184.549 128.728 184.502 128.776L177.242 136.035C177.219 136.059 177.191 136.078 177.16 136.091C177.129 136.103 177.096 136.11 177.063 136.11Z"
              fill="#C5E4EA"/>
        <path d="M200.563 170.135H181.574V169.914C181.574 168.667 181.819 167.431 182.296 166.279C182.773 165.126 183.472 164.079 184.354 163.197C185.235 162.315 186.282 161.615 187.434 161.138C188.587 160.66 189.822 160.415 191.069 160.415C192.316 160.415 193.551 160.66 194.703 161.138C195.856 161.615 196.902 162.315 197.784 163.197C198.666 164.079 199.365 165.126 199.842 166.279C200.319 167.431 200.564 168.667 200.563 169.914L200.563 170.135ZM182.018 169.693H200.119C200.062 167.331 199.083 165.085 197.392 163.435C195.701 161.784 193.432 160.861 191.069 160.861C188.706 160.861 186.437 161.784 184.746 163.435C183.055 165.085 182.076 167.331 182.018 169.693Z"
              fill="#3F3D56"/>
        <path d="M191.071 164.525C191.005 164.525 190.941 164.551 190.894 164.598C190.847 164.645 190.821 164.709 190.821 164.776V167.438L188.227 165.212C188.202 165.19 188.173 165.174 188.142 165.164C188.11 165.153 188.077 165.149 188.044 165.152C188.012 165.154 187.979 165.163 187.95 165.178C187.921 165.193 187.894 165.213 187.873 165.238C187.851 165.263 187.835 165.292 187.825 165.324C187.815 165.355 187.811 165.388 187.813 165.421C187.816 165.454 187.825 165.486 187.84 165.515C187.855 165.545 187.875 165.571 187.9 165.592L190.821 168.099V169.663C190.821 169.696 190.827 169.729 190.84 169.759C190.852 169.79 190.871 169.817 190.894 169.841C190.917 169.864 190.945 169.883 190.975 169.895C191.006 169.908 191.038 169.914 191.071 169.914C191.104 169.914 191.137 169.908 191.167 169.895C191.198 169.883 191.226 169.864 191.249 169.841C191.272 169.817 191.291 169.79 191.303 169.759C191.316 169.729 191.322 169.696 191.322 169.663V164.776C191.322 164.709 191.296 164.645 191.249 164.598C191.202 164.551 191.138 164.525 191.071 164.525Z"
              fill="#3F3D56"/>
        <path d="M41.3721 170.135H22.3828V169.914C22.3822 168.667 22.6274 167.431 23.1042 166.279C23.5811 165.126 24.2804 164.079 25.1621 163.197C26.0438 162.315 27.0907 161.615 28.2429 161.138C29.3952 160.66 30.6302 160.415 31.8774 160.415C33.1247 160.415 34.3597 160.66 35.5119 161.138C36.6642 161.615 37.7111 162.315 38.5928 163.197C39.4745 164.079 40.1738 165.126 40.6506 166.279C41.1275 167.431 41.3727 168.667 41.3721 169.914L41.3721 170.135ZM22.827 169.693H40.9278C40.8702 167.331 39.8914 165.085 38.2004 163.435C36.5094 161.784 34.2402 160.861 31.8774 160.861C29.5146 160.861 27.2455 161.784 25.5545 163.435C23.8635 165.085 22.8847 167.331 22.827 169.693Z"
              fill="#3F3D56"/>
        <path d="M31.8799 164.525C31.8134 164.525 31.7497 164.551 31.7027 164.598C31.6557 164.645 31.6293 164.709 31.6293 164.776V167.438L29.0355 165.212C29.0105 165.19 28.9816 165.174 28.9503 165.164C28.9189 165.153 28.8859 165.149 28.853 165.152C28.8202 165.154 28.7881 165.163 28.7587 165.178C28.7292 165.193 28.703 165.213 28.6816 165.238C28.6601 165.263 28.6438 165.292 28.6335 165.324C28.6233 165.355 28.6193 165.388 28.6218 165.421C28.6244 165.454 28.6334 165.486 28.6483 165.515C28.6633 165.545 28.6839 165.571 28.7089 165.592L31.6293 168.099V169.663C31.6292 169.696 31.6356 169.729 31.6481 169.759C31.6607 169.79 31.6791 169.817 31.7024 169.841C31.7257 169.864 31.7534 169.883 31.7838 169.895C31.8143 169.908 31.8469 169.914 31.8799 169.914C31.9129 169.914 31.9456 169.908 31.976 169.895C32.0065 169.883 32.0341 169.864 32.0574 169.841C32.0807 169.817 32.0992 169.79 32.1117 169.759C32.1243 169.729 32.1307 169.696 32.1306 169.663V164.776C32.1306 164.709 32.1042 164.645 32.0572 164.598C32.0101 164.551 31.9464 164.525 31.8799 164.525Z"
              fill="#3F3D56"/>
        <path d="M45.4721 143.259C45.3841 143.259 45.2984 143.259 45.2104 143.256C39.3076 143.19 33.6691 140.799 29.5178 136.602C25.3665 132.405 23.0372 126.74 23.0352 120.837C23.0352 114.32 25.7191 103.89 29.5621 95.4724C32.3258 89.4192 38.0677 79.2642 45.4721 79.2642C48.5219 79.2642 51.593 81.0025 54.6 84.4309C54.7491 84.5999 54.8985 84.774 55.0459 84.9525L55.0964 85.0137V141.092L54.9718 141.152C54.8232 141.224 54.6725 141.292 54.5217 141.357C51.7508 142.583 48.7583 143.23 45.7283 143.256C45.6459 143.259 45.5578 143.259 45.4721 143.259ZM45.4721 79.7057C38.3147 79.7057 32.6835 89.699 29.9638 95.6558C26.1443 104.022 23.4767 114.377 23.4767 120.837C23.4767 132.821 33.23 142.68 45.2184 142.815C45.3077 142.817 45.3911 142.818 45.4779 142.817C45.5581 142.817 45.6402 142.817 45.7203 142.815C48.6921 142.789 51.6271 142.155 54.3447 140.952C54.4489 140.907 54.5523 140.861 54.6548 140.814V85.1727C54.5269 85.0192 54.3977 84.8691 54.2684 84.7224C51.3485 81.3935 48.3891 79.7057 45.4721 79.7057Z"
              fill="#3F3D56"/>
        <path d="M45.4711 127.607C45.4347 127.607 45.3987 127.599 45.3655 127.584C45.3324 127.569 45.3029 127.547 45.279 127.52L32.5032 112.786C32.4592 112.735 32.4372 112.669 32.4421 112.602C32.4469 112.535 32.4782 112.472 32.529 112.428C32.5799 112.384 32.6461 112.362 32.7132 112.367C32.7804 112.371 32.8429 112.402 32.8871 112.453L45.6629 127.187C45.6948 127.223 45.7155 127.269 45.7224 127.317C45.7293 127.365 45.7223 127.414 45.7021 127.459C45.6819 127.503 45.6493 127.54 45.6084 127.567C45.5675 127.593 45.5198 127.607 45.4711 127.607Z"
              fill="#C5E4EA"/>
        <path d="M45.4688 136.11C45.4186 136.11 45.3695 136.095 45.3277 136.067C45.286 136.039 45.2534 135.999 45.2342 135.953C45.215 135.906 45.2099 135.855 45.2197 135.806C45.2295 135.757 45.2537 135.712 45.2892 135.676L52.5487 128.416C52.5964 128.369 52.6609 128.342 52.7282 128.343C52.7954 128.343 52.8599 128.369 52.9074 128.417C52.955 128.464 52.9817 128.529 52.9818 128.596C52.9819 128.663 52.9553 128.728 52.9079 128.776L45.6485 136.035C45.6249 136.059 45.5969 136.078 45.5661 136.09C45.5352 136.103 45.5022 136.11 45.4688 136.11Z"
              fill="#C5E4EA"/>
        <path d="M65.4181 38.4179L65.5816 38.7402C65.654 38.8793 65.6918 39.0338 65.6919 39.1907V47.9119H73.4197V39.1907C73.4198 39.0338 73.4576 38.8793 73.5301 38.7402L73.6935 38.4179H65.4181ZM72.9781 39.1907V47.4704H66.1335V39.1907C66.1337 39.0791 66.1203 38.9679 66.0938 38.8595H73.0179C72.9913 38.9679 72.978 39.0791 72.9781 39.1907ZM75.133 38.4179L75.2964 38.7402C75.3688 38.8793 75.4067 39.0338 75.4068 39.1907V47.9119H83.1345V39.1907C83.1346 39.0338 83.1725 38.8793 83.2449 38.7402L83.4084 38.4179H75.133ZM82.6929 39.1907V47.4704H75.8484V39.1907C75.8485 39.0791 75.8352 38.9679 75.8086 38.8595H82.7327C82.7062 38.9679 82.6928 39.0791 82.6929 39.1907ZM84.8478 38.4179L85.0113 38.7402C85.0837 38.8793 85.1215 39.0338 85.1217 39.1907V47.9119H92.8494V39.1907C92.8495 39.0338 92.8873 38.8793 92.9598 38.7402L93.1232 38.4179H84.8478ZM92.4078 39.1907V47.4704H85.5632V39.1907C85.5634 39.0791 85.55 38.9679 85.5235 38.8595H92.4476C92.421 38.9679 92.4077 39.0791 92.4078 39.1907ZM94.5627 38.4179L94.7261 38.7402C94.7985 38.8793 94.8364 39.0338 94.8365 39.1907V47.9119H102.564V39.1907C102.564 39.0338 102.602 38.8793 102.675 38.7402L102.838 38.4179H94.5627ZM102.123 39.1907V47.4704H95.2781V39.1907C95.2782 39.0791 95.2649 38.9679 95.2383 38.8595H102.162C102.136 38.9679 102.123 39.0791 102.123 39.1907ZM104.278 38.4179L104.441 38.7402C104.513 38.8793 104.551 39.0338 104.551 39.1907V47.9119H112.279V39.1907C112.279 39.0338 112.317 38.8793 112.389 38.7402L112.553 38.4179H104.278ZM111.838 39.1907V47.4704H104.993V39.1907C104.993 39.0791 104.98 38.9679 104.953 38.8595H111.877C111.851 38.9679 111.837 39.0791 111.838 39.1907ZM113.992 38.4179L114.156 38.7402C114.228 38.8793 114.266 39.0338 114.266 39.1907V47.9119H121.994V39.1907C121.994 39.0338 122.032 38.8793 122.104 38.7402L122.268 38.4179H113.992ZM121.552 39.1907V47.4704H114.708V39.1907C114.708 39.0791 114.695 38.9679 114.668 38.8595H121.592C121.566 38.9679 121.552 39.0791 121.552 39.1907ZM123.707 38.4179L123.871 38.7402C123.943 38.8793 123.981 39.0338 123.981 39.1907V47.9119H131.709V39.1907C131.709 39.0338 131.747 38.8793 131.819 38.7402L131.983 38.4179H123.707ZM131.267 39.1907V47.4704H124.423V39.1907C124.423 39.0791 124.409 38.9679 124.383 38.8595H131.307C131.28 38.9679 131.267 39.0791 131.267 39.1907ZM133.422 38.4179L133.586 38.7402C133.658 38.8793 133.696 39.0338 133.696 39.1907V47.9119H141.424V39.1907C141.424 39.0338 141.462 38.8793 141.534 38.7402L141.697 38.4179H133.422ZM140.982 39.1907V47.4704H134.138V39.1907C134.138 39.0791 134.124 38.9679 134.098 38.8595H141.022C140.995 38.9679 140.982 39.0791 140.982 39.1907ZM143.137 38.4179L143.3 38.7402C143.373 38.8793 143.411 39.0338 143.411 39.1907V47.9119H151.138V39.1907C151.139 39.0338 151.176 38.8793 151.249 38.7402L151.412 38.4179H143.137ZM150.697 39.1907V47.4704H143.852V39.1907C143.852 39.0791 143.839 38.9679 143.813 38.8595H150.737C150.71 38.9679 150.697 39.0791 150.697 39.1907ZM143.137 38.4179L143.3 38.7402C143.373 38.8793 143.411 39.0338 143.411 39.1907V47.9119H151.138V39.1907C151.139 39.0338 151.176 38.8793 151.249 38.7402L151.412 38.4179H143.137ZM150.697 39.1907V47.4704H143.852V39.1907C143.852 39.0791 143.839 38.9679 143.813 38.8595H150.737C150.71 38.9679 150.697 39.0791 150.697 39.1907ZM133.422 38.4179L133.586 38.7402C133.658 38.8793 133.696 39.0338 133.696 39.1907V47.9119H141.424V39.1907C141.424 39.0338 141.462 38.8793 141.534 38.7402L141.697 38.4179H133.422ZM140.982 39.1907V47.4704H134.138V39.1907C134.138 39.0791 134.124 38.9679 134.098 38.8595H141.022C140.995 38.9679 140.982 39.0791 140.982 39.1907ZM123.707 38.4179L123.871 38.7402C123.943 38.8793 123.981 39.0338 123.981 39.1907V47.9119H131.709V39.1907C131.709 39.0338 131.747 38.8793 131.819 38.7402L131.983 38.4179H123.707ZM131.267 39.1907V47.4704H124.423V39.1907C124.423 39.0791 124.409 38.9679 124.383 38.8595H131.307C131.28 38.9679 131.267 39.0791 131.267 39.1907ZM113.992 38.4179L114.156 38.7402C114.228 38.8793 114.266 39.0338 114.266 39.1907V47.9119H121.994V39.1907C121.994 39.0338 122.032 38.8793 122.104 38.7402L122.268 38.4179H113.992ZM121.552 39.1907V47.4704H114.708V39.1907C114.708 39.0791 114.695 38.9679 114.668 38.8595H121.592C121.566 38.9679 121.552 39.0791 121.552 39.1907ZM104.278 38.4179L104.441 38.7402C104.513 38.8793 104.551 39.0338 104.551 39.1907V47.9119H112.279V39.1907C112.279 39.0338 112.317 38.8793 112.389 38.7402L112.553 38.4179H104.278ZM111.838 39.1907V47.4704H104.993V39.1907C104.993 39.0791 104.98 38.9679 104.953 38.8595H111.877C111.851 38.9679 111.837 39.0791 111.838 39.1907ZM94.5627 38.4179L94.7261 38.7402C94.7985 38.8793 94.8364 39.0338 94.8365 39.1907V47.9119H102.564V39.1907C102.564 39.0338 102.602 38.8793 102.675 38.7402L102.838 38.4179H94.5627ZM102.123 39.1907V47.4704H95.2781V39.1907C95.2782 39.0791 95.2649 38.9679 95.2383 38.8595H102.162C102.136 38.9679 102.123 39.0791 102.123 39.1907ZM84.8478 38.4179L85.0113 38.7402C85.0837 38.8793 85.1215 39.0338 85.1217 39.1907V47.9119H92.8494V39.1907C92.8495 39.0338 92.8873 38.8793 92.9598 38.7402L93.1232 38.4179H84.8478ZM92.4078 39.1907V47.4704H85.5632V39.1907C85.5634 39.0791 85.55 38.9679 85.5235 38.8595H92.4476C92.421 38.9679 92.4077 39.0791 92.4078 39.1907ZM75.133 38.4179L75.2964 38.7402C75.3688 38.8793 75.4067 39.0338 75.4068 39.1907V47.9119H83.1345V39.1907C83.1346 39.0338 83.1725 38.8793 83.2449 38.7402L83.4084 38.4179H75.133ZM82.6929 39.1907V47.4704H75.8484V39.1907C75.8485 39.0791 75.8352 38.9679 75.8086 38.8595H82.7327C82.7062 38.9679 82.6928 39.0791 82.6929 39.1907ZM65.4181 38.4179L65.5816 38.7402C65.654 38.8793 65.6918 39.0338 65.6919 39.1907V47.9119H73.4197V39.1907C73.4198 39.0338 73.4576 38.8793 73.5301 38.7402L73.6935 38.4179H65.4181ZM72.9781 39.1907V47.4704H66.1335V39.1907C66.1337 39.0791 66.1203 38.9679 66.0938 38.8595H73.0179C72.9913 38.9679 72.978 39.0791 72.9781 39.1907ZM143.137 38.4179L143.3 38.7402C143.373 38.8793 143.411 39.0338 143.411 39.1907V47.9119H151.138V39.1907C151.139 39.0338 151.176 38.8793 151.249 38.7402L151.412 38.4179H143.137ZM150.697 39.1907V47.4704H143.852V39.1907C143.852 39.0791 143.839 38.9679 143.813 38.8595H150.737C150.71 38.9679 150.697 39.0791 150.697 39.1907ZM133.422 38.4179L133.586 38.7402C133.658 38.8793 133.696 39.0338 133.696 39.1907V47.9119H141.424V39.1907C141.424 39.0338 141.462 38.8793 141.534 38.7402L141.697 38.4179H133.422ZM140.982 39.1907V47.4704H134.138V39.1907C134.138 39.0791 134.124 38.9679 134.098 38.8595H141.022C140.995 38.9679 140.982 39.0791 140.982 39.1907ZM123.707 38.4179L123.871 38.7402C123.943 38.8793 123.981 39.0338 123.981 39.1907V47.9119H131.709V39.1907C131.709 39.0338 131.747 38.8793 131.819 38.7402L131.983 38.4179H123.707ZM131.267 39.1907V47.4704H124.423V39.1907C124.423 39.0791 124.409 38.9679 124.383 38.8595H131.307C131.28 38.9679 131.267 39.0791 131.267 39.1907ZM113.992 38.4179L114.156 38.7402C114.228 38.8793 114.266 39.0338 114.266 39.1907V47.9119H121.994V39.1907C121.994 39.0338 122.032 38.8793 122.104 38.7402L122.268 38.4179H113.992ZM121.552 39.1907V47.4704H114.708V39.1907C114.708 39.0791 114.695 38.9679 114.668 38.8595H121.592C121.566 38.9679 121.552 39.0791 121.552 39.1907ZM104.278 38.4179L104.441 38.7402C104.513 38.8793 104.551 39.0338 104.551 39.1907V47.9119H112.279V39.1907C112.279 39.0338 112.317 38.8793 112.389 38.7402L112.553 38.4179H104.278ZM111.838 39.1907V47.4704H104.993V39.1907C104.993 39.0791 104.98 38.9679 104.953 38.8595H111.877C111.851 38.9679 111.837 39.0791 111.838 39.1907ZM94.5627 38.4179L94.7261 38.7402C94.7985 38.8793 94.8364 39.0338 94.8365 39.1907V47.9119H102.564V39.1907C102.564 39.0338 102.602 38.8793 102.675 38.7402L102.838 38.4179H94.5627ZM102.123 39.1907V47.4704H95.2781V39.1907C95.2782 39.0791 95.2649 38.9679 95.2383 38.8595H102.162C102.136 38.9679 102.123 39.0791 102.123 39.1907ZM84.8478 38.4179L85.0113 38.7402C85.0837 38.8793 85.1215 39.0338 85.1217 39.1907V47.9119H92.8494V39.1907C92.8495 39.0338 92.8873 38.8793 92.9598 38.7402L93.1232 38.4179H84.8478ZM92.4078 39.1907V47.4704H85.5632V39.1907C85.5634 39.0791 85.55 38.9679 85.5235 38.8595H92.4476C92.421 38.9679 92.4077 39.0791 92.4078 39.1907ZM75.133 38.4179L75.2964 38.7402C75.3688 38.8793 75.4067 39.0338 75.4068 39.1907V47.9119H83.1345V39.1907C83.1346 39.0338 83.1725 38.8793 83.2449 38.7402L83.4084 38.4179H75.133ZM82.6929 39.1907V47.4704H75.8484V39.1907C75.8485 39.0791 75.8352 38.9679 75.8086 38.8595H82.7327C82.7062 38.9679 82.6928 39.0791 82.6929 39.1907ZM65.4181 38.4179L65.5816 38.7402C65.654 38.8793 65.6918 39.0338 65.6919 39.1907V47.9119H73.4197V39.1907C73.4198 39.0338 73.4576 38.8793 73.5301 38.7402L73.6935 38.4179H65.4181ZM72.9781 39.1907V47.4704H66.1335V39.1907C66.1337 39.0791 66.1203 38.9679 66.0938 38.8595H73.0179C72.9913 38.9679 72.978 39.0791 72.9781 39.1907ZM143.137 38.4179L143.3 38.7402C143.373 38.8793 143.411 39.0338 143.411 39.1907V47.9119H151.138V39.1907C151.139 39.0338 151.176 38.8793 151.249 38.7402L151.412 38.4179H143.137ZM150.697 39.1907V47.4704H143.852V39.1907C143.852 39.0791 143.839 38.9679 143.813 38.8595H150.737C150.71 38.9679 150.697 39.0791 150.697 39.1907ZM133.422 38.4179L133.586 38.7402C133.658 38.8793 133.696 39.0338 133.696 39.1907V47.9119H141.424V39.1907C141.424 39.0338 141.462 38.8793 141.534 38.7402L141.697 38.4179H133.422ZM140.982 39.1907V47.4704H134.138V39.1907C134.138 39.0791 134.124 38.9679 134.098 38.8595H141.022C140.995 38.9679 140.982 39.0791 140.982 39.1907ZM123.707 38.4179L123.871 38.7402C123.943 38.8793 123.981 39.0338 123.981 39.1907V47.9119H131.709V39.1907C131.709 39.0338 131.747 38.8793 131.819 38.7402L131.983 38.4179H123.707ZM131.267 39.1907V47.4704H124.423V39.1907C124.423 39.0791 124.409 38.9679 124.383 38.8595H131.307C131.28 38.9679 131.267 39.0791 131.267 39.1907ZM113.992 38.4179L114.156 38.7402C114.228 38.8793 114.266 39.0338 114.266 39.1907V47.9119H121.994V39.1907C121.994 39.0338 122.032 38.8793 122.104 38.7402L122.268 38.4179H113.992ZM121.552 39.1907V47.4704H114.708V39.1907C114.708 39.0791 114.695 38.9679 114.668 38.8595H121.592C121.566 38.9679 121.552 39.0791 121.552 39.1907ZM104.278 38.4179L104.441 38.7402C104.513 38.8793 104.551 39.0338 104.551 39.1907V47.9119H112.279V39.1907C112.279 39.0338 112.317 38.8793 112.389 38.7402L112.553 38.4179H104.278ZM111.838 39.1907V47.4704H104.993V39.1907C104.993 39.0791 104.98 38.9679 104.953 38.8595H111.877C111.851 38.9679 111.837 39.0791 111.838 39.1907ZM94.5627 38.4179L94.7261 38.7402C94.7985 38.8793 94.8364 39.0338 94.8365 39.1907V47.9119H102.564V39.1907C102.564 39.0338 102.602 38.8793 102.675 38.7402L102.838 38.4179H94.5627ZM102.123 39.1907V47.4704H95.2781V39.1907C95.2782 39.0791 95.2649 38.9679 95.2383 38.8595H102.162C102.136 38.9679 102.123 39.0791 102.123 39.1907ZM84.8478 38.4179L85.0113 38.7402C85.0837 38.8793 85.1215 39.0338 85.1217 39.1907V47.9119H92.8494V39.1907C92.8495 39.0338 92.8873 38.8793 92.9598 38.7402L93.1232 38.4179H84.8478ZM92.4078 39.1907V47.4704H85.5632V39.1907C85.5634 39.0791 85.55 38.9679 85.5235 38.8595H92.4476C92.421 38.9679 92.4077 39.0791 92.4078 39.1907ZM75.133 38.4179L75.2964 38.7402C75.3688 38.8793 75.4067 39.0338 75.4068 39.1907V47.9119H83.1345V39.1907C83.1346 39.0338 83.1725 38.8793 83.2449 38.7402L83.4084 38.4179H75.133ZM82.6929 39.1907V47.4704H75.8484V39.1907C75.8485 39.0791 75.8352 38.9679 75.8086 38.8595H82.7327C82.7062 38.9679 82.6928 39.0791 82.6929 39.1907ZM65.4181 38.4179L65.5816 38.7402C65.654 38.8793 65.6918 39.0338 65.6919 39.1907V47.9119H73.4197V39.1907C73.4198 39.0338 73.4576 38.8793 73.5301 38.7402L73.6935 38.4179H65.4181ZM72.9781 39.1907V47.4704H66.1335V39.1907C66.1337 39.0791 66.1203 38.9679 66.0938 38.8595H73.0179C72.9913 38.9679 72.978 39.0791 72.9781 39.1907ZM143.137 38.4179L143.3 38.7402C143.373 38.8793 143.411 39.0338 143.411 39.1907V47.9119H151.138V39.1907C151.139 39.0338 151.176 38.8793 151.249 38.7402L151.412 38.4179H143.137ZM150.697 39.1907V47.4704H143.852V39.1907C143.852 39.0791 143.839 38.9679 143.813 38.8595H150.737C150.71 38.9679 150.697 39.0791 150.697 39.1907ZM133.422 38.4179L133.586 38.7402C133.658 38.8793 133.696 39.0338 133.696 39.1907V47.9119H141.424V39.1907C141.424 39.0338 141.462 38.8793 141.534 38.7402L141.697 38.4179H133.422ZM140.982 39.1907V47.4704H134.138V39.1907C134.138 39.0791 134.124 38.9679 134.098 38.8595H141.022C140.995 38.9679 140.982 39.0791 140.982 39.1907ZM123.707 38.4179L123.871 38.7402C123.943 38.8793 123.981 39.0338 123.981 39.1907V47.9119H131.709V39.1907C131.709 39.0338 131.747 38.8793 131.819 38.7402L131.983 38.4179H123.707ZM131.267 39.1907V47.4704H124.423V39.1907C124.423 39.0791 124.409 38.9679 124.383 38.8595H131.307C131.28 38.9679 131.267 39.0791 131.267 39.1907ZM113.992 38.4179L114.156 38.7402C114.228 38.8793 114.266 39.0338 114.266 39.1907V47.9119H121.994V39.1907C121.994 39.0338 122.032 38.8793 122.104 38.7402L122.268 38.4179H113.992ZM121.552 39.1907V47.4704H114.708V39.1907C114.708 39.0791 114.695 38.9679 114.668 38.8595H121.592C121.566 38.9679 121.552 39.0791 121.552 39.1907ZM104.278 38.4179L104.441 38.7402C104.513 38.8793 104.551 39.0338 104.551 39.1907V47.9119H112.279V39.1907C112.279 39.0338 112.317 38.8793 112.389 38.7402L112.553 38.4179H104.278ZM111.838 39.1907V47.4704H104.993V39.1907C104.993 39.0791 104.98 38.9679 104.953 38.8595H111.877C111.851 38.9679 111.837 39.0791 111.838 39.1907ZM94.5627 38.4179L94.7261 38.7402C94.7985 38.8793 94.8364 39.0338 94.8365 39.1907V47.9119H102.564V39.1907C102.564 39.0338 102.602 38.8793 102.675 38.7402L102.838 38.4179H94.5627ZM102.123 39.1907V47.4704H95.2781V39.1907C95.2782 39.0791 95.2649 38.9679 95.2383 38.8595H102.162C102.136 38.9679 102.123 39.0791 102.123 39.1907ZM84.8478 38.4179L85.0113 38.7402C85.0837 38.8793 85.1215 39.0338 85.1217 39.1907V47.9119H92.8494V39.1907C92.8495 39.0338 92.8873 38.8793 92.9598 38.7402L93.1232 38.4179H84.8478ZM92.4078 39.1907V47.4704H85.5632V39.1907C85.5634 39.0791 85.55 38.9679 85.5235 38.8595H92.4476C92.421 38.9679 92.4077 39.0791 92.4078 39.1907ZM75.133 38.4179L75.2964 38.7402C75.3688 38.8793 75.4067 39.0338 75.4068 39.1907V47.9119H83.1345V39.1907C83.1346 39.0338 83.1725 38.8793 83.2449 38.7402L83.4084 38.4179H75.133ZM82.6929 39.1907V47.4704H75.8484V39.1907C75.8485 39.0791 75.8352 38.9679 75.8086 38.8595H82.7327C82.7062 38.9679 82.6928 39.0791 82.6929 39.1907ZM65.4181 38.4179L65.5816 38.7402C65.654 38.8793 65.6918 39.0338 65.6919 39.1907V47.9119H73.4197V39.1907C73.4198 39.0338 73.4576 38.8793 73.5301 38.7402L73.6935 38.4179H65.4181ZM72.9781 39.1907V47.4704H66.1335V39.1907C66.1337 39.0791 66.1203 38.9679 66.0938 38.8595H73.0179C72.9913 38.9679 72.978 39.0791 72.9781 39.1907ZM143.137 38.4179L143.3 38.7402C143.373 38.8793 143.411 39.0338 143.411 39.1907V47.9119H151.138V39.1907C151.139 39.0338 151.176 38.8793 151.249 38.7402L151.412 38.4179H143.137ZM150.697 39.1907V47.4704H143.852V39.1907C143.852 39.0791 143.839 38.9679 143.813 38.8595H150.737C150.71 38.9679 150.697 39.0791 150.697 39.1907ZM133.586 38.7402C133.658 38.8793 133.696 39.0338 133.696 39.1907V47.9119H141.424V39.1907C141.424 39.0338 141.462 38.8793 141.534 38.7402L141.697 38.4179H133.422L133.586 38.7402ZM141.022 38.8595C140.995 38.9679 140.982 39.0791 140.982 39.1907V47.4704H134.138V39.1907C134.138 39.0791 134.124 38.9679 134.098 38.8595H141.022ZM123.871 38.7402C123.943 38.8793 123.981 39.0338 123.981 39.1907V47.9119H131.709V39.1907C131.709 39.0338 131.747 38.8793 131.819 38.7402L131.983 38.4179H123.707L123.871 38.7402ZM131.307 38.8595C131.28 38.9679 131.267 39.0791 131.267 39.1907V47.4704H124.423V39.1907C124.423 39.0791 124.409 38.9679 124.383 38.8595H131.307ZM114.156 38.7402C114.228 38.8793 114.266 39.0338 114.266 39.1907V47.9119H121.994V39.1907C121.994 39.0338 122.032 38.8793 122.104 38.7402L122.268 38.4179H113.992L114.156 38.7402ZM121.592 38.8595C121.566 38.9679 121.552 39.0791 121.552 39.1907V47.4704H114.708V39.1907C114.708 39.0791 114.695 38.9679 114.668 38.8595H121.592ZM104.441 38.7402C104.513 38.8793 104.551 39.0338 104.551 39.1907V47.9119H112.279V39.1907C112.279 39.0338 112.317 38.8793 112.389 38.7402L112.553 38.4179H104.278L104.441 38.7402ZM111.877 38.8595C111.851 38.9679 111.837 39.0791 111.838 39.1907V47.4704H104.993V39.1907C104.993 39.0791 104.98 38.9679 104.953 38.8595H111.877ZM94.7261 38.7402C94.7985 38.8793 94.8364 39.0338 94.8365 39.1907V47.9119H102.564V39.1907C102.564 39.0338 102.602 38.8793 102.675 38.7402L102.838 38.4179H94.5627L94.7261 38.7402ZM102.162 38.8595C102.136 38.9679 102.123 39.0791 102.123 39.1907V47.4704H95.2781V39.1907C95.2782 39.0791 95.2649 38.9679 95.2383 38.8595H102.162ZM85.0113 38.7402C85.0837 38.8793 85.1215 39.0338 85.1217 39.1907V47.9119H92.8494V39.1907C92.8495 39.0338 92.8873 38.8793 92.9598 38.7402L93.1232 38.4179H84.8478L85.0113 38.7402ZM92.4476 38.8595C92.421 38.9679 92.4077 39.0791 92.4078 39.1907V47.4704H85.5632V39.1907C85.5634 39.0791 85.55 38.9679 85.5235 38.8595H92.4476ZM75.2964 38.7402C75.3688 38.8793 75.4067 39.0338 75.4068 39.1907V47.9119H83.1345V39.1907C83.1346 39.0338 83.1725 38.8793 83.2449 38.7402L83.4084 38.4179H75.133L75.2964 38.7402ZM82.7327 38.8595C82.7062 38.9679 82.6928 39.0791 82.6929 39.1907V47.4704H75.8484V39.1907C75.8485 39.0791 75.8352 38.9679 75.8086 38.8595H82.7327ZM65.5816 38.7402C65.654 38.8793 65.6918 39.0338 65.6919 39.1907V47.9119H73.4197V39.1907C73.4198 39.0338 73.4576 38.8793 73.5301 38.7402L73.6935 38.4179H65.4181L65.5816 38.7402ZM73.0179 38.8595C72.9913 38.9679 72.978 39.0791 72.9781 39.1907V47.4704H66.1335V39.1907C66.1337 39.0791 66.1203 38.9679 66.0938 38.8595H73.0179ZM143.3 38.7402C143.373 38.8793 143.411 39.0338 143.411 39.1907V47.9119H151.138V39.1907C151.139 39.0338 151.176 38.8793 151.249 38.7402L151.412 38.4179H143.137L143.3 38.7402ZM150.737 38.8595C150.71 38.9679 150.697 39.0791 150.697 39.1907V47.4704H143.852V39.1907C143.852 39.0791 143.839 38.9679 143.813 38.8595H150.737ZM133.586 38.7402C133.658 38.8793 133.696 39.0338 133.696 39.1907V47.9119H141.424V39.1907C141.424 39.0338 141.462 38.8793 141.534 38.7402L141.697 38.4179H133.422L133.586 38.7402ZM141.022 38.8595C140.995 38.9679 140.982 39.0791 140.982 39.1907V47.4704H134.138V39.1907C134.138 39.0791 134.124 38.9679 134.098 38.8595H141.022ZM123.871 38.7402C123.943 38.8793 123.981 39.0338 123.981 39.1907V47.9119H131.709V39.1907C131.709 39.0338 131.747 38.8793 131.819 38.7402L131.983 38.4179H123.707L123.871 38.7402ZM131.307 38.8595C131.28 38.9679 131.267 39.0791 131.267 39.1907V47.4704H124.423V39.1907C124.423 39.0791 124.409 38.9679 124.383 38.8595H131.307ZM114.156 38.7402C114.228 38.8793 114.266 39.0338 114.266 39.1907V47.9119H121.994V39.1907C121.994 39.0338 122.032 38.8793 122.104 38.7402L122.268 38.4179H113.992L114.156 38.7402ZM121.592 38.8595C121.566 38.9679 121.552 39.0791 121.552 39.1907V47.4704H114.708V39.1907C114.708 39.0791 114.695 38.9679 114.668 38.8595H121.592ZM104.441 38.7402C104.513 38.8793 104.551 39.0338 104.551 39.1907V47.9119H112.279V39.1907C112.279 39.0338 112.317 38.8793 112.389 38.7402L112.553 38.4179H104.278L104.441 38.7402ZM111.877 38.8595C111.851 38.9679 111.837 39.0791 111.838 39.1907V47.4704H104.993V39.1907C104.993 39.0791 104.98 38.9679 104.953 38.8595H111.877ZM94.7261 38.7402C94.7985 38.8793 94.8364 39.0338 94.8365 39.1907V47.9119H102.564V39.1907C102.564 39.0338 102.602 38.8793 102.675 38.7402L102.838 38.4179H94.5627L94.7261 38.7402ZM102.162 38.8595C102.136 38.9679 102.123 39.0791 102.123 39.1907V47.4704H95.2781V39.1907C95.2782 39.0791 95.2649 38.9679 95.2383 38.8595H102.162ZM85.0113 38.7402C85.0837 38.8793 85.1215 39.0338 85.1217 39.1907V47.9119H92.8494V39.1907C92.8495 39.0338 92.8873 38.8793 92.9598 38.7402L93.1232 38.4179H84.8478L85.0113 38.7402ZM92.4476 38.8595C92.421 38.9679 92.4077 39.0791 92.4078 39.1907V47.4704H85.5632V39.1907C85.5634 39.0791 85.55 38.9679 85.5235 38.8595H92.4476ZM75.2964 38.7402C75.3688 38.8793 75.4067 39.0338 75.4068 39.1907V47.9119H83.1345V39.1907C83.1346 39.0338 83.1725 38.8793 83.2449 38.7402L83.4084 38.4179H75.133L75.2964 38.7402ZM82.7327 38.8595C82.7062 38.9679 82.6928 39.0791 82.6929 39.1907V47.4704H75.8484V39.1907C75.8485 39.0791 75.8352 38.9679 75.8086 38.8595H82.7327ZM65.5816 38.7402C65.654 38.8793 65.6918 39.0338 65.6919 39.1907V47.9119H73.4197V39.1907C73.4198 39.0338 73.4576 38.8793 73.5301 38.7402L73.6935 38.4179H65.4181L65.5816 38.7402ZM73.0179 38.8595C72.9913 38.9679 72.978 39.0791 72.9781 39.1907V47.4704H66.1335V39.1907C66.1337 39.0791 66.1203 38.9679 66.0938 38.8595H73.0179ZM159.97 49.2367H157.338C157.193 48.7288 156.887 48.2818 156.465 47.9632C156.044 47.6446 155.531 47.4716 155.002 47.4704H153.567V39.1907C153.568 39.0129 153.534 38.8367 153.468 38.6718C153.718 38.5245 153.913 38.2989 154.022 38.0299C154.131 37.7609 154.149 37.4635 154.072 37.1834C153.996 36.9034 153.829 36.6563 153.598 36.4804C153.367 36.3045 153.085 36.2094 152.794 36.21H64.036C63.7457 36.2094 63.4633 36.3045 63.2323 36.4804C63.0014 36.6563 62.8347 36.9034 62.7581 37.1834C62.6815 37.4635 62.6992 37.7609 62.8085 38.0299C62.9177 38.2989 63.1125 38.5245 63.3626 38.6718C63.2964 38.8367 63.2627 39.0129 63.2632 39.1907V47.4704H61.8281C61.2998 47.4716 60.7863 47.6446 60.365 47.9632C59.9436 48.2818 59.6372 48.7288 59.4921 49.2367H56.6395C56.1127 49.2375 55.6077 49.4471 55.2352 49.8196C54.8628 50.1921 54.6531 50.697 54.6523 51.2238V167.802C54.6535 168.329 54.8632 168.833 55.2356 169.206C55.608 169.578 56.1128 169.788 56.6395 169.789H159.97C160.497 169.788 161.002 169.579 161.374 169.206C161.747 168.834 161.957 168.329 161.957 167.802V51.2238C161.957 50.697 161.747 50.1921 161.374 49.8196C161.002 49.4471 160.497 49.2375 159.97 49.2367ZM161.516 167.802C161.515 168.118 161.418 168.425 161.238 168.684C161.058 168.943 160.803 169.141 160.507 169.25C160.335 169.316 160.153 169.349 159.97 169.348H56.6395C56.4562 169.349 56.2742 169.316 56.1029 169.25C55.8071 169.141 55.5519 168.943 55.3715 168.684C55.1912 168.425 55.0943 168.118 55.0939 167.802V51.2238C55.0944 50.8141 55.2574 50.4212 55.5471 50.1315C55.8369 49.8417 56.2297 49.6787 56.6395 49.6783H59.8454L59.8807 49.5016C59.9736 49.0534 60.2178 48.6508 60.5724 48.3613C60.927 48.0718 61.3703 47.9132 61.8281 47.9119H63.7048V39.1907C63.7049 39.011 63.7537 38.8347 63.8462 38.6806L63.983 38.4532L63.7335 38.3605C63.5385 38.2898 63.3747 38.1526 63.271 37.973C63.1672 37.7935 63.1302 37.583 63.1663 37.3788C63.2025 37.1746 63.3095 36.9897 63.4686 36.8567C63.6277 36.7236 63.8286 36.651 64.036 36.6515H152.794C153.002 36.651 153.203 36.7236 153.362 36.8567C153.521 36.9897 153.628 37.1746 153.664 37.3788C153.7 37.583 153.663 37.7935 153.559 37.973C153.456 38.1526 153.292 38.2898 153.097 38.3605L152.847 38.4532L152.984 38.6806C153.077 38.8347 153.126 39.011 153.126 39.1907V47.9119H155.002C155.46 47.9132 155.903 48.0718 156.258 48.3613C156.613 48.6508 156.857 49.0534 156.95 49.5016L156.985 49.6783H159.97C160.38 49.6787 160.773 49.8417 161.063 50.1315C161.352 50.4212 161.515 50.8141 161.516 51.2238L161.516 167.802ZM65.4181 38.4179L65.5816 38.7402C65.654 38.8793 65.6918 39.0338 65.6919 39.1907V47.9119H73.4197V39.1907C73.4198 39.0338 73.4576 38.8793 73.5301 38.7402L73.6935 38.4179H65.4181ZM72.9781 39.1907V47.4704H66.1335V39.1907C66.1337 39.0791 66.1203 38.9679 66.0938 38.8595H73.0179C72.9913 38.9679 72.978 39.0791 72.9781 39.1907ZM75.133 38.4179L75.2964 38.7402C75.3688 38.8793 75.4067 39.0338 75.4068 39.1907V47.9119H83.1345V39.1907C83.1346 39.0338 83.1725 38.8793 83.2449 38.7402L83.4084 38.4179H75.133ZM82.6929 39.1907V47.4704H75.8484V39.1907C75.8485 39.0791 75.8352 38.9679 75.8086 38.8595H82.7327C82.7062 38.9679 82.6928 39.0791 82.6929 39.1907ZM84.8478 38.4179L85.0113 38.7402C85.0837 38.8793 85.1215 39.0338 85.1217 39.1907V47.9119H92.8494V39.1907C92.8495 39.0338 92.8873 38.8793 92.9598 38.7402L93.1232 38.4179H84.8478ZM92.4078 39.1907V47.4704H85.5632V39.1907C85.5634 39.0791 85.55 38.9679 85.5235 38.8595H92.4476C92.421 38.9679 92.4077 39.0791 92.4078 39.1907ZM94.5627 38.4179L94.7261 38.7402C94.7985 38.8793 94.8364 39.0338 94.8365 39.1907V47.9119H102.564V39.1907C102.564 39.0338 102.602 38.8793 102.675 38.7402L102.838 38.4179H94.5627ZM102.123 39.1907V47.4704H95.2781V39.1907C95.2782 39.0791 95.2649 38.9679 95.2383 38.8595H102.162C102.136 38.9679 102.123 39.0791 102.123 39.1907ZM104.278 38.4179L104.441 38.7402C104.513 38.8793 104.551 39.0338 104.551 39.1907V47.9119H112.279V39.1907C112.279 39.0338 112.317 38.8793 112.389 38.7402L112.553 38.4179H104.278ZM111.838 39.1907V47.4704H104.993V39.1907C104.993 39.0791 104.98 38.9679 104.953 38.8595H111.877C111.851 38.9679 111.837 39.0791 111.838 39.1907ZM113.992 38.4179L114.156 38.7402C114.228 38.8793 114.266 39.0338 114.266 39.1907V47.9119H121.994V39.1907C121.994 39.0338 122.032 38.8793 122.104 38.7402L122.268 38.4179H113.992ZM121.552 39.1907V47.4704H114.708V39.1907C114.708 39.0791 114.695 38.9679 114.668 38.8595H121.592C121.566 38.9679 121.552 39.0791 121.552 39.1907ZM123.707 38.4179L123.871 38.7402C123.943 38.8793 123.981 39.0338 123.981 39.1907V47.9119H131.709V39.1907C131.709 39.0338 131.747 38.8793 131.819 38.7402L131.983 38.4179H123.707ZM131.267 39.1907V47.4704H124.423V39.1907C124.423 39.0791 124.409 38.9679 124.383 38.8595H131.307C131.28 38.9679 131.267 39.0791 131.267 39.1907ZM133.422 38.4179L133.586 38.7402C133.658 38.8793 133.696 39.0338 133.696 39.1907V47.9119H141.424V39.1907C141.424 39.0338 141.462 38.8793 141.534 38.7402L141.697 38.4179H133.422ZM140.982 39.1907V47.4704H134.138V39.1907C134.138 39.0791 134.124 38.9679 134.098 38.8595H141.022C140.995 38.9679 140.982 39.0791 140.982 39.1907ZM143.137 38.4179L143.3 38.7402C143.373 38.8793 143.411 39.0338 143.411 39.1907V47.9119H151.138V39.1907C151.139 39.0338 151.176 38.8793 151.249 38.7402L151.412 38.4179H143.137ZM150.697 39.1907V47.4704H143.852V39.1907C143.852 39.0791 143.839 38.9679 143.813 38.8595H150.737C150.71 38.9679 150.697 39.0791 150.697 39.1907ZM65.4181 38.4179L65.5816 38.7402C65.654 38.8793 65.6918 39.0338 65.6919 39.1907V47.9119H73.4197V39.1907C73.4198 39.0338 73.4576 38.8793 73.5301 38.7402L73.6935 38.4179H65.4181ZM72.9781 39.1907V47.4704H66.1335V39.1907C66.1337 39.0791 66.1203 38.9679 66.0938 38.8595H73.0179C72.9913 38.9679 72.978 39.0791 72.9781 39.1907ZM75.133 38.4179L75.2964 38.7402C75.3688 38.8793 75.4067 39.0338 75.4068 39.1907V47.9119H83.1345V39.1907C83.1346 39.0338 83.1725 38.8793 83.2449 38.7402L83.4084 38.4179H75.133ZM82.6929 39.1907V47.4704H75.8484V39.1907C75.8485 39.0791 75.8352 38.9679 75.8086 38.8595H82.7327C82.7062 38.9679 82.6928 39.0791 82.6929 39.1907ZM84.8478 38.4179L85.0113 38.7402C85.0837 38.8793 85.1215 39.0338 85.1217 39.1907V47.9119H92.8494V39.1907C92.8495 39.0338 92.8873 38.8793 92.9598 38.7402L93.1232 38.4179H84.8478ZM92.4078 39.1907V47.4704H85.5632V39.1907C85.5634 39.0791 85.55 38.9679 85.5235 38.8595H92.4476C92.421 38.9679 92.4077 39.0791 92.4078 39.1907ZM94.5627 38.4179L94.7261 38.7402C94.7985 38.8793 94.8364 39.0338 94.8365 39.1907V47.9119H102.564V39.1907C102.564 39.0338 102.602 38.8793 102.675 38.7402L102.838 38.4179H94.5627ZM102.123 39.1907V47.4704H95.2781V39.1907C95.2782 39.0791 95.2649 38.9679 95.2383 38.8595H102.162C102.136 38.9679 102.123 39.0791 102.123 39.1907ZM104.278 38.4179L104.441 38.7402C104.513 38.8793 104.551 39.0338 104.551 39.1907V47.9119H112.279V39.1907C112.279 39.0338 112.317 38.8793 112.389 38.7402L112.553 38.4179H104.278ZM111.838 39.1907V47.4704H104.993V39.1907C104.993 39.0791 104.98 38.9679 104.953 38.8595H111.877C111.851 38.9679 111.837 39.0791 111.838 39.1907ZM113.992 38.4179L114.156 38.7402C114.228 38.8793 114.266 39.0338 114.266 39.1907V47.9119H121.994V39.1907C121.994 39.0338 122.032 38.8793 122.104 38.7402L122.268 38.4179H113.992ZM121.552 39.1907V47.4704H114.708V39.1907C114.708 39.0791 114.695 38.9679 114.668 38.8595H121.592C121.566 38.9679 121.552 39.0791 121.552 39.1907ZM123.707 38.4179L123.871 38.7402C123.943 38.8793 123.981 39.0338 123.981 39.1907V47.9119H131.709V39.1907C131.709 39.0338 131.747 38.8793 131.819 38.7402L131.983 38.4179H123.707ZM131.267 39.1907V47.4704H124.423V39.1907C124.423 39.0791 124.409 38.9679 124.383 38.8595H131.307C131.28 38.9679 131.267 39.0791 131.267 39.1907ZM133.422 38.4179L133.586 38.7402C133.658 38.8793 133.696 39.0338 133.696 39.1907V47.9119H141.424V39.1907C141.424 39.0338 141.462 38.8793 141.534 38.7402L141.697 38.4179H133.422ZM140.982 39.1907V47.4704H134.138V39.1907C134.138 39.0791 134.124 38.9679 134.098 38.8595H141.022C140.995 38.9679 140.982 39.0791 140.982 39.1907ZM143.137 38.4179L143.3 38.7402C143.373 38.8793 143.411 39.0338 143.411 39.1907V47.9119H151.138V39.1907C151.139 39.0338 151.176 38.8793 151.249 38.7402L151.412 38.4179H143.137ZM150.697 39.1907V47.4704H143.852V39.1907C143.852 39.0791 143.839 38.9679 143.813 38.8595H150.737C150.71 38.9679 150.697 39.0791 150.697 39.1907ZM65.4181 38.4179L65.5816 38.7402C65.654 38.8793 65.6918 39.0338 65.6919 39.1907V47.9119H73.4197V39.1907C73.4198 39.0338 73.4576 38.8793 73.5301 38.7402L73.6935 38.4179H65.4181ZM72.9781 39.1907V47.4704H66.1335V39.1907C66.1337 39.0791 66.1203 38.9679 66.0938 38.8595H73.0179C72.9913 38.9679 72.978 39.0791 72.9781 39.1907ZM75.133 38.4179L75.2964 38.7402C75.3688 38.8793 75.4067 39.0338 75.4068 39.1907V47.9119H83.1345V39.1907C83.1346 39.0338 83.1725 38.8793 83.2449 38.7402L83.4084 38.4179H75.133ZM82.6929 39.1907V47.4704H75.8484V39.1907C75.8485 39.0791 75.8352 38.9679 75.8086 38.8595H82.7327C82.7062 38.9679 82.6928 39.0791 82.6929 39.1907ZM84.8478 38.4179L85.0113 38.7402C85.0837 38.8793 85.1215 39.0338 85.1217 39.1907V47.9119H92.8494V39.1907C92.8495 39.0338 92.8873 38.8793 92.9598 38.7402L93.1232 38.4179H84.8478ZM92.4078 39.1907V47.4704H85.5632V39.1907C85.5634 39.0791 85.55 38.9679 85.5235 38.8595H92.4476C92.421 38.9679 92.4077 39.0791 92.4078 39.1907ZM94.5627 38.4179L94.7261 38.7402C94.7985 38.8793 94.8364 39.0338 94.8365 39.1907V47.9119H102.564V39.1907C102.564 39.0338 102.602 38.8793 102.675 38.7402L102.838 38.4179H94.5627ZM102.123 39.1907V47.4704H95.2781V39.1907C95.2782 39.0791 95.2649 38.9679 95.2383 38.8595H102.162C102.136 38.9679 102.123 39.0791 102.123 39.1907ZM104.278 38.4179L104.441 38.7402C104.513 38.8793 104.551 39.0338 104.551 39.1907V47.9119H112.279V39.1907C112.279 39.0338 112.317 38.8793 112.389 38.7402L112.553 38.4179H104.278ZM111.838 39.1907V47.4704H104.993V39.1907C104.993 39.0791 104.98 38.9679 104.953 38.8595H111.877C111.851 38.9679 111.837 39.0791 111.838 39.1907ZM113.992 38.4179L114.156 38.7402C114.228 38.8793 114.266 39.0338 114.266 39.1907V47.9119H121.994V39.1907C121.994 39.0338 122.032 38.8793 122.104 38.7402L122.268 38.4179H113.992ZM121.552 39.1907V47.4704H114.708V39.1907C114.708 39.0791 114.695 38.9679 114.668 38.8595H121.592C121.566 38.9679 121.552 39.0791 121.552 39.1907ZM123.707 38.4179L123.871 38.7402C123.943 38.8793 123.981 39.0338 123.981 39.1907V47.9119H131.709V39.1907C131.709 39.0338 131.747 38.8793 131.819 38.7402L131.983 38.4179H123.707ZM131.267 39.1907V47.4704H124.423V39.1907C124.423 39.0791 124.409 38.9679 124.383 38.8595H131.307C131.28 38.9679 131.267 39.0791 131.267 39.1907ZM133.422 38.4179L133.586 38.7402C133.658 38.8793 133.696 39.0338 133.696 39.1907V47.9119H141.424V39.1907C141.424 39.0338 141.462 38.8793 141.534 38.7402L141.697 38.4179H133.422ZM140.982 39.1907V47.4704H134.138V39.1907C134.138 39.0791 134.124 38.9679 134.098 38.8595H141.022C140.995 38.9679 140.982 39.0791 140.982 39.1907ZM143.137 38.4179L143.3 38.7402C143.373 38.8793 143.411 39.0338 143.411 39.1907V47.9119H151.138V39.1907C151.139 39.0338 151.176 38.8793 151.249 38.7402L151.412 38.4179H143.137ZM150.697 39.1907V47.4704H143.852V39.1907C143.852 39.0791 143.839 38.9679 143.813 38.8595H150.737C150.71 38.9679 150.697 39.0791 150.697 39.1907ZM65.4181 38.4179L65.5816 38.7402C65.654 38.8793 65.6918 39.0338 65.6919 39.1907V47.9119H73.4197V39.1907C73.4198 39.0338 73.4576 38.8793 73.5301 38.7402L73.6935 38.4179H65.4181ZM72.9781 39.1907V47.4704H66.1335V39.1907C66.1337 39.0791 66.1203 38.9679 66.0938 38.8595H73.0179C72.9913 38.9679 72.978 39.0791 72.9781 39.1907ZM75.133 38.4179L75.2964 38.7402C75.3688 38.8793 75.4067 39.0338 75.4068 39.1907V47.9119H83.1345V39.1907C83.1346 39.0338 83.1725 38.8793 83.2449 38.7402L83.4084 38.4179H75.133ZM82.6929 39.1907V47.4704H75.8484V39.1907C75.8485 39.0791 75.8352 38.9679 75.8086 38.8595H82.7327C82.7062 38.9679 82.6928 39.0791 82.6929 39.1907ZM84.8478 38.4179L85.0113 38.7402C85.0837 38.8793 85.1215 39.0338 85.1217 39.1907V47.9119H92.8494V39.1907C92.8495 39.0338 92.8873 38.8793 92.9598 38.7402L93.1232 38.4179H84.8478ZM92.4078 39.1907V47.4704H85.5632V39.1907C85.5634 39.0791 85.55 38.9679 85.5235 38.8595H92.4476C92.421 38.9679 92.4077 39.0791 92.4078 39.1907ZM94.5627 38.4179L94.7261 38.7402C94.7985 38.8793 94.8364 39.0338 94.8365 39.1907V47.9119H102.564V39.1907C102.564 39.0338 102.602 38.8793 102.675 38.7402L102.838 38.4179H94.5627ZM102.123 39.1907V47.4704H95.2781V39.1907C95.2782 39.0791 95.2649 38.9679 95.2383 38.8595H102.162C102.136 38.9679 102.123 39.0791 102.123 39.1907ZM104.278 38.4179L104.441 38.7402C104.513 38.8793 104.551 39.0338 104.551 39.1907V47.9119H112.279V39.1907C112.279 39.0338 112.317 38.8793 112.389 38.7402L112.553 38.4179H104.278ZM111.838 39.1907V47.4704H104.993V39.1907C104.993 39.0791 104.98 38.9679 104.953 38.8595H111.877C111.851 38.9679 111.837 39.0791 111.838 39.1907ZM113.992 38.4179L114.156 38.7402C114.228 38.8793 114.266 39.0338 114.266 39.1907V47.9119H121.994V39.1907C121.994 39.0338 122.032 38.8793 122.104 38.7402L122.268 38.4179H113.992ZM121.552 39.1907V47.4704H114.708V39.1907C114.708 39.0791 114.695 38.9679 114.668 38.8595H121.592C121.566 38.9679 121.552 39.0791 121.552 39.1907ZM123.707 38.4179L123.871 38.7402C123.943 38.8793 123.981 39.0338 123.981 39.1907V47.9119H131.709V39.1907C131.709 39.0338 131.747 38.8793 131.819 38.7402L131.983 38.4179H123.707ZM131.267 39.1907V47.4704H124.423V39.1907C124.423 39.0791 124.409 38.9679 124.383 38.8595H131.307C131.28 38.9679 131.267 39.0791 131.267 39.1907ZM133.422 38.4179L133.586 38.7402C133.658 38.8793 133.696 39.0338 133.696 39.1907V47.9119H141.424V39.1907C141.424 39.0338 141.462 38.8793 141.534 38.7402L141.697 38.4179H133.422ZM140.982 39.1907V47.4704H134.138V39.1907C134.138 39.0791 134.124 38.9679 134.098 38.8595H141.022C140.995 38.9679 140.982 39.0791 140.982 39.1907ZM143.137 38.4179L143.3 38.7402C143.373 38.8793 143.411 39.0338 143.411 39.1907V47.9119H151.138V39.1907C151.139 39.0338 151.176 38.8793 151.249 38.7402L151.412 38.4179H143.137ZM150.697 39.1907V47.4704H143.852V39.1907C143.852 39.0791 143.839 38.9679 143.813 38.8595H150.737C150.71 38.9679 150.697 39.0791 150.697 39.1907Z"
              fill="#3F3D56"/>
        <path d="M91.6691 77.0563H75.3872C75.0443 77.0559 74.7155 76.9195 74.473 76.677C74.2305 76.4346 74.0941 76.1058 74.0938 75.7629V67.0893C74.0941 66.7464 74.2305 66.4176 74.473 66.1752C74.7155 65.9327 75.0443 65.7963 75.3872 65.7959H91.6691C92.012 65.7963 92.3408 65.9327 92.5833 66.1752C92.8257 66.4176 92.9621 66.7464 92.9625 67.0893V75.7629C92.9621 76.1058 92.8257 76.4346 92.5833 76.677C92.3408 76.9195 92.012 77.0559 91.6691 77.0563Z"
              fill="#355471"/>
        <path d="M116.45 77.0563H100.168C99.8255 77.0559 99.4968 76.9195 99.2543 76.677C99.0118 76.4346 98.8754 76.1058 98.875 75.7629V67.0893C98.8754 66.7464 99.0118 66.4176 99.2543 66.1752C99.4968 65.9327 99.8255 65.7963 100.168 65.7959H116.45C116.793 65.7963 117.122 65.9327 117.365 66.1752C117.607 66.4176 117.743 66.7464 117.744 67.0893V75.7629C117.743 76.1058 117.607 76.4346 117.365 76.677C117.122 76.9195 116.793 77.0559 116.45 77.0563Z"
              fill="#355471"/>
        <path d="M141.224 77.0563H124.942C124.599 77.0559 124.27 76.9195 124.028 76.677C123.785 76.4346 123.649 76.1058 123.648 75.7629V67.0893C123.649 66.7464 123.785 66.4176 124.028 66.1752C124.27 65.9327 124.599 65.7963 124.942 65.7959H141.224C141.567 65.7963 141.895 65.9327 142.138 66.1752C142.38 66.4176 142.517 66.7464 142.517 67.0893V75.7629C142.517 76.1058 142.38 76.4346 142.138 76.677C141.895 76.9195 141.567 77.0559 141.224 77.0563Z"
              fill="#355471"/>
        <path d="M91.6691 105.98H75.3872C75.0443 105.98 74.7155 105.844 74.473 105.601C74.2305 105.359 74.0941 105.03 74.0938 104.687V96.0134C74.0941 95.6705 74.2305 95.3417 74.473 95.0992C74.7155 94.8568 75.0443 94.7204 75.3872 94.72H91.6691C92.012 94.7204 92.3408 94.8567 92.5833 95.0992C92.8257 95.3417 92.9621 95.6705 92.9625 96.0134V104.687C92.9621 105.03 92.8257 105.359 92.5833 105.601C92.3408 105.844 92.012 105.98 91.6691 105.98Z"
              fill="#355471"/>
        <path d="M116.45 105.98H100.168C99.8255 105.98 99.4968 105.844 99.2543 105.601C99.0118 105.359 98.8754 105.03 98.875 104.687V96.0134C98.8754 95.6705 99.0118 95.3417 99.2543 95.0992C99.4968 94.8568 99.8255 94.7204 100.168 94.72H116.45C116.793 94.7204 117.122 94.8567 117.365 95.0992C117.607 95.3417 117.743 95.6705 117.744 96.0134V104.687C117.743 105.03 117.607 105.359 117.365 105.601C117.122 105.844 116.793 105.98 116.45 105.98Z"
              fill="#355471"/>
        <path d="M141.224 105.98H124.942C124.599 105.98 124.27 105.844 124.028 105.601C123.785 105.359 123.649 105.03 123.648 104.687V96.0134C123.649 95.6705 123.785 95.3417 124.028 95.0992C124.27 94.8568 124.599 94.7204 124.942 94.72H141.224C141.567 94.7204 141.895 94.8567 142.138 95.0992C142.38 95.3417 142.517 95.6705 142.517 96.0134V104.687C142.517 105.03 142.38 105.359 142.138 105.601C141.895 105.844 141.567 105.98 141.224 105.98Z"
              fill="#355471"/>
        <path d="M91.6691 134.904H75.3872C75.0443 134.904 74.7155 134.767 74.473 134.525C74.2305 134.282 74.0941 133.953 74.0938 133.611V124.937C74.0941 124.594 74.2305 124.265 74.473 124.023C74.7155 123.78 75.0443 123.644 75.3872 123.644H91.6691C92.012 123.644 92.3408 123.78 92.5833 124.023C92.8257 124.265 92.9621 124.594 92.9625 124.937V133.611C92.9621 133.953 92.8257 134.282 92.5833 134.525C92.3408 134.767 92.012 134.904 91.6691 134.904Z"
              fill="#355471"/>
        <path d="M116.45 134.904H100.168C99.8255 134.904 99.4968 134.767 99.2543 134.525C99.0118 134.282 98.8754 133.953 98.875 133.611V124.937C98.8754 124.594 99.0118 124.265 99.2543 124.023C99.4968 123.78 99.8255 123.644 100.168 123.644H116.45C116.793 123.644 117.122 123.78 117.365 124.023C117.607 124.265 117.743 124.594 117.744 124.937V133.611C117.743 133.953 117.607 134.282 117.365 134.525C117.122 134.767 116.793 134.904 116.45 134.904Z"
              fill="#355471"/>
        <path d="M141.224 134.904H124.942C124.599 134.904 124.27 134.767 124.028 134.525C123.785 134.282 123.649 133.953 123.648 133.611V124.937C123.649 124.594 123.785 124.265 124.028 124.023C124.27 123.78 124.599 123.644 124.942 123.644H141.224C141.567 123.644 141.895 123.78 142.138 124.023C142.38 124.265 142.517 124.594 142.517 124.937V133.611C142.517 133.953 142.38 134.282 142.138 134.525C141.895 134.767 141.567 134.904 141.224 134.904Z"
              fill="#355471"/>
        <path d="M89.034 78.1693H70.1723C69.7165 78.1688 69.2795 77.9875 68.9572 77.6652C68.6349 77.3429 68.4536 76.9059 68.4531 76.4501V66.4023C68.4536 65.9465 68.6349 65.5096 68.9572 65.1872C69.2795 64.8649 69.7165 64.6836 70.1723 64.6831H89.034C89.4898 64.6836 89.9267 64.8649 90.249 65.1872C90.5713 65.5095 90.7526 65.9465 90.7531 66.4023V76.4501C90.7526 76.9059 90.5713 77.3429 90.249 77.6652C89.9267 77.9875 89.4898 78.1688 89.034 78.1693ZM70.1723 65.1247C69.8336 65.1251 69.5088 65.2598 69.2693 65.4993C69.0298 65.7389 68.8951 66.0636 68.8947 66.4023V76.4501C68.8951 76.7888 69.0298 77.1136 69.2693 77.3531C69.5088 77.5926 69.8336 77.7273 70.1723 77.7277H89.034C89.3727 77.7274 89.6974 77.5926 89.9369 77.3531C90.1765 77.1136 90.3112 76.7888 90.3115 76.4501V66.4023C90.3112 66.0636 90.1765 65.7388 89.9369 65.4993C89.6974 65.2598 89.3727 65.1251 89.034 65.1247H70.1723Z"
              fill="#3F3D56"/>
        <path d="M117.737 78.1693H98.8754C98.4196 78.1688 97.9826 77.9875 97.6603 77.6652C97.3381 77.3429 97.1568 76.9059 97.1562 76.4501V66.4023C97.1568 65.9465 97.3381 65.5095 97.6603 65.1872C97.9826 64.8649 98.4196 64.6836 98.8754 64.6831H117.737C118.193 64.6836 118.63 64.8649 118.952 65.1872C119.274 65.5095 119.456 65.9465 119.456 66.4023V76.4501C119.456 76.9059 119.274 77.3429 118.952 77.6652C118.63 77.9875 118.193 78.1688 117.737 78.1693ZM98.8754 65.1247C98.5367 65.1251 98.212 65.2598 97.9724 65.4993C97.7329 65.7388 97.5982 66.0636 97.5978 66.4023V76.4501C97.5982 76.7888 97.7329 77.1136 97.9724 77.3531C98.212 77.5926 98.5367 77.7274 98.8754 77.7277H117.737C118.076 77.7274 118.401 77.5926 118.64 77.3531C118.88 77.1136 119.014 76.7888 119.015 76.4501V66.4023C119.014 66.0636 118.88 65.7388 118.64 65.4993C118.401 65.2598 118.076 65.1251 117.737 65.1247H98.8754Z"
              fill="#3F3D56"/>
        <path d="M146.44 78.1691H127.578C127.123 78.1685 126.686 77.9872 126.363 77.6649C126.041 77.3426 125.86 76.9057 125.859 76.4499V66.4021C125.86 65.9463 126.041 65.5093 126.363 65.187C126.686 64.8647 127.123 64.6834 127.578 64.6829H146.44C146.896 64.6834 147.333 64.8647 147.655 65.187C147.977 65.5093 148.159 65.9463 148.159 66.4021V76.4499C148.159 76.9056 147.977 77.3426 147.655 77.6649C147.333 77.9872 146.896 78.1685 146.44 78.1691ZM127.578 65.1244C127.24 65.1248 126.915 65.2596 126.675 65.4991C126.436 65.7386 126.301 66.0634 126.301 66.4021V76.4499C126.301 76.7886 126.436 77.1133 126.675 77.3529C126.915 77.5924 127.24 77.7271 127.578 77.7275H146.44C146.779 77.7271 147.103 77.5924 147.343 77.3529C147.582 77.1133 147.717 76.7886 147.718 76.4499V66.4021C147.717 66.0634 147.582 65.7386 147.343 65.4991C147.103 65.2596 146.779 65.1248 146.44 65.1244H127.578Z"
              fill="#3F3D56"/>
        <path d="M89.034 107.093H70.1723C69.7165 107.092 69.2795 106.911 68.9572 106.589C68.6349 106.266 68.4536 105.829 68.4531 105.374V95.3259C68.4536 94.8701 68.6349 94.4331 68.9572 94.1108C69.2795 93.7885 69.7165 93.6072 70.1723 93.6067H89.034C89.4898 93.6072 89.9267 93.7885 90.249 94.1108C90.5713 94.4331 90.7526 94.8701 90.7531 95.3259V105.374C90.7526 105.829 90.5713 106.266 90.249 106.589C89.9267 106.911 89.4898 107.092 89.034 107.093ZM70.1723 94.0483C69.8336 94.0487 69.5088 94.1834 69.2693 94.4229C69.0298 94.6624 68.8951 94.9872 68.8947 95.3259V105.374C68.8951 105.712 69.0298 106.037 69.2693 106.277C69.5088 106.516 69.8336 106.651 70.1723 106.651H89.034C89.3727 106.651 89.6974 106.516 89.9369 106.277C90.1765 106.037 90.3112 105.712 90.3115 105.374V95.3259C90.3112 94.9872 90.1765 94.6624 89.9369 94.4229C89.6974 94.1834 89.3727 94.0487 89.034 94.0483H70.1723Z"
              fill="#3F3D56"/>
        <path d="M117.737 107.093H98.8754C98.4196 107.092 97.9826 106.911 97.6603 106.589C97.3381 106.266 97.1568 105.829 97.1562 105.374V95.3259C97.1568 94.8701 97.3381 94.4331 97.6603 94.1108C97.9826 93.7885 98.4196 93.6072 98.8754 93.6067H117.737C118.193 93.6072 118.63 93.7885 118.952 94.1108C119.274 94.4331 119.456 94.8701 119.456 95.3259V105.374C119.456 105.829 119.274 106.266 118.952 106.589C118.63 106.911 118.193 107.092 117.737 107.093ZM98.8754 94.0483C98.5367 94.0487 98.212 94.1834 97.9724 94.4229C97.7329 94.6624 97.5982 94.9872 97.5978 95.3259V105.374C97.5982 105.712 97.7329 106.037 97.9724 106.277C98.212 106.516 98.5367 106.651 98.8754 106.651H117.737C118.076 106.651 118.401 106.516 118.64 106.277C118.88 106.037 119.014 105.712 119.015 105.374V95.3259C119.014 94.9872 118.88 94.6624 118.64 94.4229C118.401 94.1834 118.076 94.0487 117.737 94.0483H98.8754Z"
              fill="#3F3D56"/>
        <path d="M146.44 107.093H127.578C127.123 107.092 126.686 106.911 126.363 106.589C126.041 106.266 125.86 105.829 125.859 105.374V95.3259C125.86 94.8701 126.041 94.4331 126.363 94.1108C126.686 93.7885 127.123 93.6072 127.578 93.6067H146.44C146.896 93.6072 147.333 93.7885 147.655 94.1108C147.977 94.4331 148.159 94.8701 148.159 95.3259V105.374C148.159 105.829 147.977 106.266 147.655 106.589C147.333 106.911 146.896 107.092 146.44 107.093ZM127.578 94.0483C127.24 94.0487 126.915 94.1834 126.675 94.4229C126.436 94.6624 126.301 94.9872 126.301 95.3259V105.374C126.301 105.712 126.436 106.037 126.675 106.277C126.915 106.516 127.24 106.651 127.578 106.651H146.44C146.779 106.651 147.103 106.516 147.343 106.277C147.582 106.037 147.717 105.712 147.718 105.374V95.3259C147.717 94.9872 147.582 94.6624 147.343 94.4229C147.103 94.1834 146.779 94.0487 146.44 94.0483H127.578Z"
              fill="#3F3D56"/>
        <path d="M89.034 136.017H70.1723C69.7165 136.016 69.2795 135.835 68.9572 135.513C68.6349 135.19 68.4536 134.753 68.4531 134.298V124.25C68.4536 123.794 68.6349 123.357 68.9572 123.035C69.2795 122.712 69.7165 122.531 70.1723 122.531H89.034C89.4898 122.531 89.9267 122.712 90.249 123.035C90.5713 123.357 90.7526 123.794 90.7531 124.25V134.298C90.7526 134.753 90.5713 135.19 90.249 135.513C89.9267 135.835 89.4898 136.016 89.034 136.017ZM70.1723 122.972C69.8336 122.972 69.5088 123.107 69.2693 123.347C69.0298 123.586 68.8951 123.911 68.8947 124.25V134.298C68.8951 134.636 69.0298 134.961 69.2693 135.2C69.5088 135.44 69.8336 135.575 70.1723 135.575H89.034C89.3727 135.575 89.6974 135.44 89.9369 135.201C90.1765 134.961 90.3112 134.636 90.3115 134.298V124.25C90.3112 123.911 90.1765 123.586 89.9369 123.347C89.6974 123.107 89.3727 122.972 89.034 122.972H70.1723Z"
              fill="#3F3D56"/>
        <path d="M117.737 136.017H98.8754C98.4196 136.016 97.9826 135.835 97.6603 135.513C97.3381 135.19 97.1568 134.753 97.1562 134.298V124.25C97.1568 123.794 97.3381 123.357 97.6603 123.035C97.9826 122.712 98.4196 122.531 98.8754 122.531H117.737C118.193 122.531 118.63 122.712 118.952 123.035C119.274 123.357 119.456 123.794 119.456 124.25V134.298C119.456 134.753 119.274 135.19 118.952 135.513C118.63 135.835 118.193 136.016 117.737 136.017ZM98.8754 122.972C98.5367 122.972 98.212 123.107 97.9724 123.347C97.7329 123.586 97.5982 123.911 97.5978 124.25V134.298C97.5982 134.636 97.7329 134.961 97.9724 135.201C98.212 135.44 98.5367 135.575 98.8754 135.575H117.737C118.076 135.575 118.401 135.44 118.64 135.201C118.88 134.961 119.014 134.636 119.015 134.298V124.25C119.014 123.911 118.88 123.586 118.64 123.347C118.401 123.107 118.076 122.972 117.737 122.972H98.8754Z"
              fill="#3F3D56"/>
        <path d="M146.44 136.017H127.578C127.123 136.016 126.686 135.835 126.363 135.513C126.041 135.19 125.86 134.753 125.859 134.298V124.25C125.86 123.794 126.041 123.357 126.363 123.035C126.686 122.712 127.123 122.531 127.578 122.531H146.44C146.896 122.531 147.333 122.712 147.655 123.035C147.977 123.357 148.159 123.794 148.159 124.25V134.298C148.159 134.753 147.977 135.19 147.655 135.513C147.333 135.835 146.896 136.016 146.44 136.017ZM127.578 122.972C127.24 122.972 126.915 123.107 126.675 123.347C126.436 123.586 126.301 123.911 126.301 124.25V134.298C126.301 134.636 126.436 134.961 126.675 135.201C126.915 135.44 127.24 135.575 127.578 135.575H146.44C146.779 135.575 147.103 135.44 147.343 135.201C147.582 134.961 147.717 134.636 147.718 134.298V124.25C147.717 123.911 147.582 123.586 147.343 123.347C147.103 123.107 146.779 122.972 146.44 122.972H127.578Z"
              fill="#3F3D56"/>
        <path d="M223.279 170.12H0.720792C0.662234 170.12 0.606075 170.097 0.564668 170.056C0.523262 170.014 0.5 169.958 0.5 169.9C0.5 169.841 0.523262 169.785 0.564668 169.743C0.606075 169.702 0.662234 169.679 0.720792 169.679H223.279C223.338 169.679 223.394 169.702 223.435 169.743C223.477 169.785 223.5 169.841 223.5 169.9C223.5 169.958 223.477 170.014 223.435 170.056C223.394 170.097 223.338 170.12 223.279 170.12Z"
              fill="#3F3D56"/>
        <path d="M119.459 148.75C119.465 148.246 119.27 147.761 118.918 147.4C118.567 147.039 118.086 146.833 117.582 146.827H108.309V169.679H119.459V148.75Z"
              fill="#3F3D56"/>
        <path d="M108.525 169.457H96.9336V148.813C96.9342 148.257 97.1554 147.724 97.5486 147.331C97.9419 146.938 98.475 146.716 99.0311 146.716H108.525V169.457ZM97.3752 169.016H108.084V147.157H99.0311C98.5921 147.158 98.1712 147.333 97.8607 147.643C97.5503 147.953 97.3757 148.374 97.3752 148.813V169.016Z"
              fill="#3F3D56"/>
        <path d="M98.3694 159.633C98.7352 159.633 99.0318 159.336 99.0318 158.97C99.0318 158.605 98.7352 158.308 98.3694 158.308C98.0036 158.308 97.707 158.605 97.707 158.97C97.707 159.336 98.0036 159.633 98.3694 159.633Z"
              fill="#3F3D56"/>
    </g>
    <defs>
        <clipPath id="clip0_659_39626">
            <rect width="223" height="170.134" fill="white" transform="translate(0.5)"/>
        </clipPath>
    </defs>
</svg>
