<svg viewBox="0 0 214 163" fill="none" xmlns="http://www.w3.org/2000/svg">
    <g clip-path="url(#clip0_659_42206)">
        <g clip-path="url(#clip1_659_42206)">
            <path d="M175.863 155.97C177.946 160.017 182.496 161.825 182.496 161.825C182.496 161.825 183.67 157.072 181.588 153.025C179.506 148.978 174.956 147.17 174.956 147.17C174.956 147.17 173.781 151.923 175.863 155.97Z"
                  fill="#ECEDEC"/>
            <path d="M177.373 154.681C181.227 157.103 182.638 161.791 182.638 161.791C182.638 161.791 177.802 162.554 173.948 160.133C170.095 157.711 168.683 153.023 168.683 153.023C168.683 153.023 173.52 152.26 177.373 154.681Z"
                  fill="#ECEDEC"/>
            <path d="M123.222 159.024H120.52L119.234 148.6L123.223 148.6L123.222 159.024Z" fill="#FFB7B7"/>
            <path d="M123.91 161.644L115.197 161.643V161.533C115.197 160.633 115.554 159.771 116.19 159.135C116.826 158.499 117.689 158.141 118.588 158.141L123.911 158.142L123.91 161.644Z"
                  fill="#373937"/>
            <path d="M139.974 159.024H137.272L135.986 148.6L139.975 148.6L139.974 159.024Z" fill="#FFB7B7"/>
            <path d="M140.664 161.644L131.95 161.643V161.533C131.95 160.633 132.307 159.771 132.943 159.135C133.579 158.499 134.442 158.141 135.341 158.141L140.664 158.142L140.664 161.644Z"
                  fill="#373937"/>
            <path d="M132.126 100.31L126.809 89.6099L128.179 80.7346L121.786 78.9712L121.125 90.8745L129.415 102.14C129.355 102.562 129.419 102.993 129.599 103.379C129.779 103.765 130.067 104.091 130.428 104.317C130.79 104.543 131.209 104.659 131.635 104.651C132.061 104.644 132.476 104.513 132.829 104.275C133.182 104.036 133.459 103.7 133.625 103.308C133.791 102.916 133.84 102.484 133.766 102.064C133.691 101.644 133.497 101.255 133.206 100.944C132.915 100.633 132.54 100.412 132.126 100.31Z"
                  fill="#FFB7B7"/>
            <path d="M143.629 100.31L148.946 89.6099L147.577 80.7346L153.97 78.9712L154.631 90.8745L146.341 102.14C146.4 102.562 146.336 102.993 146.157 103.379C145.977 103.765 145.688 104.091 145.327 104.317C144.966 104.543 144.547 104.659 144.121 104.651C143.695 104.644 143.28 104.513 142.927 104.275C142.573 104.036 142.297 103.7 142.131 103.308C141.964 102.916 141.916 102.484 141.99 102.064C142.064 101.644 142.259 101.255 142.55 100.944C142.841 100.633 143.216 100.412 143.629 100.31Z"
                  fill="#FFB7B7"/>
            <path d="M140.081 63.741C143.293 63.741 145.897 61.1372 145.897 57.9253C145.897 54.7134 143.293 52.1096 140.081 52.1096C136.869 52.1096 134.265 54.7134 134.265 57.9253C134.265 61.1372 136.869 63.741 140.081 63.741Z"
                  fill="#FFB9B9"/>
            <path d="M134.309 57.8936C134.309 57.8936 133.678 56.9471 133.921 55.9278C134.066 55.3491 134.123 54.7519 134.091 54.1562C134.362 53.2732 134.703 52.413 135.11 51.5837C135.62 50.6615 135.377 50.2732 136.979 49.9819C138.58 49.6907 137.925 47.6036 142.148 49.8606C142.29 50.0595 142.489 50.2118 142.717 50.2981C142.946 50.3845 143.196 50.4012 143.434 50.346C144.308 50.1761 144.623 51.3895 144.623 51.3895C144.623 51.3895 145.206 51.0498 145.424 51.5351C145.643 52.0205 147.2 51.2438 147.2 54.5201C147.2 57.7964 145.428 60.723 145.428 60.723C145.428 60.723 144.183 64.6497 141.295 64.0915C138.407 63.5334 137.989 63.8711 136.005 60.1238C135.599 61.2952 134.975 56.8479 134.309 57.8936Z"
                  fill="#373937"/>
            <path d="M127.298 95.5034L126.623 98.1474C126.623 98.1474 123.447 99.6821 122.176 113.464L120.464 134.128L117.851 155.785L123.283 156.206L127.049 142.486L135.186 113.637L136.729 135.461L135.013 155.24L140.744 155.461L144.712 133.418C144.712 133.418 150.79 101.13 146.869 100.19L146.475 96.826L127.298 95.5034Z"
                  fill="#373937"/>
            <path d="M126.04 70.6523L135.396 65.4965L143.336 65.9202L152.821 71.534L148.868 96.2208C148.868 96.2208 151.134 98.7541 144.286 98.0103C137.437 97.2666 126.369 96.6632 126.369 96.6632C126.369 96.6632 125.479 94.8969 127.38 94.6489C129.281 94.4009 127.692 94.4589 127.692 94.4589C127.692 94.4589 126.543 90.7696 127.692 90.0503L128.247 82.4732L126.04 70.6523Z"
                  fill="#373937"/>
            <path d="M128.62 71.0356L126.04 70.6527L120.574 80.4038L129.455 84.3194L128.62 71.0356Z" fill="#373937"/>
            <path d="M149.782 72.799L152.821 71.5344L155.844 85.2534L147.641 86.8069L149.782 72.799Z" fill="#373937"/>
            <path d="M79.614 161.997H198.628C198.693 161.997 198.755 161.971 198.8 161.926C198.846 161.88 198.872 161.818 198.872 161.754C198.872 161.689 198.846 161.627 198.8 161.582C198.755 161.536 198.693 161.51 198.628 161.51H79.614C79.5494 161.51 79.4875 161.536 79.4419 161.582C79.3963 161.627 79.3706 161.689 79.3706 161.754C79.3706 161.818 79.3963 161.88 79.4419 161.926C79.4875 161.971 79.5494 161.997 79.614 161.997Z"
                  fill="#ECEDEC"/>
            <path d="M66.86 96.7706H35.9504V112.347H66.86V96.7706Z" fill="white"/>
            <path d="M63.2075 100.757H39.6018V101.558H63.2075V100.757Z" fill="#C5E4EA"/>
            <path d="M63.2075 104.159H39.6018V104.959H63.2075V104.159Z" fill="#C5E4EA"/>
            <path d="M63.2075 107.56H39.6018V108.36H63.2075V107.56Z" fill="#C5E4EA"/>
            <path d="M67.1029 112.59H35.7065V96.5267H67.1029V112.59ZM36.1933 112.103H66.6161V97.0135H36.1933V112.103Z"
                  fill="#373937"/>
            <path d="M44.6478 77.4237C38.1039 77.429 31.6885 75.6078 26.1235 72.1649L25.9822 72.0773L26.0696 71.936L44.555 42.0188H79.8861V42.1852C79.8861 61.6158 64.0783 77.4237 44.6478 77.4237Z"
                  fill="#C5E4EA"/>
            <path d="M21.98 64.7207L21.8664 64.6504C15.6295 60.794 11.1332 54.667 9.32526 47.5605C7.51728 40.454 8.53878 32.9232 12.1745 26.5551L12.2408 26.4393L36.9199 40.5417L21.98 64.7207Z"
                  fill="#ECEDEC"/>
            <path d="M79.8859 37.2986H44.4404L52.0816 2.68176L52.2439 2.71743C60.0811 4.44964 67.0925 8.80466 72.1187 15.0624C77.1449 21.3202 79.885 29.1059 79.8859 37.1322V37.2986Z"
                  fill="#C5E4EA"/>
            <path d="M38.7947 31.8468L14.7783 18.1232L14.8429 18.0105C17.7545 12.9243 22.2142 8.90077 27.5721 6.5261C32.9301 4.15144 38.9063 3.54974 44.6301 4.80869L44.7569 4.83656L38.7947 31.8468Z"
                  fill="#ECEDEC"/>
            <path d="M128.679 0.243286H97.7695V15.8198H128.679V0.243286Z" fill="white"/>
            <path d="M125.028 4.23071H101.422V5.03091H125.028V4.23071Z" fill="#C5E4EA"/>
            <path d="M125.028 7.63196H101.422V8.43215H125.028V7.63196Z" fill="#C5E4EA"/>
            <path d="M125.028 11.0325H101.422V11.8327H125.028V11.0325Z" fill="#C5E4EA"/>
            <path d="M128.923 16.0633H97.5269V0H128.923V16.0633ZM98.0136 15.5765H128.436V0.486765H98.0136V15.5765Z"
                  fill="#373937"/>
            <path d="M51.7148 56.4568H51.228V96.5268H51.7148V56.4568Z" fill="#373937"/>
            <path d="M97.6501 8.04979L61.1084 24.5778L61.309 25.0213L97.8507 8.49329L97.6501 8.04979Z" fill="#373937"/>
        </g>
    </g>
    <defs>
        <clipPath id="clip0_659_42206">
            <rect width="213" height="162.505" fill="white" transform="translate(0.5)"/>
        </clipPath>
        <clipPath id="clip1_659_42206">
            <rect width="190.424" height="161.997" fill="white" transform="translate(8.44775)"/>
        </clipPath>
    </defs>
</svg>
