<svg viewBox="0 0 218 175" fill="none" xmlns="http://www.w3.org/2000/svg">
<g clip-path="url(#clip0_659_44680)">
<path d="M215.618 100.911H50.355C49.9298 100.911 49.5223 100.742 49.2216 100.441C48.921 100.14 48.752 99.7329 48.7515 99.3078V1.60346C48.752 1.17834 48.921 0.770762 49.2216 0.470155C49.5223 0.169548 49.9298 0.000464083 50.355 0H215.618C216.044 0.000464084 216.451 0.169549 216.752 0.470156C217.052 0.770763 217.221 1.17834 217.222 1.60346V99.3078C217.221 99.7329 217.052 100.14 216.752 100.441C216.451 100.742 216.044 100.911 215.618 100.911ZM50.355 0.641385C50.0999 0.641663 49.8553 0.743114 49.675 0.923478C49.4946 1.10384 49.3932 1.34839 49.3929 1.60346V99.3078C49.3932 99.5628 49.4946 99.8074 49.675 99.9878C49.8553 100.168 50.0999 100.27 50.355 100.27H215.618C215.874 100.27 216.118 100.168 216.298 99.9878C216.479 99.8074 216.58 99.5628 216.581 99.3078V1.60346C216.58 1.34839 216.479 1.10384 216.298 0.923479C216.118 0.743115 215.874 0.641663 215.618 0.641385H50.355Z" fill="#E6E6E6"/>
<path d="M117.057 7.80316C116.723 7.80874 116.405 7.94513 116.171 8.18292C115.937 8.42072 115.806 8.74088 115.806 9.07439C115.806 9.4079 115.937 9.72806 116.171 9.96585C116.405 10.2036 116.723 10.34 117.057 10.3456H148.93C149.267 10.3506 149.592 10.222 149.833 9.98792C150.075 9.75389 150.214 9.43354 150.22 9.09708C150.226 8.76062 150.099 8.4355 149.865 8.19297C149.632 7.95044 149.312 7.81029 148.976 7.80322L148.972 7.80316C148.958 7.80292 148.944 7.80292 148.93 7.80316H117.057Z" fill="#3F3D56"/>
<path d="M156.159 7.44924C156.112 7.49615 156.085 7.55977 156.085 7.62611C156.085 7.69245 156.112 7.75608 156.159 7.80299L157.232 8.87688H154.584C154.518 8.87707 154.455 8.90352 154.408 8.95041C154.361 8.9973 154.335 9.06081 154.335 9.12703C154.335 9.19325 154.361 9.25676 154.408 9.30365C154.455 9.35054 154.518 9.37698 154.584 9.37718H157.232L156.159 10.451C156.135 10.4743 156.117 10.5019 156.104 10.5322C156.092 10.5626 156.085 10.5951 156.085 10.6279C156.085 10.6608 156.092 10.6933 156.104 10.7237C156.117 10.754 156.135 10.7816 156.159 10.8048C156.182 10.828 156.209 10.8465 156.24 10.859C156.27 10.8716 156.303 10.8781 156.335 10.8781C156.368 10.8781 156.401 10.8716 156.431 10.859C156.461 10.8465 156.489 10.8281 156.512 10.8048L158.013 9.30392C158.06 9.25701 158.086 9.19338 158.086 9.12703C158.086 9.06069 158.06 8.99706 158.013 8.95014L156.512 7.44924C156.489 7.42601 156.461 7.40759 156.431 7.39502C156.401 7.38245 156.368 7.37598 156.335 7.37598C156.303 7.37598 156.27 7.38245 156.24 7.39502C156.209 7.40759 156.182 7.42601 156.159 7.44924Z" fill="#E6E6E6"/>
<path d="M109.815 7.44924C109.862 7.49615 109.888 7.55978 109.888 7.62612C109.888 7.69246 109.862 7.75608 109.815 7.803L108.741 8.87688H111.389C111.422 8.87675 111.455 8.88312 111.485 8.89561C111.515 8.90811 111.543 8.92649 111.566 8.9497C111.59 8.97291 111.608 9.00049 111.621 9.03087C111.634 9.06125 111.64 9.09383 111.64 9.12674C111.64 9.15965 111.634 9.19224 111.621 9.22265C111.609 9.25306 111.59 9.28069 111.567 9.30395C111.544 9.32722 111.516 9.34566 111.486 9.35823C111.455 9.3708 111.423 9.37724 111.39 9.37719H108.741L109.815 10.4511C109.838 10.4743 109.857 10.5019 109.869 10.5322C109.882 10.5626 109.888 10.5951 109.888 10.6279C109.888 10.6608 109.882 10.6933 109.869 10.7237C109.857 10.754 109.838 10.7816 109.815 10.8048C109.792 10.8281 109.764 10.8465 109.734 10.8591C109.703 10.8716 109.671 10.8781 109.638 10.8781C109.605 10.8781 109.573 10.8716 109.542 10.8591C109.512 10.8465 109.484 10.8281 109.461 10.8048L107.96 9.30393C107.913 9.25701 107.887 9.19338 107.887 9.12704C107.887 9.06069 107.913 8.99706 107.96 8.95015L109.461 7.44925C109.508 7.40234 109.572 7.37598 109.638 7.37598C109.704 7.37597 109.768 7.40234 109.815 7.44924Z" fill="#E6E6E6"/>
<path d="M48.6558 106.293C47.2066 106.293 45.79 105.863 44.585 105.058C43.38 104.253 42.4409 103.109 41.8863 101.77C41.3317 100.431 41.1866 98.9576 41.4693 97.5362C41.7521 96.1149 42.4499 94.8093 43.4747 93.7845C44.4994 92.7598 45.805 92.0619 47.2264 91.7792C48.6477 91.4965 50.121 91.6416 51.4599 92.1962C52.7987 92.7508 53.9431 93.6899 54.7482 94.8949C55.5534 96.0999 55.9831 97.5165 55.9831 98.9657C55.9831 100.909 55.2111 102.773 53.837 104.147C52.4629 105.521 50.5991 106.293 48.6558 106.293Z" fill="#C5E4EA"/>
<path d="M51.547 98.243H49.3786V96.0746C49.3786 95.8829 49.3025 95.6991 49.1669 95.5635C49.0314 95.428 48.8475 95.3518 48.6558 95.3518C48.4641 95.3518 48.2803 95.428 48.1447 95.5635C48.0092 95.6991 47.933 95.8829 47.933 96.0746V98.243H45.7647C45.573 98.243 45.3891 98.3191 45.2536 98.4547C45.118 98.5902 45.0419 98.7741 45.0419 98.9658C45.0419 99.1575 45.118 99.3413 45.2536 99.4769C45.3891 99.6124 45.573 99.6886 45.7647 99.6886H47.933V101.857C47.933 102.049 48.0092 102.232 48.1447 102.368C48.2803 102.504 48.4641 102.58 48.6558 102.58C48.8475 102.58 49.0314 102.504 49.1669 102.368C49.3025 102.232 49.3786 102.049 49.3786 101.857V99.6886H51.547C51.7387 99.6886 51.9225 99.6124 52.0581 99.4769C52.1936 99.3413 52.2698 99.1575 52.2698 98.9658C52.2698 98.7741 52.1936 98.5902 52.0581 98.4547C51.9225 98.3191 51.7387 98.243 51.547 98.243Z" fill="white"/>
<path d="M84.1346 20.8188H62.1137V35.7845H84.1346V20.8188Z" fill="#F1F1F1"/>
<path d="M114.066 20.8188H92.045V35.7845H114.066V20.8188Z" fill="#F1F1F1"/>
<path d="M143.997 20.8188H121.976V35.7845H143.997V20.8188Z" fill="#F1F1F1"/>
<path d="M173.928 20.8188H151.908V35.7845H173.928V20.8188Z" fill="#F1F1F1"/>
<path d="M203.86 20.8188H181.839V35.7845H203.86V20.8188Z" fill="#F1F1F1"/>
<path d="M84.2153 47.1155H62.1944V62.0811H84.2153V47.1155Z" fill="#F1F1F1"/>
<path d="M114.147 47.1155H92.1257V62.0811H114.147V47.1155Z" fill="#F1F1F1"/>
<path d="M144.078 47.1155H122.057V62.0811H144.078V47.1155Z" fill="#F1F1F1"/>
<path d="M174.009 47.1155H151.988V62.0811H174.009V47.1155Z" fill="#F1F1F1"/>
<path d="M203.94 47.1155H181.92V62.0811H203.94V47.1155Z" fill="#F1F1F1"/>
<path d="M84.296 73.4124H62.2752V88.378H84.296V73.4124Z" fill="#F1F1F1"/>
<path d="M114.227 73.4124H92.2065V88.378H114.227V73.4124Z" fill="#F1F1F1"/>
<path d="M144.159 73.4124H122.138V88.378H144.159V73.4124Z" fill="#F1F1F1"/>
<path d="M174.09 73.4124H152.069V88.378H174.09V73.4124Z" fill="#F1F1F1"/>
<path d="M204.021 73.4124H182V88.378H204.021V73.4124Z" fill="#F1F1F1"/>
<path d="M126.547 28.3016C128.082 28.3016 129.326 27.0572 129.326 25.5223C129.326 23.9873 128.082 22.7429 126.547 22.7429C125.012 22.7429 123.767 23.9873 123.767 25.5223C123.767 27.0572 125.012 28.3016 126.547 28.3016Z" fill="#C5E4EA"/>
<path d="M96.1878 54.5985C97.7228 54.5985 98.9672 53.3541 98.9672 51.8191C98.9672 50.2841 97.7228 49.0398 96.1878 49.0398C94.6528 49.0398 93.4085 50.2841 93.4085 51.8191C93.4085 53.3541 94.6528 54.5985 96.1878 54.5985Z" fill="#C5E4EA"/>
<path d="M126.547 80.8951C128.082 80.8951 129.326 79.6507 129.326 78.1158C129.326 76.5808 128.082 75.3364 126.547 75.3364C125.012 75.3364 123.767 76.5808 123.767 78.1158C123.767 79.6507 125.012 80.8951 126.547 80.8951Z" fill="#C5E4EA"/>
<path d="M157.119 54.5985C158.654 54.5985 159.899 53.3541 159.899 51.8191C159.899 50.2841 158.654 49.0398 157.119 49.0398C155.584 49.0398 154.34 50.2841 154.34 51.8191C154.34 53.3541 155.584 54.5985 157.119 54.5985Z" fill="#3F3D56"/>
<path d="M186.837 54.5985C188.372 54.5985 189.616 53.3541 189.616 51.8191C189.616 50.2841 188.372 49.0398 186.837 49.0398C185.302 49.0398 184.058 50.2841 184.058 51.8191C184.058 53.3541 185.302 54.5985 186.837 54.5985Z" fill="#3F3D56"/>
<path d="M96.1878 80.8951C97.7228 80.8951 98.9672 79.6507 98.9672 78.1158C98.9672 76.5808 97.7228 75.3364 96.1878 75.3364C94.6528 75.3364 93.4085 76.5808 93.4085 78.1158C93.4085 79.6507 94.6528 80.8951 96.1878 80.8951Z" fill="#3F3D56"/>
<path d="M23.3157 104.662C26.1667 104.662 28.4779 102.351 28.4779 99.4996C28.4779 96.6486 26.1667 94.3374 23.3157 94.3374C20.4647 94.3374 18.1535 96.6486 18.1535 99.4996C18.1535 102.351 20.4647 104.662 23.3157 104.662Z" fill="#FFB8B8"/>
<path d="M21.4519 130.045C21.3869 130.045 21.3215 130.043 21.256 130.037C20.9313 130.01 20.616 129.914 20.3308 129.757C20.0456 129.599 19.7968 129.383 19.6009 129.123C19.4049 128.863 19.2662 128.564 19.1937 128.247C19.1213 127.929 19.1167 127.6 19.1804 127.28C19.1955 127.206 19.2144 127.132 19.2372 127.06L11.6182 118.049C11.37 117.753 11.2237 117.385 11.2012 117C11.1787 116.614 11.2811 116.231 11.4933 115.909L11.5071 115.892L18.3651 109.13C18.7396 108.761 19.2451 108.556 19.7706 108.56C20.2961 108.564 20.7986 108.776 21.1676 109.15C21.5365 109.525 21.7418 110.03 21.7383 110.556C21.7348 111.081 21.5227 111.584 21.1488 111.953C21.1402 111.961 21.1315 111.97 21.1227 111.978L16.1557 116.7L21.5934 125.427C21.6964 125.433 21.7989 125.445 21.9001 125.465C22.4626 125.577 22.9632 125.895 23.3049 126.355C23.6466 126.816 23.8049 127.387 23.749 127.958C23.6931 128.529 23.4271 129.059 23.0026 129.444C22.5781 129.83 22.0254 130.044 21.4519 130.045Z" fill="#FFB8B8"/>
<path d="M31.8177 171.344H34.3946L35.6204 161.406L31.8173 161.406L31.8177 171.344Z" fill="#FFB8B8"/>
<path d="M31.1606 170.503L36.2351 170.503C36.6597 170.503 37.0805 170.587 37.4728 170.749C37.8652 170.912 38.2217 171.15 38.5219 171.45C38.8222 171.751 39.0605 172.107 39.223 172.499C39.3855 172.892 39.4692 173.312 39.4692 173.737V173.842L31.1607 173.842L31.1606 170.503Z" fill="#2F2E41"/>
<path d="M6.20644 167.782L8.42043 169.1L14.5587 161.188L11.291 159.242L6.20644 167.782Z" fill="#FFB8B8"/>
<path d="M6.07207 166.723L10.4323 169.319C11.1692 169.758 11.7018 170.471 11.9126 171.303C12.1234 172.134 11.9954 173.015 11.5566 173.752L11.5028 173.842L4.36389 169.592L6.07207 166.723Z" fill="#2F2E41"/>
<path d="M35.0026 167.834H32.1172C31.8836 167.834 31.6581 167.748 31.4844 167.592C31.3106 167.436 31.201 167.221 31.1767 166.988L28.2678 139.645C28.2605 139.576 28.2307 139.511 28.1831 139.461C28.1354 139.411 28.0726 139.378 28.0043 139.367C27.9359 139.356 27.8659 139.368 27.8049 139.4C27.744 139.433 27.6955 139.485 27.667 139.548L22.4193 151.168L13.1285 166.318C13.0083 166.512 12.8221 166.656 12.6041 166.725C12.3861 166.793 12.1508 166.78 11.9414 166.689L8.22977 165.056C8.10705 165.002 7.99722 164.922 7.90755 164.823C7.81789 164.723 7.75044 164.605 7.70968 164.478C7.66892 164.35 7.65579 164.215 7.67114 164.082C7.68649 163.949 7.72999 163.82 7.79874 163.705L16.3395 149.404L18.9589 137.355C18.135 132.13 21.6668 124.361 21.7026 124.283L21.7201 124.245L31.4484 120.443L31.4971 120.503C35.3337 133.093 37.6715 146.642 35.9453 166.967C35.9241 167.203 35.8157 167.423 35.6414 167.583C35.4671 167.743 35.2393 167.833 35.0026 167.834Z" fill="#2F2E41"/>
<path d="M21.3282 125.519L21.2829 125.423C21.2612 125.378 19.0981 120.815 17.4305 115.939C17.1101 114.996 16.9889 113.997 17.0748 113.005C17.1606 112.013 17.4516 111.049 17.9293 110.175C18.4131 109.292 19.0751 108.519 19.8733 107.906C20.6714 107.292 21.5883 106.851 22.5659 106.61C24.263 106.203 26.0498 106.419 27.6008 107.22C29.1517 108.02 30.3635 109.351 31.0155 110.969C32.3382 114.277 31.9166 117.808 31.5199 120.584L31.512 120.64L31.4614 120.664L21.3282 125.519Z" fill="#C5E4EA"/>
<path d="M29.5747 96.5836H21.3777V93.0106C23.1769 92.2958 24.9374 91.6879 26.0017 93.0106C26.9493 93.0106 27.8581 93.387 28.5282 94.0571C29.1983 94.7272 29.5747 95.636 29.5747 96.5836Z" fill="#2F2E41"/>
<path d="M20.9239 92.3801C16.0236 92.3801 14.652 98.5225 14.652 101.988C14.652 103.92 15.526 104.611 16.8993 104.845L17.3843 102.259L18.5203 104.957C18.9061 104.958 19.3113 104.951 19.7315 104.943L20.1167 104.15L20.9755 104.929C24.4154 104.934 27.1957 105.436 27.1957 101.988C27.1957 98.5225 25.9928 92.3801 20.9239 92.3801Z" fill="#2F2E41"/>
<path d="M42.7053 99.2546C42.7365 99.3116 42.7653 99.3703 42.7917 99.4307C42.9236 99.7286 42.991 100.051 42.9896 100.377C42.9882 100.703 42.9179 101.024 42.7835 101.321C42.649 101.618 42.4534 101.883 42.2093 102.099C41.9653 102.315 41.6785 102.476 41.3675 102.574C41.2952 102.596 41.2217 102.615 41.1474 102.629L36.8924 113.636C36.7518 113.996 36.4989 114.3 36.1712 114.505C35.8436 114.71 35.4588 114.803 35.0738 114.772L35.0524 114.768L25.8301 111.991C25.3266 111.84 24.904 111.494 24.6552 111.031C24.4065 110.568 24.3518 110.025 24.5034 109.522C24.655 109.018 25.0004 108.595 25.4636 108.347C25.9268 108.098 26.4698 108.043 26.9733 108.195C26.9848 108.198 26.9962 108.202 27.0077 108.206L33.533 110.301L38.5849 101.344C38.5402 101.251 38.5022 101.155 38.471 101.057C38.2998 100.51 38.3382 99.9183 38.5787 99.3976C38.8192 98.8769 39.2446 98.4641 39.7723 98.2395C40.3001 98.0148 40.8924 97.9943 41.4344 98.1819C41.9764 98.3695 42.4294 98.7518 42.7053 99.2546Z" fill="#FFB8B8"/>
<path d="M43.7748 174.084H1.00095C0.941863 174.084 0.885198 174.061 0.843418 174.019C0.801639 173.977 0.778168 173.921 0.778168 173.862C0.778168 173.803 0.801639 173.746 0.843418 173.704C0.885198 173.662 0.941863 173.639 1.00095 173.639H43.7748C43.8339 173.639 43.8906 173.662 43.9323 173.704C43.9741 173.746 43.9976 173.803 43.9976 173.862C43.9976 173.921 43.9741 173.977 43.9323 174.019C43.8906 174.061 43.8339 174.084 43.7748 174.084Z" fill="#CCCCCC"/>
</g>
<defs>
<clipPath id="clip0_659_44680">
<rect width="216.444" height="174.085" fill="white" transform="translate(0.778107)"/>
</clipPath>
</defs>
</svg>
