<svg viewBox="0 0 412 282" fill="none" xmlns="http://www.w3.org/2000/svg">
<g clip-path="url(#clip0_741_68978)">
<path d="M143.149 270.127C142.821 270.142 142.496 270.056 142.219 269.88C141.942 269.704 141.725 269.448 141.599 269.144C141.472 268.841 141.442 268.506 141.511 268.185C141.581 267.864 141.748 267.572 141.989 267.349L142.098 266.913C142.084 266.878 142.069 266.843 142.055 266.808C141.725 266.027 141.171 265.361 140.464 264.894C139.757 264.427 138.928 264.179 138.081 264.182C137.234 264.185 136.407 264.439 135.703 264.912C135 265.384 134.452 266.054 134.127 266.838C132.831 269.965 131.18 273.097 130.773 276.404C130.594 277.865 130.67 279.347 130.996 280.783C127.951 274.13 126.37 266.9 126.36 259.582C126.359 257.745 126.461 255.91 126.665 254.085C126.833 252.589 127.067 251.104 127.366 249.629C128.998 241.627 132.503 234.127 137.592 227.744C140.055 226.398 142.047 224.329 143.299 221.814C143.753 220.911 144.074 219.946 144.251 218.95C143.973 218.986 143.204 214.749 143.413 214.489C143.026 213.901 142.333 213.608 141.91 213.034C139.807 210.179 136.909 210.677 135.397 214.557C132.165 216.191 132.134 218.899 134.117 221.504C135.378 223.162 135.551 225.404 136.658 227.178C136.544 227.324 136.426 227.466 136.312 227.612C134.23 230.292 132.416 233.17 130.895 236.205C131.265 232.805 130.824 229.366 129.607 226.17C128.374 223.192 126.064 220.684 124.029 218.109C121.584 215.017 116.572 216.366 116.141 220.287C116.137 220.325 116.133 220.362 116.129 220.4C116.431 220.571 116.727 220.752 117.017 220.944C117.38 221.187 117.662 221.535 117.825 221.942C117.988 222.348 118.025 222.794 117.93 223.222C117.836 223.65 117.614 224.039 117.295 224.338C116.976 224.637 116.574 224.833 116.142 224.9L116.097 224.907C116.205 225.998 116.395 227.079 116.667 228.141C114.056 238.251 119.692 241.933 127.74 242.098C127.917 242.19 128.09 242.281 128.268 242.368C126.74 246.704 125.781 251.221 125.417 255.805C125.21 258.509 125.222 261.226 125.453 263.929L125.439 263.833C124.856 260.828 123.256 258.116 120.907 256.156C117.42 253.287 112.492 252.231 108.729 249.925C108.329 249.667 107.864 249.53 107.389 249.529C106.914 249.528 106.448 249.663 106.047 249.918C105.646 250.173 105.326 250.538 105.125 250.969C104.924 251.4 104.851 251.88 104.913 252.352C104.918 252.385 104.923 252.419 104.929 252.452C105.489 252.681 106.036 252.945 106.564 253.242C106.866 253.412 107.162 253.594 107.451 253.785C107.815 254.029 108.097 254.376 108.26 254.783C108.423 255.189 108.459 255.635 108.365 256.063C108.27 256.491 108.049 256.88 107.73 257.179C107.411 257.479 107.008 257.675 106.576 257.741L106.532 257.748C106.5 257.753 106.473 257.757 106.441 257.762C107.399 260.053 108.744 262.162 110.417 263.997C112.05 272.823 119.06 273.66 126.56 271.09H126.565C127.387 274.67 128.58 278.156 130.122 281.489H142.83C142.876 281.348 142.917 281.202 142.958 281.061C141.781 281.135 140.601 281.064 139.441 280.851C140.384 279.692 141.327 278.525 142.27 277.366C142.291 277.344 142.311 277.322 142.329 277.298C142.807 276.705 143.29 276.116 143.769 275.523L143.769 275.523C143.794 273.705 143.586 271.891 143.149 270.127Z" fill="#F2F2F2"/>
<path d="M45.4004 250.879L48.9068 254.59L65.1883 242.511L60.0133 237.033L45.4004 250.879Z" fill="#A0616A"/>
<path d="M51.1471 252.931L47.1775 249.197L46.2027 248.282L36.0967 256.373L38.7256 259.156L41.82 257.168L40.3984 260.926L47.3684 268.303C47.7024 268.657 48.1405 268.895 48.6189 268.982C49.0973 269.069 49.5909 269 50.0276 268.786C50.4643 268.572 50.8213 268.224 51.0465 267.792C51.2717 267.361 51.3533 266.869 51.2794 266.388L49.7751 256.642L52.4258 254.132L51.1471 252.931Z" fill="#2F2E41"/>
<path d="M122.463 115.757L121.351 127.91C121.351 127.91 119.41 137.067 120.754 136.325C122.098 135.583 119.689 138.923 120.323 141.82C120.958 144.716 114.904 166.317 117.646 164.08C120.388 161.842 116.061 177.301 113.324 184.927C112.487 187.285 111.626 189.671 110.759 192.04C110.588 192.52 110.417 192.993 110.241 193.473C109.117 196.555 107.994 199.592 106.917 202.458C106.763 202.858 106.615 203.257 106.467 203.651C106.461 203.662 106.461 203.674 106.455 203.674C102.909 213.019 99.871 220.371 98.6568 221.587C98.0241 222.221 87.9855 229.482 77.8669 236.755C67.2467 244.387 56.5408 252.037 56.5408 252.037L46.542 241.533C46.542 241.533 46.7814 241.464 47.2318 241.327C48.064 241.087 49.6033 240.637 51.6213 240.037C60.0353 237.554 49.3467 233.689 56.9857 230.926C59.1404 230.15 60.577 229.545 60.9018 229.225C62.8001 227.37 65.3484 222.946 66.5512 224.801C67.7539 226.656 73.2096 212.87 74.7828 211.506C75.6265 210.77 78.3799 207.327 80.7401 204.302C82.7692 201.699 84.5137 199.398 84.5137 199.398C84.5137 199.398 84.5479 198.165 84.5991 196.201C84.6734 193.296 84.7817 188.78 84.8958 184.259C84.89 184.253 84.89 184.253 84.8958 184.253C84.9356 182.552 84.9754 180.851 85.0155 179.236C85.0439 177.985 85.0723 176.781 85.101 175.668C85.175 172.334 85.2262 169.811 85.2262 169.183C85.2262 167.122 85.2262 168.726 86.851 167.482C87.0936 167.291 87.324 167.085 87.5408 166.865C87.8881 166.552 88.2085 166.21 88.4986 165.843C88.6183 165.587 87.8714 165.935 86.9022 165.741C86.3774 165.635 85.892 165.386 85.4999 165.021C83.459 163.183 85.6596 157.532 85.6596 157.532C81.0193 148.238 81.3558 140.617 83.5275 134.743C85.1515 130.528 87.7291 126.747 91.058 123.698C92.3249 122.489 93.7052 121.405 95.1798 120.461L95.3223 119.69L96.89 111.19C97.7236 110.732 98.5906 110.337 99.4835 110.009C102.268 109.008 105.256 108.71 108.183 109.141C111.091 109.562 113.908 110.475 116.511 111.841C118.64 112.912 120.637 114.226 122.463 115.757Z" fill="#2F2E41"/>
<path d="M78.6797 269.814L83.7595 270.288L88.0401 250.454L80.5421 249.756L78.6797 269.814Z" fill="#A0616A"/>
<path d="M93.3102 277.588L85.7624 271.258L86.1045 267.616L84.349 267.559L78.9106 267.382H78.9047L77.5709 267.336L75.3076 280.089L79.1213 280.443L80.1303 276.904L81.5385 280.671L83.5565 280.86L91.6342 281.613C91.7027 281.619 91.7767 281.624 91.8452 281.624C92.1663 281.625 92.4838 281.557 92.7767 281.425C93.0696 281.293 93.3311 281.1 93.544 280.86C93.8746 280.497 94.0769 280.036 94.1196 279.547C94.153 279.179 94.0968 278.809 93.9558 278.468C93.8148 278.127 93.5932 277.825 93.3102 277.588Z" fill="#2F2E41"/>
<path d="M106.917 202.459C104.985 212.991 96.8043 237.686 91.8564 252.14C89.6045 258.745 88.0313 263.215 88.0313 263.215L85.466 262.404H85.4602L81.1221 261.034L79.543 260.532H79.5371L77.6218 259.921C77.6218 259.921 77.8442 248.127 77.867 236.756C77.884 231.989 77.8612 227.291 77.7702 223.569C77.6675 219.51 77.4907 216.605 77.2001 216.028C75.9971 213.664 78.0096 213.413 80.1359 212.82C82.2678 212.22 80.6032 211.318 79.7765 209.4C79.2182 208.121 80.3182 206.415 81.0992 205.444C81.3147 205.171 81.545 204.91 81.789 204.662C81.789 204.662 81.4127 204.531 80.7402 204.303C82.7694 201.699 84.5138 199.399 84.5138 199.399C84.5138 199.399 84.548 198.166 84.5993 196.202C84.6736 193.297 84.7819 188.781 84.896 184.26C84.8901 184.254 84.8901 184.254 84.896 184.254C84.9358 182.553 84.9756 180.852 85.0157 179.236C88.2763 181.742 91.4458 184.197 94.319 186.469C94.3225 186.472 94.3253 186.475 94.3273 186.479C94.3293 186.483 94.3303 186.488 94.3304 186.492C101.234 191.955 106.416 196.339 107.145 197.732C107.476 198.36 107.362 200.038 106.917 202.459Z" fill="#2F2E41"/>
<path d="M276.868 16.4935C277.819 16.4045 278.766 16.6903 279.509 17.2902C280.252 17.8901 280.732 18.7566 280.847 19.7055C280.867 19.8987 280.872 20.0933 280.86 20.2872L292.616 25.3143L292.167 32.1851L276.807 23.5552C276.007 23.4441 275.267 23.0711 274.702 22.4945C274.137 21.9179 273.778 21.1701 273.681 20.3678C273.631 19.9107 273.671 19.4482 273.799 19.0066C273.927 18.565 274.141 18.153 274.428 17.7941C274.715 17.4352 275.07 17.1364 275.472 16.9149C275.874 16.6933 276.316 16.5533 276.773 16.5027C276.805 16.4992 276.837 16.4961 276.868 16.4935Z" fill="#FFB6B6"/>
<path d="M356.848 58.9059C356.558 57.5739 356.018 56.3089 355.258 55.1781C355.046 54.8563 354.816 54.5475 354.568 54.2533C353.645 53.1517 352.784 52.1413 351.986 51.2393C351.501 50.674 351.028 50.1489 350.583 49.6639C348.001 46.8266 346.308 45.3253 345.533 45.1996C345.156 45.1369 344.786 45.0912 344.427 45.0455C342.586 44.8172 341.251 44.6516 341.212 42.7049C341.208 42.426 341.227 42.1473 341.268 41.8715C341.338 41.4084 341.439 40.9507 341.571 40.5015C341.647 40.2469 341.706 39.9876 341.747 39.7252C341.804 39.3885 341.782 39.1371 341.599 38.9829C341.371 38.7948 340.989 38.8232 340.271 39.1086C340.157 39.1544 340.026 39.2056 339.889 39.2684C339.843 39.2856 339.798 39.3085 339.746 39.3314C339.655 39.3712 339.553 39.4169 339.45 39.4682C338.589 39.8793 337.261 39.9306 335.745 39.7765C331.27 39.3199 325.216 37.0593 325.142 37.0306L287.016 22.1943L286.663 22.7652L285.824 24.1238L285.534 24.5917L285.203 25.1283L283.761 27.4574L283.031 28.6334L295.345 37.9326L296.684 38.943L297.836 39.8166L321.345 57.5757L330.112 63.3698L332.068 64.6598L340.402 70.1629C341.6 70.9555 342.944 71.4998 344.356 71.7636C345.767 72.0274 347.217 72.0054 348.62 71.6989C350.023 71.3925 351.35 70.8077 352.523 69.9792C353.697 69.1507 354.692 68.0952 355.452 66.875C356.932 64.5005 357.432 61.6431 356.848 58.9059Z" fill="#C5E4EA"/>
<path d="M411.43 282H0.57006C0.418871 282 0.273873 281.94 0.166966 281.833C0.0600593 281.726 0 281.581 0 281.429C0 281.278 0.0600593 281.133 0.166966 281.026C0.273873 280.919 0.418871 280.858 0.57006 280.858H411.43C411.581 280.858 411.726 280.919 411.833 281.026C411.94 281.133 412 281.278 412 281.429C412 281.581 411.94 281.726 411.833 281.833C411.726 281.94 411.581 282 411.43 282Z" fill="#E6E6E6"/>
<path d="M94.0117 95.2129L95.08 105.135L94.4518 118.146L123.231 114.723L125.935 95.2129L122.49 95.2471L94.0117 95.2129Z" fill="#FFB6B6"/>
<path d="M118.491 63.1643L107.66 54.6015L101.975 54.2705L93.5383 59.6826L91.4725 70.2362L86.5868 82.1203L93.7527 114.192C93.7527 114.192 94.4248 116.493 92.6636 116.77C90.9024 117.046 91.1136 120.438 91.1136 120.438C91.1136 120.438 91.4722 123.379 89.762 123.637C88.0519 123.896 83.4916 123.896 87.4821 129.034C91.4725 134.172 123.034 114.74 123.034 114.74L127.618 90.6535C127.618 90.6535 136.509 78.6963 126.935 71.8482L118.491 63.1643Z" fill="#C5E4EA"/>
<path d="M71.2082 135.981C70.7309 135.385 70.3901 134.691 70.2096 133.948C70.0291 133.206 70.0134 132.433 70.1636 131.683C70.3138 130.934 70.6262 130.227 71.0789 129.611C71.5315 128.996 72.1134 128.488 72.7835 128.122L86.4074 82.3369L94.9263 86.6318L80.0896 130.516C80.6286 131.684 80.7209 133.01 80.3492 134.241C79.9775 135.473 79.1675 136.525 78.0728 137.199C76.9781 137.873 75.6746 138.121 74.4094 137.896C73.1442 137.672 72.0052 136.99 71.2082 135.981Z" fill="#A0616A"/>
<path d="M95.4946 59.2594C95.4946 59.2594 93.0594 57.9634 91.3937 63.5716C90.0602 68.0614 79.2397 94.8046 79.1017 101.307C78.2112 101.496 77.4088 101.976 76.8209 102.672C76.233 103.368 75.893 104.24 75.8545 105.15L89.2331 106.946C91.571 104.971 92.1843 102.304 91.2797 101.513L94.1845 93.5683L106.303 68.2913L97.2715 60.1649L95.4946 59.2594Z" fill="#C5E4EA"/>
<path d="M166.981 120.932C167.154 120.188 167.161 119.414 167.003 118.667C166.846 117.919 166.526 117.215 166.067 116.605C165.608 115.994 165.021 115.492 164.347 115.133C163.673 114.774 162.929 114.568 162.167 114.528L130.914 78.7852L124.284 86.7068L156.613 119.851C156.631 121.137 157.121 122.372 157.988 123.322C158.855 124.272 160.039 124.87 161.317 125.003C162.595 125.136 163.878 124.796 164.922 124.045C165.965 123.295 166.698 122.187 166.981 120.932Z" fill="#A0616A"/>
<path d="M111.951 62.2711C111.951 62.2711 113.587 60.0479 117.511 64.3833C120.652 67.8542 141.957 87.2817 144.889 93.0846C145.774 92.8693 146.705 92.9549 147.535 93.3278C148.366 93.7007 149.049 94.3397 149.477 95.1442L138.189 102.557C135.229 101.789 133.524 99.6495 133.998 98.5442L127.948 92.6387L106.105 75.0953L110.74 63.857L111.951 62.2711Z" fill="#C5E4EA"/>
<path d="M228.496 160.408C272.573 160.408 308.304 124.627 308.304 80.4887C308.304 36.3505 272.573 0.569336 228.496 0.569336C184.419 0.569336 148.688 36.3505 148.688 80.4887C148.688 124.627 184.419 160.408 228.496 160.408Z" fill="#02457A"/>
<path d="M337.838 269.996L332.599 269.951L330.279 249.241L338.013 249.307L337.838 269.996Z" fill="#FFB6B6"/>
<path d="M339.228 267.576L337.86 267.485L332.28 267.102L330.484 266.982L330.45 270.733L322.081 276.419C321.668 276.7 321.355 277.106 321.189 277.578C321.022 278.049 321.011 278.562 321.156 279.041C321.301 279.52 321.595 279.939 321.995 280.239C322.396 280.538 322.881 280.702 323.381 280.705L333.796 280.791L335.62 277.092L336.287 280.814L340.22 280.848L339.228 267.576Z" fill="#2F2E41"/>
<path d="M393.004 266.162L387.996 267.704L379.542 248.661L386.934 246.386L393.004 266.162Z" fill="#FFB6B6"/>
<path d="M393.6 263.437L392.266 263.762L386.834 265.081L385.084 265.509L386.184 269.1L379.919 277.046C379.647 277.392 379.478 277.808 379.43 278.246C379.383 278.684 379.46 279.127 379.652 279.523C379.844 279.92 380.144 280.254 380.516 280.488C380.889 280.722 381.32 280.847 381.76 280.847C381.992 280.847 382.223 280.812 382.444 280.745L392.403 277.679L393.024 273.598L394.786 276.943L398.543 275.784L393.6 263.437Z" fill="#2F2E41"/>
<path d="M327.299 95.8555L317.3 124.954L316.97 127.283C314.451 129.678 317.616 130.467 316.429 131.099C315.242 131.731 314.444 133.502 316.043 133.818C317.643 134.134 322.799 247.631 329.6 252.037C336.401 256.444 340.54 259.632 339.291 253.179C338.788 250.579 339.499 236.64 340.529 220.921C340.646 219.14 342.489 217.254 340.89 215.522C339.291 213.79 341.087 212.65 341.187 211.213C342.622 190.687 344.278 170.422 344.278 170.422C344.278 170.422 354.878 206.875 357.631 204.053C360.383 201.231 359.294 208.179 360.135 210.255C360.838 211.99 357.839 215.398 362.246 215.451C366.654 215.503 377.005 250.936 378.055 250.896C380.135 250.816 385.983 251.041 389.456 250.325C391.171 249.971 383.559 223.145 377.202 199.98C376.695 198.132 373.936 198.089 375.711 194.523C377.485 190.956 368.656 167.879 369.414 166.811C371.425 163.978 372.191 162.747 370.207 162.561C368.224 162.376 367.638 163.465 367.531 160.717C367.424 157.969 367.082 151.192 367.082 151.192C367.082 151.192 365.645 124.392 355.586 109.584L354.728 100.787L327.299 95.8555Z" fill="#2F2E41"/>
<path d="M352.279 40.2988L339.019 42.1895L338.219 51.8044L331.676 62.0542C331.676 62.0542 317.131 72.3038 327.275 88.4951C323.415 102.443 319.577 115.819 315.918 124.737C313.068 142.433 338.603 144.13 367.794 137.867C367.794 137.867 367.391 130.3 364.742 126.662C362.093 123.024 363.535 122.23 363.535 122.23L361.684 115.434C362.732 105.611 359.195 104.729 357.533 100.19L362.579 53.0981L352.279 40.2988Z" fill="#C5E4EA"/>
<path d="M288.624 122.611C288.764 121.666 289.268 120.813 290.027 120.233C290.786 119.654 291.741 119.394 292.688 119.509C292.881 119.535 293.07 119.577 293.256 119.635L300.936 109.403L307.492 111.479L295.457 124.357C295.159 125.108 294.62 125.738 293.926 126.15C293.232 126.563 292.421 126.733 291.62 126.635C291.165 126.575 290.726 126.426 290.328 126.196C289.931 125.966 289.582 125.66 289.303 125.295C289.023 124.93 288.818 124.514 288.699 124.07C288.58 123.626 288.55 123.162 288.61 122.706C288.614 122.675 288.619 122.643 288.624 122.611Z" fill="#FFB6B6"/>
<path d="M356.849 58.9064C356.66 58.6723 356.455 58.444 356.239 58.2213C354.733 56.6674 352.794 55.6049 350.675 55.173C348.556 54.7412 346.357 54.9601 344.364 55.801C344.171 55.8807 343.977 55.9721 343.789 56.0636C336.976 59.4143 333.3 61.6464 332.855 62.6911C332.701 63.0451 332.57 63.3933 332.439 63.73C332.313 64.0611 332.194 64.375 332.068 64.6604C331.544 65.8821 330.94 66.6414 329.4 66.2988C328.89 66.1738 328.398 65.9839 327.935 65.7338C327.724 65.6309 327.531 65.5225 327.348 65.4197C326.687 65.0545 326.208 64.7919 325.883 65.0317C325.57 65.2655 325.558 65.8592 325.843 67.2351C325.938 67.8093 325.922 68.3962 325.798 68.9646C325.421 70.6229 324.83 72.2251 324.042 73.7313C322.86 76.0923 321.531 78.3764 320.063 80.5701L306.501 99.9334L305.583 101.241L304.58 102.674L296.576 114.102L297.049 114.587L299.033 116.614L299.472 117.065L299.871 117.476L300.903 118.532L301.872 119.519L323.495 101.88L325.906 99.9105L330.227 96.3828L339.08 89.1616L355.834 73.6343C356.892 72.662 357.742 71.4857 358.335 70.1762C358.928 68.8666 359.25 67.4507 359.283 66.0134C359.283 65.9164 359.289 65.825 359.289 65.728C359.295 63.2387 358.432 60.8256 356.849 58.9064Z" fill="#C5E4EA"/>
<path d="M344.319 39.9484C352.502 39.9484 359.136 33.3055 359.136 25.1109C359.136 16.9164 352.502 10.2734 344.319 10.2734C336.136 10.2734 329.502 16.9164 329.502 25.1109C329.502 33.3055 336.136 39.9484 344.319 39.9484Z" fill="#FFB6B6"/>
<path d="M363.954 45.6852C365.943 48.5352 367.273 51.7926 367.849 55.2213C366.246 56.248 364.38 56.7872 362.478 56.7737C362.413 56.5242 362.349 56.2747 362.275 56.0252C361.724 54.0933 360.904 52.2487 359.839 50.5457C359.985 52.3821 359.736 54.2285 359.11 55.9606C358.105 55.5031 357.027 55.2248 355.926 55.1382C355.03 55.1381 354.145 55.3469 353.343 55.748C352.411 52.6525 351.553 49.8065 350.944 47.7643C350.925 52.8835 343.432 57.3466 335.257 56.6998C334.961 56.515 337.923 48.097 337.637 47.9029C336.982 47.4687 336.346 46.9974 335.709 46.5354C338.385 42.3956 341.292 37.9603 340.793 37.295C340.83 38.1174 337.896 42.0722 334.703 45.8053C332.931 44.5025 342.999 23.305 338.025 21.5863C337.942 22.3348 336.844 22.3348 335.506 22.1777C335.153 20.9427 334.628 19.7638 333.946 18.6755C334.035 19.7717 333.903 20.8746 333.559 21.9189C332.238 21.9193 330.92 22.0587 329.628 22.3347C329.329 21.8637 328.999 21.413 328.641 20.9856C328.676 21.5064 328.66 22.0294 328.594 22.5473C327.275 22.8337 326.186 23.1663 326.029 23.4344C324.996 23.0555 326.758 21.346 326.112 20.4589C324.47 18.2413 326.906 15.0071 328.447 12.7155C331.612 8.02137 338.56 6.39505 343.479 9.21336C343.7 8.44639 344.835 7.93818 346.293 7.59629C346.911 7.45991 347.543 7.40093 348.175 7.42072C354.45 7.5316 363.161 12.7155 363.502 18.9897C363.53 19.6181 363.576 20.3018 363.622 21.0318C364.065 28.0546 363.521 34.5321 368.31 39.6697C370.045 41.527 370.063 50.3239 369.399 54.8517C367.673 53.0314 366.446 45.9532 363.954 45.6852Z" fill="#2F2E41"/>
<path d="M200.766 82.4935C201.71 82.4935 202.476 81.7267 202.476 80.7809C202.476 79.8351 201.71 79.0684 200.766 79.0684C199.821 79.0684 199.056 79.8351 199.056 80.7809C199.056 81.7267 199.821 82.4935 200.766 82.4935Z" fill="#02457A"/>
<path d="M254.922 81.3519C255.867 81.3519 256.632 80.5851 256.632 79.6393C256.632 78.6935 255.867 77.9268 254.922 77.9268C253.978 77.9268 253.212 78.6935 253.212 79.6393C253.212 80.5851 253.978 81.3519 254.922 81.3519Z" fill="#02457A"/>
<path d="M92.1298 31.281C90.8283 34.5269 87.1565 40.9102 86.6592 44.3924L86.883 44.172C87.31 44.9024 87.7953 45.5972 88.334 46.2494C89.2996 45.2339 90.4657 44.431 91.7583 43.8916C91.0525 45.3418 90.6437 46.9188 90.5561 48.5297C91.9417 52.8792 98.3476 50.9423 102.101 50.4674C105.849 54.7606 110.836 55.8809 117.365 53.4126C119.192 53.6009 121.236 53.7152 122.516 52.6346C123.796 51.554 123.034 49.5527 123.722 48.0391C128.627 37.2574 124.1 33.3675 120.255 28.4787C119.409 27.4028 119.412 25.7973 118.382 24.7708C116.954 23.348 114.763 22.9104 112.744 22.5598C113.269 22.5875 113.792 22.4795 114.262 22.2462C114.733 22.0129 115.136 21.6622 115.432 21.2278C115.692 20.7901 115.826 20.2891 115.82 19.78C115.813 19.2709 115.666 18.7735 115.396 18.3426C114.673 17.1437 113.173 16.4465 111.725 16.2723C110.299 16.1753 108.866 16.2986 107.477 16.638C106.577 16.7565 105.706 17.0353 104.905 17.4613C104.527 17.6634 104.219 17.9762 104.023 18.358C103.827 18.7398 103.753 19.1724 103.809 19.5979C103.929 19.9908 104.137 20.3514 104.416 20.6528C104.695 20.9542 105.039 21.1885 105.421 21.3384C106.004 21.5851 106.617 21.7532 107.244 21.8381C104.364 21.4638 101.438 21.9767 98.8557 23.3084C95.6195 25.0371 93.4358 28.0368 92.1298 31.281Z" fill="#2F2E41"/>
<path d="M109.653 49.4789C116.042 49.4789 121.221 44.2925 121.221 37.8947C121.221 31.497 116.042 26.3105 109.653 26.3105C103.264 26.3105 98.085 31.497 98.085 37.8947C98.085 44.2925 103.264 49.4789 109.653 49.4789Z" fill="#A0616A"/>
<path d="M98.522 31.6838C99.1927 33.7137 101.109 34.3678 102.881 34.7758C103.44 34.9062 104.002 35.0276 104.569 35.1357C104.778 34.8737 105.001 34.617 105.233 34.3742C106.199 33.3588 107.365 32.5558 108.658 32.0165C108.099 33.162 107.727 34.39 107.557 35.6536C108.628 35.8092 109.705 35.9363 110.788 36.0351C111.704 36.2303 112.66 36.0657 113.459 35.5751C114.257 35.0846 114.837 34.3056 115.078 33.3992C116.064 35.0135 117.23 36.5338 118.824 37.1751C119.735 37.503 120.728 37.53 121.655 37.252C122.583 36.974 123.398 36.4057 123.98 35.6303C124.899 34.3654 125.536 32.9178 125.849 31.3851C126.301 29.5875 126.552 27.5167 125.664 26.3762C124.953 25.4531 123.725 25.4366 122.593 25.5184C120.093 25.7105 117.62 26.1595 115.212 26.8584L115.008 27.3173C115.422 24.8279 114.524 22.4328 112.864 21.581C111.744 21.0115 110.396 21.107 109.086 21.2225C107.404 21.2977 105.743 21.6195 104.154 22.1778C102.331 22.8798 100.77 24.1286 99.6833 25.7532C98.521 27.5205 97.9434 29.9307 98.522 31.6838Z" fill="#2F2E41"/>
<path d="M115.013 20.8564C114.899 20.8227 115.194 20.866 115.092 20.8688C115.143 20.8658 115.194 20.8587 115.243 20.8475C115.252 20.8458 115.367 20.809 115.29 20.8361C115.462 20.7847 115.616 20.6845 115.732 20.5477C116.003 20.2112 116.217 19.8313 116.362 19.4239C116.546 18.8855 116.842 18.3921 117.229 17.9761C117.339 17.8654 117.474 17.7823 117.622 17.7334C117.77 17.6846 117.928 17.6714 118.082 17.695C118.236 17.7185 118.383 17.7782 118.51 17.8691C118.636 17.9599 118.74 18.0795 118.812 18.218C118.958 18.7524 118.908 19.3216 118.671 19.8221C118.505 20.3314 118.258 20.8105 117.94 21.2411C117.407 21.9452 116.681 22.4787 115.85 22.7767C114.888 23.1264 113.84 23.1565 112.86 22.8623C112.73 22.8085 112.619 22.7182 112.54 22.6023C112.461 22.4864 112.417 22.35 112.414 22.2097C112.411 22.0694 112.449 21.9312 112.523 21.812C112.597 21.6928 112.704 21.5977 112.831 21.5383L114.465 20.8684C114.551 20.8305 114.644 20.8099 114.738 20.8078C114.832 20.8058 114.925 20.8223 115.013 20.8564C115.1 20.8905 115.181 20.9416 115.248 21.0067C115.316 21.0717 115.371 21.1496 115.409 21.2357C115.447 21.3219 115.467 21.4147 115.469 21.5088C115.471 21.6029 115.455 21.6964 115.421 21.7842C115.387 21.8719 115.336 21.952 115.271 22.02C115.206 22.088 115.128 22.1425 115.042 22.1804L113.407 22.8503L113.379 21.5263C113.582 21.5853 113.792 21.6212 114.004 21.6334C114.23 21.6561 114.458 21.6465 114.682 21.6048C114.896 21.5767 115.106 21.5254 115.309 21.4517C115.439 21.4042 115.566 21.3501 115.691 21.2897C115.736 21.2677 115.781 21.2449 115.825 21.2212C115.822 21.2229 116.012 21.112 115.929 21.1641C116.14 21.0289 116.338 20.8742 116.521 20.702C116.585 20.641 116.645 20.5748 116.699 20.504C116.792 20.3895 116.878 20.2696 116.957 20.145C117.118 19.8811 117.246 19.5981 117.337 19.3026C117.378 19.1784 117.413 19.0521 117.442 18.9243C117.45 18.8541 117.462 18.7845 117.48 18.7161C117.54 18.553 117.468 18.8113 117.538 18.882L117.839 19.1043C117.896 19.1212 117.956 19.1251 118.014 19.1157C118.072 19.1064 118.128 19.084 118.176 19.0503C118.212 19 118.204 19.0084 118.153 19.0753C118.093 19.1542 118.038 19.2367 117.989 19.3225C117.881 19.5244 117.783 19.7316 117.696 19.9434C117.517 20.3939 117.289 20.8238 117.018 21.2259C116.753 21.6326 116.366 21.945 115.913 22.1186C115.459 22.2921 114.963 22.318 114.494 22.1924C114.318 22.1223 114.177 21.9857 114.101 21.8121C114.024 21.6386 114.019 21.4419 114.086 21.2647C114.158 21.0899 114.295 20.9499 114.468 20.8738C114.64 20.7977 114.836 20.7915 115.013 20.8564Z" fill="#2F2E41"/>
<g filter="url(#filter0_i_741_68978)">
<path d="M219.625 104.381L211.643 112.141C209.55 114.235 206.711 115.411 203.751 115.411C200.791 115.411 197.952 114.235 195.859 112.141C193.766 110.047 192.59 107.207 192.59 104.246C192.59 101.285 193.766 98.445 195.859 96.3512L216.333 75.8244C218.342 73.8075 221.05 72.6406 223.896 72.565C226.741 72.4894 229.507 73.511 231.621 75.4183L232.162 75.8695C233.017 76.707 234.17 77.1704 235.366 77.1577C236.563 77.145 237.706 76.6573 238.543 75.8018C239.38 74.9463 239.843 73.7931 239.831 72.596C239.818 71.3988 239.33 70.2557 238.475 69.4182C238.221 69.089 237.95 68.7728 237.663 68.4708C233.814 65.1203 228.835 63.3587 223.736 63.543C218.636 63.7273 213.798 65.8436 210.2 69.4633L189.455 89.9901C185.931 93.8284 184.024 98.8806 184.134 104.092C184.245 109.303 186.363 114.27 190.047 117.955C193.731 121.641 198.696 123.76 203.905 123.87C209.114 123.981 214.165 122.074 218.001 118.547L225.803 110.923C226.573 110.082 226.997 108.981 226.988 107.84C226.98 106.7 226.54 105.605 225.757 104.776C224.974 103.947 223.906 103.446 222.768 103.372C221.631 103.299 220.508 103.66 219.625 104.381ZM267.833 40.1393C264.039 36.3678 258.908 34.251 253.56 34.251C248.212 34.251 243.081 36.3678 239.287 40.1393L231.485 47.7635C230.715 48.6042 230.291 49.7056 230.3 50.846C230.309 51.9864 230.749 53.0813 231.532 53.9102C232.315 54.7392 233.382 55.2408 234.52 55.314C235.658 55.3873 236.781 55.0268 237.663 54.305L245.465 46.5455C247.558 44.4516 250.397 43.2753 253.357 43.2753C256.317 43.2753 259.156 44.4516 261.249 46.5455C263.342 48.6393 264.518 51.4792 264.518 54.4404C264.518 57.4016 263.342 60.2415 261.249 62.3353L240.775 82.8621C238.766 84.879 236.058 86.0459 233.212 86.1215C230.367 86.1971 227.601 85.1755 225.487 83.2682L224.946 82.817C224.091 81.9795 222.938 81.5161 221.742 81.5288C220.545 81.5415 219.402 82.0292 218.565 82.8847C217.728 83.7402 217.265 84.8933 217.277 86.0905C217.29 87.2877 217.778 88.4308 218.633 89.2683C218.96 89.6034 219.307 89.9198 219.67 90.2157C223.524 93.5561 228.501 95.3111 233.597 95.1269C238.693 94.9427 243.53 92.8331 247.134 89.2232L267.653 68.6964C271.447 64.9252 273.595 59.8055 273.629 54.455C273.663 49.1046 271.579 43.9581 267.833 40.1393Z" fill="white"/>
</g>
</g>
<defs>
<filter id="filter0_i_741_68978" x="184.13" y="34.251" width="89.499" height="93.624" filterUnits="userSpaceOnUse" color-interpolation-filters="sRGB">
<feFlood flood-opacity="0" result="BackgroundImageFix"/>
<feBlend mode="normal" in="SourceGraphic" in2="BackgroundImageFix" result="shape"/>
<feColorMatrix in="SourceAlpha" type="matrix" values="0 0 0 0 0 0 0 0 0 0 0 0 0 0 0 0 0 0 127 0" result="hardAlpha"/>
<feOffset dy="4"/>
<feGaussianBlur stdDeviation="2"/>
<feComposite in2="hardAlpha" operator="arithmetic" k2="-1" k3="1"/>
<feColorMatrix type="matrix" values="0 0 0 0 0 0 0 0 0 0 0 0 0 0 0 0 0 0 0.1 0"/>
<feBlend mode="normal" in2="shape" result="effect1_innerShadow_741_68978"/>
</filter>
<clipPath id="clip0_741_68978">
<rect width="412" height="282" fill="white"/>
</clipPath>
</defs>
</svg>
