<svg width="234" height="234" viewBox="0 0 234 234" fill="none" xmlns="http://www.w3.org/2000/svg">
<g clip-path="url(#clip0_65_3438)">
<path d="M76.2794 150.883C90.2203 150.883 101.522 139.581 101.522 125.64C101.522 111.7 90.2203 100.398 76.2794 100.398C62.3385 100.398 51.0371 111.7 51.0371 125.64C51.0371 139.581 62.3385 150.883 76.2794 150.883Z" fill="#E6E6E6"/>
<path d="M69.4599 162.501L75.6691 166.349V140.34L68.7093 136.027C68.1339 135.671 67.7135 135.111 67.5313 134.459C68.1962 134.332 68.8845 134.459 69.4599 134.816L75.6692 138.664V128.578C75.6692 126.627 75.9084 124.683 76.3816 122.791C76.8549 124.683 77.0941 126.627 77.0941 128.578V145.039L86.2545 139.363C86.986 138.91 87.8323 138.676 88.6927 138.69C88.3223 139.467 87.7366 140.121 87.0051 140.574L77.0941 146.716V208.744H75.6691V168.025L68.7093 163.712C68.1339 163.356 67.7135 162.796 67.5312 162.144C68.1961 162.017 68.8845 162.144 69.4599 162.501Z" fill="#CCCCCC"/>
<path d="M38.8927 153.026C52.8336 153.026 64.135 141.725 64.135 127.784C64.135 113.843 52.8336 102.541 38.8927 102.541C24.9518 102.541 13.6504 113.843 13.6504 127.784C13.6504 141.725 24.9518 153.026 38.8927 153.026Z" fill="#E6E6E6"/>
<path d="M45.7132 164.644L39.504 168.492V142.483L46.4638 138.17C47.0392 137.814 47.4597 137.254 47.6419 136.602C46.977 136.475 46.2886 136.603 45.7132 136.959L39.504 140.807V130.721C39.504 128.77 39.2647 126.827 38.7915 124.934C38.3183 126.827 38.079 128.77 38.079 130.721V147.183L28.9186 141.506C28.1872 141.053 27.3409 140.82 26.4805 140.834C26.8508 141.61 27.4366 142.264 28.168 142.718L38.079 148.859V208.36H39.504V170.168L46.4638 165.855C47.0392 165.499 47.4597 164.939 47.6419 164.287C46.977 164.16 46.2886 164.288 45.7132 164.644Z" fill="#CCCCCC"/>
<path d="M57.2284 118.555C81.2312 118.555 100.689 99.0965 100.689 75.0938C100.689 51.091 81.2312 31.6329 57.2284 31.6329C33.2257 31.6329 13.7676 51.091 13.7676 75.0938C13.7676 99.0965 33.2257 118.555 57.2284 118.555Z" fill="#E6E6E6"/>
<path d="M68.9714 138.558L58.2806 145.183V100.403L70.2637 92.9771C71.2544 92.3632 71.9783 91.3995 72.292 90.277C71.1472 90.0584 69.9621 90.2777 68.9714 90.8916L58.2806 97.5163V80.1518C58.2806 76.7925 57.8686 73.446 57.0539 70.187C56.2392 73.446 55.8272 76.7925 55.8272 80.1518V108.494L40.0553 98.7206C38.7959 97.9402 37.3388 97.5382 35.8574 97.5624C36.4951 98.8998 37.5036 100.026 38.763 100.806L55.8272 111.38V208.456H58.2806V148.069L70.2637 140.644C71.2544 140.03 71.9783 139.066 72.292 137.944C71.1472 137.725 69.9621 137.944 68.9714 138.558Z" fill="#CCCCCC"/>
<path d="M233.502 208.376H22.3711V208.895H233.502V208.376Z" fill="#3F3D56"/>
<path d="M180.614 73.4422H180.024V43.8475C180.024 41.1621 178.958 38.5867 177.059 36.6878C175.16 34.7889 172.584 33.7222 169.899 33.7222H103.992C101.306 33.7222 98.7306 34.7889 96.8318 36.6878C94.9329 38.5867 93.8661 41.1621 93.8661 43.8475V56.8141H93.6427C93.485 56.8141 93.3337 56.8767 93.2222 56.9883C93.1107 57.0998 93.048 57.251 93.048 57.4088V63.2077C93.048 63.3655 93.1107 63.5167 93.2222 63.6282C93.3337 63.7398 93.485 63.8024 93.6427 63.8024H93.8661V69.6066H93.5908C93.5127 69.6066 93.4354 69.622 93.3632 69.6519C93.291 69.6817 93.2255 69.7255 93.1703 69.7808C93.115 69.836 93.0712 69.9016 93.0413 69.9737C93.0115 70.0459 92.9961 70.1232 92.9961 70.2013V81.1759C92.9961 81.3336 93.0588 81.4849 93.1703 81.5964C93.2818 81.7079 93.4331 81.7706 93.5908 81.7706H93.8661V86.027H93.6168C93.5387 86.027 93.4613 86.0423 93.3892 86.0722C93.317 86.1021 93.2515 86.1459 93.1963 86.2011C93.141 86.2563 93.0972 86.3219 93.0673 86.394C93.0375 86.4662 93.0221 86.5435 93.0221 86.6216V97.7002C93.0221 97.8579 93.0847 98.0091 93.1963 98.1207C93.3078 98.2322 93.459 98.2949 93.6168 98.2949H93.8661V198.7C93.8661 201.385 94.9328 203.961 96.8317 205.86C98.7306 207.759 101.306 208.826 103.992 208.826H169.899C172.585 208.826 175.16 207.759 177.059 205.86C178.958 203.961 180.025 201.385 180.024 198.7V94.667H180.614C180.772 94.667 180.923 94.6044 181.035 94.4928C181.146 94.3813 181.209 94.2301 181.209 94.0723V74.0369C181.209 73.8792 181.146 73.7279 181.035 73.6164C180.923 73.5048 180.772 73.4422 180.614 73.4422Z" fill="#3F3D56"/>
<path d="M139.66 41.5233H129.639C129.338 41.523 129.049 41.4033 128.837 41.1906C128.624 40.9779 128.504 40.6895 128.504 40.3886V39.9547C128.504 39.6539 128.624 39.3654 128.837 39.1527C129.049 38.94 129.338 38.8204 129.639 38.8201H139.66C139.961 38.8204 140.25 38.94 140.462 39.1527C140.675 39.3654 140.795 39.6539 140.795 39.9547V40.3886C140.795 40.6895 140.675 40.9779 140.462 41.1906C140.25 41.4033 139.961 41.523 139.66 41.5233Z" fill="white"/>
<path d="M143.869 41.5598C144.635 41.5598 145.256 40.9389 145.256 40.173C145.256 39.4071 144.635 38.7863 143.869 38.7863C143.103 38.7863 142.482 39.4071 142.482 40.173C142.482 40.9389 143.103 41.5598 143.869 41.5598Z" fill="white"/>
<path d="M167.861 38.2825H157.992V39.4693C157.992 40.9639 157.399 42.3972 156.342 43.4541C155.285 44.5109 153.852 45.1046 152.357 45.1046H120.919C120.179 45.105 119.446 44.9596 118.763 44.6768C118.079 44.3941 117.458 43.9795 116.935 43.4567C116.412 42.9338 115.996 42.3131 115.713 41.6298C115.43 40.9466 115.284 40.2142 115.283 39.4745V38.2825H106.03C104.216 38.2825 102.475 39.0034 101.192 40.2867C99.9084 41.57 99.1875 43.3105 99.1875 45.1254V197.42C99.1875 199.235 99.9084 200.975 101.192 202.259C102.475 203.542 104.216 204.263 106.03 204.263H167.861C169.675 204.263 171.415 203.542 172.698 202.259C173.98 200.977 174.701 199.237 174.701 197.422V45.1254C174.701 44.2271 174.525 43.3375 174.181 42.5075C173.838 41.6775 173.334 40.9232 172.699 40.2878C172.065 39.6524 171.311 39.1482 170.481 38.8042C169.651 38.4601 168.762 38.2828 167.863 38.2825H167.861Z" fill="white"/>
<path d="M150.187 185.783H123.698C121.804 185.783 119.988 185.03 118.648 183.691C117.309 182.352 116.557 180.535 116.557 178.641C116.557 176.747 117.309 174.931 118.648 173.591C119.988 172.252 121.804 171.5 123.698 171.5H150.187C152.081 171.5 153.898 172.252 155.237 173.591C156.576 174.931 157.329 176.747 157.329 178.641C157.329 180.535 156.576 182.352 155.237 183.691C153.898 185.03 152.081 185.783 150.187 185.783Z" fill="#C5E4EA"/>
<path d="M160.575 127.121H113.311C112.657 127.121 112.029 126.861 111.566 126.398C111.104 125.936 110.844 125.308 110.844 124.654C110.844 123.999 111.104 123.372 111.566 122.909C112.029 122.447 112.657 122.187 113.311 122.187H160.575C161.229 122.187 161.857 122.447 162.32 122.909C162.782 123.372 163.042 123.999 163.042 124.654C163.042 125.308 162.782 125.936 162.32 126.398C161.857 126.861 161.229 127.121 160.575 127.121Z" fill="#E6E6E6"/>
<path d="M160.575 134.392H113.311C112.657 134.392 112.029 134.132 111.566 133.67C111.104 133.207 110.844 132.58 110.844 131.925C110.844 131.271 111.104 130.643 111.566 130.181C112.029 129.718 112.657 129.458 113.311 129.458H160.575C161.229 129.458 161.857 129.718 162.32 130.181C162.782 130.643 163.042 131.271 163.042 131.925C163.042 132.58 162.782 133.207 162.32 133.67C161.857 134.132 161.229 134.392 160.575 134.392Z" fill="#E6E6E6"/>
<path d="M160.575 141.664H113.311C112.657 141.664 112.029 141.404 111.566 140.941C111.104 140.478 110.844 139.851 110.844 139.197C110.844 138.542 111.104 137.915 111.566 137.452C112.029 136.989 112.657 136.729 113.311 136.729H160.575C161.229 136.729 161.857 136.989 162.32 137.452C162.782 137.915 163.042 138.542 163.042 139.197C163.042 139.851 162.782 140.478 162.32 140.941C161.857 141.404 161.229 141.664 160.575 141.664Z" fill="#E6E6E6"/>
<path d="M160.575 148.935H113.311C112.657 148.935 112.029 148.675 111.566 148.212C111.104 147.75 110.844 147.122 110.844 146.468C110.844 145.814 111.104 145.186 111.566 144.724C112.029 144.261 112.657 144.001 113.311 144.001H160.575C161.229 144.001 161.857 144.261 162.32 144.724C162.782 145.186 163.042 145.814 163.042 146.468C163.042 147.122 162.782 147.75 162.32 148.212C161.857 148.675 161.229 148.935 160.575 148.935Z" fill="#E6E6E6"/>
<path d="M128.373 156.207H113.311C112.657 156.207 112.029 155.947 111.566 155.484C111.104 155.021 110.844 154.394 110.844 153.739C110.844 153.085 111.104 152.458 111.566 151.995C112.029 151.532 112.657 151.272 113.311 151.272H128.373C129.027 151.272 129.655 151.532 130.118 151.995C130.58 152.458 130.84 153.085 130.84 153.739C130.84 154.394 130.58 155.021 130.118 155.484C129.655 155.947 129.027 156.207 128.373 156.207Z" fill="#E6E6E6"/>
<path d="M167.972 106.903H105.913C105.364 106.903 104.838 106.685 104.451 106.297C104.063 105.909 103.844 105.383 103.844 104.834V58.7746C103.844 58.226 104.063 57.7 104.451 57.3121C104.838 56.9242 105.364 56.706 105.913 56.7054H167.972C168.521 56.706 169.047 56.9242 169.435 57.3121C169.823 57.7 170.041 58.226 170.042 58.7746V104.834C170.041 105.383 169.823 105.909 169.435 106.297C169.047 106.685 168.521 106.903 167.972 106.903Z" fill="#E6E6E6"/>
<g opacity="0.1">
<path d="M178.966 93.7556C178.966 93.3989 178.966 93.0405 178.966 92.6804C178.952 92.9581 178.952 93.2364 178.966 93.514C178.963 93.5945 178.966 93.675 178.966 93.7556Z" fill="black"/>
</g>
<path d="M189.318 114.176C193.081 114.176 196.132 111.126 196.132 107.362C196.132 103.599 193.081 100.548 189.318 100.548C185.555 100.548 182.504 103.599 182.504 107.362C182.504 111.126 185.555 114.176 189.318 114.176Z" fill="#FFB8B8"/>
<path d="M207.04 162.616C207.306 162.373 207.516 162.074 207.654 161.741C207.791 161.407 207.855 161.048 207.839 160.688C207.823 160.328 207.728 159.975 207.561 159.656C207.394 159.336 207.159 159.057 206.873 158.838L205.944 150.585L200.77 151.997L203.289 159.425C202.953 159.931 202.814 160.542 202.898 161.143C202.983 161.745 203.285 162.294 203.747 162.687C204.21 163.08 204.8 163.29 205.407 163.277C206.014 163.264 206.595 163.029 207.04 162.616Z" fill="#FFB8B8"/>
<path d="M210.821 204.402L213.677 202.555L207.91 190.66L203.695 193.387L210.821 204.402Z" fill="#FFB8B8"/>
<path d="M220.9 201.644L211.925 207.45L209.682 203.982L215.319 200.335C215.757 200.052 216.247 199.857 216.761 199.763C217.274 199.669 217.801 199.677 218.312 199.786C218.822 199.896 219.306 200.105 219.736 200.401C220.166 200.698 220.533 201.076 220.817 201.514L220.9 201.644Z" fill="#2F2E41"/>
<path d="M185.529 205.611H188.93L190.549 192.492H185.529V205.611Z" fill="#FFB8B8"/>
<path d="M195.49 208.769H184.801V204.639H191.515C192.569 204.639 193.58 205.058 194.326 205.803C195.071 206.549 195.49 207.56 195.49 208.615V208.769Z" fill="#2F2E41"/>
<path d="M199.18 120.892C198.727 122.365 200.331 123.968 200.848 125.416C201.366 126.863 202.062 128.256 202.342 129.771C202.534 130.813 206.872 153.819 206.664 155.219C205.328 154.819 203.89 154.951 202.649 155.588C201.783 154.065 201.262 152.371 201.124 150.624C201.072 149.589 201.081 148.551 201.153 147.517C201.288 144.59 200.019 141.659 199.977 138.73C199.99 137.715 199.91 136.701 199.737 135.7C199.598 135.012 199.611 133.725 199.462 133.039C199.224 131.949 200.246 131.446 200.19 130.329L199.878 124.227C199.813 123.158 198.74 121.847 199.18 120.892Z" fill="#2F2E41"/>
<path d="M183.796 146.493C182.702 148.199 180.4 148.568 178.79 149.79C176.329 151.668 182.606 193.867 184.679 201.364C190.147 200.544 190.338 200.547 190.967 200.271C191.596 199.994 192.164 178.56 193.493 174.142C195.98 176.485 203.806 196.626 205.457 201.091C212.019 199.45 205.457 201.091 213.933 198.904C213.862 197.356 201.408 146.933 200.954 142.96C195.257 144.095 189.477 145.361 183.796 146.493Z" fill="#2F2E41"/>
<path d="M183.059 114.805C182.384 116.806 183.303 124.591 183.371 126.342C183.467 127.931 183.467 129.524 183.371 131.114C183.137 133.866 182.319 136.637 182.868 139.342C183.228 141.133 183.867 142.797 184.017 144.619C184.118 145.882 184.086 147.165 184.486 148.362C185.959 147.731 199.016 145.561 199.976 144.3C199.319 141.129 199.955 137.855 199.519 134.646C199.267 132.797 198.642 131.017 198.347 129.176C197.983 126.903 198.137 124.547 197.474 122.34C197.107 121.222 196.64 120.14 196.079 119.106C195.508 117.93 194.793 116.963 194.548 116.964C193.927 116.998 183.099 114.627 183.059 114.805Z" fill="#C5E4EA"/>
<path d="M180.558 162.445C180.558 162.445 182.822 157.927 182.936 155.344C182.976 154.416 185.517 150.723 186.662 149.886C189.376 147.897 191.377 134.57 190.46 131.337C188.873 125.746 186.201 120.534 183.489 115.396C183.408 115.205 183.277 115.038 183.11 114.915C182.559 114.572 181.961 115.247 181.585 115.775C180.308 117.566 178.204 118.523 176.276 119.581C174.349 120.64 172.378 122.049 171.795 124.168C171.403 125.59 171.708 127.099 172.005 128.54C172.302 129.982 173.339 131.126 174.124 132.34C175.034 133.68 177.397 139.622 177.379 140.327C177.425 144.687 177.469 149.061 176.941 153.391C176.645 155.838 176.384 160.755 176.384 160.755L180.558 162.445Z" fill="#2F2E41"/>
<path d="M201.119 157.774C196.951 148.287 197.184 137.491 194.535 127.476C193.748 124.503 192.696 121.515 192.886 118.445C192.919 117.896 193.035 117.279 193.494 116.972C193.902 116.699 194.457 116.772 194.906 116.972C195.354 117.172 195.737 117.498 196.168 117.721C196.864 118.077 197.674 118.178 198.344 118.58C199.337 119.177 199.844 120.314 200.288 121.382C201.237 123.665 202.181 126.011 202.257 128.486C202.417 133.291 200.286 137.91 201.397 142.583C201.636 143.504 201.923 144.413 202.255 145.305C203.369 148.529 204.282 151.818 204.99 155.154C205.114 155.724 201.293 158.174 201.119 157.774Z" fill="#2F2E41"/>
<path d="M187.887 155.529C187.943 155.173 187.92 154.809 187.82 154.462C187.72 154.116 187.545 153.796 187.307 153.524C187.07 153.253 186.776 153.037 186.446 152.891C186.116 152.746 185.758 152.674 185.398 152.682L179.52 146.814L176.359 151.148L182.965 155.378C183.018 155.983 183.291 156.547 183.732 156.964C184.173 157.381 184.752 157.622 185.359 157.64C185.966 157.659 186.558 157.454 187.024 157.065C187.49 156.676 187.797 156.129 187.887 155.529Z" fill="#FFB8B8"/>
<path d="M169.16 142.204C169.256 143.085 176.662 152.383 180.686 155.417C180.452 154.22 183.606 150.315 184.626 149.705C182.076 147.299 176.748 141.72 176.572 141.415C175.996 140.302 176.572 138.972 177.075 137.821C178.659 134.162 179.406 130.011 178.39 126.154C178.007 124.707 177.338 123.257 176.12 122.367C175.587 121.98 174.868 121.715 174.277 122.009C174.029 122.152 173.814 122.345 173.645 122.575C171.758 124.871 169.088 141.55 169.16 142.204Z" fill="#2F2E41"/>
<path d="M186.413 113.325C186.811 111.637 184.799 108.004 185.197 106.316C185.467 105.173 188.155 105.95 188.782 104.957C189.409 103.965 190.46 103.16 191.635 103.147C192.985 103.132 194.313 104.133 195.592 103.7C196.884 103.263 197.298 101.492 196.726 100.253C196.155 99.0132 194.923 98.2234 193.707 97.6044C191.635 96.5505 189.223 95.7808 187.005 96.4781C185.665 96.8997 184.544 97.813 183.46 98.7064C182.471 99.5207 181.466 100.353 180.775 101.432C179.421 103.544 179.502 106.391 180.659 108.617C181.816 110.844 183.925 112.478 186.248 113.426" fill="#2F2E41"/>
</g>
<circle cx="56.7505" cy="177.008" r="56.2505" fill="#A2D3DE" fill-opacity="0.3"/>
<circle cx="178.505" cy="51.8443" r="50.8933" fill="#355471" fill-opacity="0.3"/>
<defs>
<clipPath id="clip0_65_3438">
<rect width="219.851" height="177.262" fill="white" transform="translate(13.6504 31.6331)"/>
</clipPath>
</defs>
</svg>
